SplineFontDB: 3.0
FontName: KacstFarsi
FullName: KacstFarsi
FamilyName: KacstFarsi
Weight: Medium
Copyright: KACST holds the copyright of the included Arabic font which is donated under GPL by KACST. \nURW Design and Development holds the copyright of the included Latin font which is donated under GPL by URW. 
Version: 1
ItalicAngle: 0
UnderlinePosition: -800
UnderlineWidth: 100
Ascent: 1638
Descent: 410
LayerCount: 2
Layer: 0 1 "Back" 
Layer: 1 1 "Fore" 
NeedsXUIDChange: 1
XUID: [1021 549 964643811 3685845]
FSType: 0
OS2Version: 2
OS2_WeightWidthSlopeOnly: 0
OS2_UseTypoMetrics: 1
CreationTime: 1163511077
ModificationTime: 1215812583
PfmFamily: 17
TTFWeight: 500
TTFWidth: 5
LineGap: 59
VLineGap: 0
Panose: 2 0 0 0 0 0 0 0 0 0
OS2TypoAscent: -38
OS2TypoAOffset: 1
OS2TypoDescent: -190
OS2TypoDOffset: 1
OS2TypoLinegap: 59
OS2WinAscent: -1
OS2WinAOffset: 1
OS2WinDescent: -25
OS2WinDOffset: 1
HheadAscent: -564
HheadAOffset: 1
HheadDescent: 425
HheadDOffset: 1
OS2SubXSize: 1434
OS2SubYSize: 1331
OS2SubXOff: 0
OS2SubYOff: 293
OS2SupXSize: 1434
OS2SupYSize: 1331
OS2SupXOff: 0
OS2SupYOff: 928
OS2StrikeYSize: 102
OS2StrikeYPos: 530
OS2Vendor: 'GLYF'
OS2CodePages: 00000040.00000000
OS2UnicodeRanges: 00002000.00000000.00000000.00000000
Lookup: 1 0 0 "'aalt' Access All Alternates in Latin lookup 0"  {"'aalt' Access All Alternates in Latin lookup 0 subtable"  } ['aalt' ('latn' <'dflt' > ) ]
Lookup: 3 0 0 "'aalt' Access All Alternates in Latin lookup 1"  {"'aalt' Access All Alternates in Latin lookup 1 subtable"  } ['aalt' ('latn' <'dflt' > ) ]
Lookup: 1 1 0 "'isol' Isolated Forms in Arabic lookup 2"  {"'isol' Isolated Forms in Arabic lookup 2 subtable"  } ['isol' ('arab' <'dflt' > ) ]
Lookup: 1 1 0 "'init' Initial Forms in Arabic lookup 3"  {"'init' Initial Forms in Arabic lookup 3 subtable"  } ['init' ('arab' <'dflt' > ) ]
Lookup: 1 1 0 "'medi' Medial Forms in Arabic lookup 4"  {"'medi' Medial Forms in Arabic lookup 4 subtable"  } ['medi' ('arab' <'dflt' > ) ]

StartChar: arabiccomma
Encoding: 1548 1548 1
Width: 403
Flags: W
LayerCount: 2
Fore
SplineSet
277 379 m 1,0,1
 239 351 239 351 207 314 c 128,-1,2
 175 277 175 277 158.5 241 c 128,-1,3
 142 205 142 205 144 174.5 c 128,-1,4
 146 144 146 144 175 130 c 1,5,-1
 177 131 l 1,6,7
 185 138 185 138 192.5 142.5 c 128,-1,8
 200 147 200 147 207 151 c 1,9,-1
 209 153 l 1,10,11
 213 155 213 155 214 156 c 1,12,13
 219 158 219 158 222.5 159.5 c 128,-1,14
 226 161 226 161 229 163 c 1,15,-1
 234 164 l 1,16,-1
 235 164 l 1,17,18
 237 165 237 165 247 165 c 0,19,20
 254 165 254 165 260 164 c 128,-1,21
 266 163 266 163 271 161 c 0,22,23
 274 160 274 160 278 158 c 1,24,25
 279 157 279 157 280 157 c 1,26,27
 283 155 283 155 285.5 153 c 128,-1,28
 288 151 288 151 291 149 c 0,29,30
 295 145 295 145 296 143 c 2,31,32
 297 142 297 142 297.5 141 c 128,-1,33
 298 140 298 140 299 139 c 256,34,35
 300 138 300 138 302 134 c 0,36,37
 305 130 305 130 309 120 c 1,38,-1
 317 82 l 1,39,-1
 317 79 l 2,40,41
 317 74 317 74 316.5 70.5 c 128,-1,42
 316 67 316 67 315 63 c 2,43,44
 315 59 315 59 313 51 c 1,45,46
 312 49 312 49 312 48 c 1,47,-1
 311 46 l 1,48,49
 311 44 311 44 310 43 c 1,50,51
 310 41 310 41 308 37 c 0,52,53
 307 35 307 35 306.5 33.5 c 128,-1,54
 306 32 306 32 305 30 c 0,55,56
 303 26 303 26 299 20 c 0,57,58
 296 14 296 14 291 9 c 0,59,60
 285 3 l 128,-1,61
 282 0 282 0 279 -2 c 0,62,63
 277 -3 277 -3 276.5 -3.5 c 128,-1,64
 276 -4 276 -4 274 -5 c 1,65,66
 272 -7 272 -7 269.5 -8.5 c 128,-1,67
 267 -10 267 -10 264 -11 c 1,68,69
 263 -12 263 -12 263 -22 c 256,70,71
 263 -32 263 -32 262 -32 c 1,72,-1
 262 -12 l 1,73,74
 260 -14 260 -14 257 -14.5 c 128,-1,75
 254 -15 254 -15 252 -16 c 1,76,77
 251 -17 251 -17 249 -17 c 1,78,-1
 244 -19 l 1,79,-1
 241 -19 l 1,80,81
 239 -20 239 -20 236 -20 c 0,82,83
 231 -21 231 -21 221 -21 c 2,84,-1
 208 -21 l 1,85,-1
 199 -19 l 2,86,87
 188 -17 188 -17 179 -13 c 2,88,-1
 173 -10 l 1,89,90
 172 -9 172 -9 168 -7 c 2,91,92
 167 -6 167 -6 163 -4 c 2,93,94
 162 -3 162 -3 161 -2.5 c 128,-1,95
 160 -2 160 -2 158 0 c 0,96,97
 140 15 140 15 128 39 c 2,98,-1
 124 50 l 1,99,-1
 124 49 l 1,100,-1
 122 52 l 1,101,102
 120 60 120 60 119 63 c 2,103,-1
 112 88 l 1,104,-1
 111 98 l 1,105,106
 110 100 110 100 110 106 c 0,107,108
 110 107 110 107 109.5 107.5 c 128,-1,109
 109 108 109 108 109 110 c 2,110,-1
 109 143 l 2,111,112
 109 148 109 148 110 151 c 1,113,-1
 110 156 l 1,114,115
 116 193 116 193 132 230 c 128,-1,116
 148 267 148 267 170 300 c 128,-1,117
 192 333 192 333 219.5 360 c 128,-1,118
 247 387 247 387 276 405 c 1,119,-1
 277 379 l 1,0,1
EndSplineSet
EndChar

StartChar: arabicsemicolon
Encoding: 1563 1563 2
Width: 852
Flags: W
LayerCount: 2
Fore
SplineSet
580 371 m 0,0,1
 580 350 580 350 572.5 330.5 c 128,-1,2
 565 311 565 311 550.5 296.5 c 128,-1,3
 536 282 536 282 515 273 c 128,-1,4
 494 264 494 264 467 264 c 0,5,6
 405 264 405 264 349 335 c 256,7,8
 293 406 293 406 293 500 c 0,9,10
 293 597 293 597 346 668 c 0,11,12
 384 721 384 721 438 749 c 1,13,-1
 469 758 l 1,14,15
 429 732 429 732 398 674 c 0,16,17
 373 618 373 618 373 561 c 0,18,19
 373 506 373 506 406 451 c 1,20,-1
 438 471 l 1,21,22
 448 475 448 475 457.5 477.5 c 128,-1,23
 467 480 467 480 475 481 c 0,24,25
 497 481 497 481 516.5 472 c 128,-1,26
 536 463 536 463 550 448 c 128,-1,27
 564 433 564 433 572 413 c 128,-1,28
 580 393 580 393 580 371 c 0,0,1
539 74 m 0,29,30
 539 56 539 56 532 40.5 c 128,-1,31
 525 25 525 25 513.5 13.5 c 128,-1,32
 502 2 502 2 486.5 -5 c 128,-1,33
 471 -12 471 -12 453 -12 c 0,34,35
 421 -12 421 -12 396 15 c 0,36,37
 371 40 371 40 371 74 c 0,38,39
 371 106 371 106 396 131 c 0,40,41
 421 158 421 158 453 158 c 0,42,43
 486 158 486 158 512 132 c 0,44,45
 539 108 539 108 539 74 c 0,29,30
EndSplineSet
EndChar

StartChar: arabicquestionmark
Encoding: 1567 1567 3
Width: 578
Flags: W
LayerCount: 2
Fore
SplineSet
567 896 m 0,0,1
 567 830 567 830 532 786 c 256,2,3
 497 742 497 742 447 742 c 0,4,5
 410 742 410 742 385 768 c 128,-1,6
 360 794 360 794 360 830 c 0,7,8
 360 883 360 883 404 909 c 2,9,-1
 445 932 l 2,10,11
 470 951 470 951 470 982 c 0,12,13
 470 1022 470 1022 437 1048 c 128,-1,14
 404 1074 404 1074 355 1074 c 0,15,16
 292 1074 292 1074 251 1033 c 0,17,18
 211 993 211 993 211 932 c 0,19,20
 211 876 211 876 239 830 c 2,21,-1
 301 706 l 2,22,23
 378 540 378 540 378 416 c 0,24,25
 378 387 378 387 366 305 c 1,26,-1
 336 305 l 1,27,28
 337 317 337 317 337.5 329 c 128,-1,29
 338 341 338 341 340 353 c 0,30,31
 341 364 341 364 341.5 370.5 c 128,-1,32
 342 377 342 377 342 380 c 0,33,34
 342 462 342 462 300 500 c 2,35,-1
 205 585 l 2,36,37
 79 699 79 699 79 842 c 0,38,39
 79 954 79 954 156 1034 c 256,40,41
 233 1114 233 1114 342 1114 c 0,42,43
 437 1114 437 1114 502 1051 c 256,44,45
 567 988 567 988 567 896 c 0,0,1
439 113 m 2,46,-1
 439 97 l 2,47,48
 439 87 439 87 396 44 c 0,49,50
 352 0 352 0 345 0 c 2,51,-1
 329 0 l 2,52,53
 320 0 320 0 277 43 c 256,54,55
 234 86 234 86 234 94 c 2,56,-1
 234 110 l 2,57,58
 234 118 234 118 279 163 c 0,59,60
 324 209 324 209 332 209 c 2,61,-1
 348 209 l 2,62,63
 355 209 355 209 397 165 c 256,64,65
 439 121 439 121 439 113 c 2,46,-1
EndSplineSet
EndChar

StartChar: hamza
Encoding: 1569 1569 4
Width: 654
Flags: W
AnchorPoint: "ArabicBelow" 327 -200 basechar 0
AnchorPoint: "ArabicAbove" 327 771 basechar 0
LayerCount: 2
Fore
SplineSet
472 495 m 0,0,1
 472 465 472 465 432 425 c 256,2,3
 392 385 392 385 392 356 c 1,4,5
 408 324 408 324 437 260 c 1,6,7
 366 50 366 50 256 50 c 0,8,9
 222 50 222 50 222 70 c 0,10,11
 222 75 222 75 267 110 c 0,12,13
 312 146 312 146 312 189 c 0,14,15
 312 193 312 193 273 276 c 1,16,17
 273 314 273 314 339 418 c 0,18,19
 405 521 405 521 438 521 c 0,20,21
 472 521 472 521 472 495 c 0,0,1
EndSplineSet
Substitution2: "'isol' Isolated Forms in Arabic lookup 2 subtable" hamzaisolated
Substitution2: "'aalt' Access All Alternates in Latin lookup 0 subtable" hamzaisolated
EndChar

StartChar: alefwithmaddaabove
Encoding: 1570 1570 5
Width: 528
Flags: W
AnchorPoint: "ArabicBelow" 264 -193 basechar 0
AnchorPoint: "ArabicAbove" 264 1774 basechar 0
LayerCount: 2
Fore
SplineSet
585 1472 m 2,0,1
 542 1472 542 1472 438 1419 c 0,2,3
 335 1367 335 1367 260 1367 c 0,4,5
 220 1367 220 1367 146 1395 c 0,6,7
 62 1426 62 1426 60 1457 c 1,8,-1
 63 1459 l 1,9,10
 123 1446 123 1446 163 1440 c 128,-1,11
 203 1434 203 1434 224 1434 c 0,12,13
 293 1434 293 1434 376 1479 c 0,14,15
 458 1524 458 1524 518 1524 c 0,16,17
 618 1524 618 1524 694 1472 c 1,18,-1
 585 1472 l 2,0,1
409 1255 m 2,19,20
 409 1182 409 1182 394 1079 c 0,21,22
 387 1035 387 1035 381 992 c 128,-1,23
 375 949 375 949 368 904 c 0,24,25
 364 867 364 867 358.5 812 c 128,-1,26
 353 757 353 757 345 683 c 0,27,28
 344 679 344 679 341 626.5 c 128,-1,29
 338 574 338 574 331 471 c 0,30,31
 327 408 327 408 320 355.5 c 128,-1,32
 313 303 313 303 302 261 c 0,33,34
 296 235 296 235 231 137 c 0,35,36
 221 118 221 118 209.5 98.5 c 128,-1,37
 198 79 198 79 184 57 c 1,38,39
 192 135 192 135 198.5 210 c 128,-1,40
 205 285 205 285 211 358 c 2,41,-1
 231 597 l 1,42,-1
 252 818 l 2,43,44
 254 844 254 844 270.5 905.5 c 128,-1,45
 287 967 287 967 316 1066 c 0,46,47
 379 1271 379 1271 400 1277 c 1,48,-1
 409 1269 l 1,49,-1
 409 1255 l 2,19,20
EndSplineSet
Substitution2: "'fina' Terminal Forms in Arabic lookup 5 subtable" alefwithmaddaabovefinal
Substitution2: "'isol' Isolated Forms in Arabic lookup 2 subtable" alefwithmaddaaboveisolated
AlternateSubs2: "'aalt' Access All Alternates in Latin lookup 1 subtable" alefwithmaddaaboveisolated alefwithmaddaabovefinal
EndChar

StartChar: alefwithhamzaabove
Encoding: 1571 1571 6
Width: 528
Flags: W
AnchorPoint: "ArabicBelow" 264 -169 basechar 0
AnchorPoint: "ArabicAbove" 264 1977 basechar 0
LayerCount: 2
Fore
SplineSet
415 1702 m 0,0,1
 415 1680 415 1680 375 1634 c 256,2,3
 335 1588 335 1588 335 1562 c 1,4,5
 345 1546 345 1546 356 1521.5 c 128,-1,6
 367 1497 367 1497 380 1465 c 1,7,8
 300 1256 300 1256 200 1256 c 0,9,10
 165 1256 165 1256 165 1275 c 0,11,12
 165 1285 165 1285 210 1320 c 0,13,14
 256 1354 256 1354 256 1395 c 0,15,16
 256 1399 256 1399 217 1482 c 1,17,18
 217 1522 217 1522 283 1624 c 0,19,20
 349 1727 349 1727 382 1727 c 256,21,22
 415 1727 415 1727 415 1702 c 0,0,1
409 1279 m 2,23,24
 409 1206 409 1206 394 1103 c 0,25,26
 387 1059 387 1059 381 1016 c 128,-1,27
 375 973 375 973 368 928 c 0,28,29
 364 891 364 891 358.5 836 c 128,-1,30
 353 781 353 781 345 707 c 0,31,32
 344 703 344 703 341 650.5 c 128,-1,33
 338 598 338 598 331 495 c 0,34,35
 327 432 327 432 320 379.5 c 128,-1,36
 313 327 313 327 302 285 c 0,37,38
 296 259 296 259 231 161 c 0,39,40
 221 142 221 142 209.5 122.5 c 128,-1,41
 198 103 198 103 184 81 c 1,42,-1
 179 82 l 1,43,44
 185 123 185 123 192.5 184 c 128,-1,45
 200 245 200 245 210 328 c 0,46,47
 216 428 216 428 231 621 c 0,48,49
 235 658 235 658 240 713 c 128,-1,50
 245 768 245 768 252 842 c 0,51,52
 254 868 254 868 270.5 929.5 c 128,-1,53
 287 991 287 991 316 1090 c 0,54,55
 379 1295 379 1295 400 1301 c 1,56,-1
 409 1293 l 1,57,-1
 409 1279 l 2,23,24
EndSplineSet
Substitution2: "'fina' Terminal Forms in Arabic lookup 5 subtable" alefwithhamzaabovefinal
Substitution2: "'isol' Isolated Forms in Arabic lookup 2 subtable" alefwithhamzaaboveisolated
AlternateSubs2: "'aalt' Access All Alternates in Latin lookup 1 subtable" alefwithhamzaaboveisolated alefwithhamzaabovefinal
EndChar

StartChar: wawwithhamzaabove
Encoding: 1572 1572 7
Width: 495
Flags: W
AnchorPoint: "ArabicBelow" 247 -379 basechar 0
AnchorPoint: "ArabicAbove" 247 1500 basechar 0
LayerCount: 2
Fore
SplineSet
248 1224 m 0,0,1
 248 1191 248 1191 208 1150 c 256,2,3
 168 1109 168 1109 168 1085 c 1,4,5
 178 1069 178 1069 189 1044.5 c 128,-1,6
 200 1020 200 1020 213 988 c 1,7,8
 133 779 133 779 33 779 c 0,9,10
 -2 779 -2 779 -2 798 c 0,11,12
 -2 808 -2 808 43 843 c 0,13,14
 88 877 88 877 88 918 c 0,15,16
 88 932 88 932 71 961 c 0,17,18
 53 992 53 992 49 1005 c 1,19,20
 49 1045 49 1045 115 1147 c 0,21,22
 181 1250 181 1250 214 1250 c 0,23,24
 248 1250 248 1250 248 1224 c 0,0,1
428 554 m 0,25,26
 428 509 428 509 422 462 c 128,-1,27
 416 415 416 415 405 364 c 0,28,29
 364 188 364 188 305 109 c 0,30,31
 236 16 236 16 82 -45 c 0,32,33
 5 -77 5 -77 -144 -129 c 1,34,-1
 -146 -128 l 1,35,-1
 -155 -113 l 1,36,37
 -154 -93 -154 -93 40 62 c 0,38,39
 246 226 246 226 283 292 c 0,40,41
 320 359 320 359 320 377 c 0,42,43
 320 394 320 394 299 394 c 0,44,45
 281 394 281 394 238 386 c 256,46,47
 195 378 195 378 176 378 c 0,48,49
 61 378 61 378 61 515 c 0,50,51
 61 559 61 559 132 690 c 0,52,53
 205 826 205 826 239 826 c 0,54,55
 277 826 277 826 345 763 c 0,56,57
 428 686 428 686 428 554 c 0,25,26
EndSplineSet
Substitution2: "'fina' Terminal Forms in Arabic lookup 5 subtable" wawwithhamzaabovefinal
Substitution2: "'isol' Isolated Forms in Arabic lookup 2 subtable" wawwithhamzaaboveisolated
AlternateSubs2: "'aalt' Access All Alternates in Latin lookup 1 subtable" wawwithhamzaaboveisolated wawwithhamzaabovefinal
EndChar

StartChar: alefwithhamzabelow
Encoding: 1573 1573 8
Width: 528
Flags: W
AnchorPoint: "ArabicBelow" 264 -649 basechar 0
AnchorPoint: "ArabicAbove" 264 1735 basechar 0
LayerCount: 2
Fore
SplineSet
421 1477 m 1,0,1
 404 1251 404 1251 387.5 1078.5 c 128,-1,2
 371 906 371 906 357 783 c 0,3,4
 352 757 352 757 347 718.5 c 128,-1,5
 342 680 342 680 335 628 c 0,6,7
 331 561 331 561 326 494 c 128,-1,8
 321 427 321 427 306 361 c 0,9,10
 300 335 300 335 289 304 c 128,-1,11
 278 273 278 273 262 238 c 0,12,13
 237 181 237 181 209 120 c 2,14,15
 204 103 204 103 188 81 c 1,16,-1
 183 82 l 1,17,18
 196 211 196 211 243 697 c 0,19,20
 264 916 264 916 264 963 c 0,21,22
 264 991 264 991 322 1207 c 0,23,24
 337 1267 337 1267 357 1334.5 c 128,-1,25
 377 1402 377 1402 402 1479 c 1,26,27
 406 1483 406 1483 412 1485 c 1,28,-1
 421 1477 l 1,0,1
402 47 m 0,29,30
 402 18 402 18 362 -22 c 0,31,32
 323 -63 323 -63 323 -92 c 1,33,34
 333 -108 333 -108 344 -132.5 c 128,-1,35
 355 -157 355 -157 368 -189 c 1,36,37
 294 -399 294 -399 187 -399 c 0,38,39
 153 -399 153 -399 153 -379 c 0,40,41
 153 -369 153 -369 198 -334 c 0,42,43
 244 -301 244 -301 244 -260 c 0,44,45
 244 -244 244 -244 224 -210 c 0,46,47
 204 -178 204 -178 204 -172 c 0,48,49
 204 -133 204 -133 269 -32 c 0,50,51
 335 72 335 72 369 72 c 0,52,53
 402 72 402 72 402 47 c 0,29,30
EndSplineSet
Substitution2: "'fina' Terminal Forms in Arabic lookup 5 subtable" alefwithhamzabelowfinal
Substitution2: "'isol' Isolated Forms in Arabic lookup 2 subtable" alefwithhamzabelowisolated
AlternateSubs2: "'aalt' Access All Alternates in Latin lookup 1 subtable" alefwithhamzabelowisolated alefwithhamzabelowfinal
EndChar

StartChar: yehwithhamzaabove
Encoding: 1574 1574 9
Width: 1435
Flags: W
AnchorPoint: "ArabicBelow" 717 -687 basechar 0
AnchorPoint: "ArabicAbove" 717 1491 basechar 0
LayerCount: 2
Fore
SplineSet
359 1217 m 0,0,1
 359 1187 359 1187 319 1147 c 256,2,3
 279 1107 279 1107 279 1076 c 1,4,5
 290 1056 290 1056 301.5 1032.5 c 128,-1,6
 313 1009 313 1009 324 981 c 1,7,8
 253 771 253 771 144 771 c 0,9,10
 109 771 109 771 109 791 c 0,11,12
 109 799 109 799 154 835 c 0,13,14
 200 871 200 871 200 909 c 0,15,16
 200 922 200 922 180 956 c 0,17,18
 161 990 161 990 161 998 c 0,19,20
 161 1038 161 1038 226 1139 c 0,21,22
 292 1241 292 1241 326 1241 c 0,23,24
 359 1241 359 1241 359 1217 c 0,0,1
1399 1120 m 0,25,26
 1399 1002 1399 1002 1334 958 c 0,27,28
 1315 945 1315 945 1271.5 933 c 128,-1,29
 1228 921 1228 921 1159 908 c 0,30,31
 1137 904 1137 904 1049 814 c 0,32,33
 949 713 949 713 949 628 c 0,34,35
 949 592 949 592 1006 564 c 0,36,37
 1056 539 1056 539 1082 525 c 128,-1,38
 1108 511 1108 511 1112 509 c 0,39,40
 1169 468 1169 468 1169 401 c 0,41,42
 1169 176 1169 176 1008 -78 c 0,43,44
 841 -341 841 -341 636 -413 c 0,45,46
 567 -437 567 -437 459 -437 c 0,47,48
 309 -437 309 -437 195 -316 c 0,49,50
 82 -194 82 -194 82 -43 c 0,51,52
 82 148 82 148 146 352 c 0,53,54
 186 478 186 478 293 726 c 0,55,56
 330 811 330 811 354 811 c 0,57,58
 373 811 373 811 377 777 c 1,59,60
 354 725 354 725 331.5 674 c 128,-1,61
 309 623 309 623 286 571 c 0,62,63
 246 477 246 477 215 349 c 0,64,65
 202 298 202 298 202 238 c 0,66,67
 202 51 202 51 309 -56 c 256,68,69
 416 -163 416 -163 604 -163 c 0,70,71
 719 -163 719 -163 877 -58 c 0,72,73
 1045 54 1045 54 1045 162 c 0,74,75
 1045 200 1045 200 940 260 c 0,76,77
 836 322 836 322 836 387 c 0,78,79
 836 407 836 407 842.5 445.5 c 128,-1,80
 849 484 849 484 862 544 c 0,81,82
 930 855 930 855 1215 1100 c 0,83,84
 1301 1174 1301 1174 1341 1174 c 0,85,86
 1399 1174 1399 1174 1399 1120 c 0,25,26
EndSplineSet
Substitution2: "'fina' Terminal Forms in Arabic lookup 5 subtable" yehwithhamzaabovefinal
Substitution2: "'medi' Medial Forms in Arabic lookup 4 subtable" yehwithhamzaabovemedial
Substitution2: "'init' Initial Forms in Arabic lookup 3 subtable" yehwithhamzaaboveinitial
Substitution2: "'isol' Isolated Forms in Arabic lookup 2 subtable" yehwithhamzaaboveisolated
AlternateSubs2: "'aalt' Access All Alternates in Latin lookup 1 subtable" yehwithhamzaaboveisolated yehwithhamzaaboveinitial yehwithhamzaabovemedial yehwithhamzaabovefinal
EndChar

StartChar: arabicalef
Encoding: 1575 1575 10
Width: 528
Flags: W
AnchorPoint: "ArabicBelow" 264 -169 basechar 0
AnchorPoint: "ArabicAbove" 264 1735 basechar 0
LayerCount: 2
Fore
SplineSet
409 1477 m 1,0,1
 392 1251 392 1251 375.5 1078.5 c 128,-1,2
 359 906 359 906 345 783 c 0,3,4
 340 757 340 757 335 718.5 c 128,-1,5
 330 680 330 680 323 628 c 0,6,7
 319 561 319 561 314 494 c 128,-1,8
 309 427 309 427 294 361 c 0,9,10
 288 335 288 335 277 304 c 128,-1,11
 266 273 266 273 250 238 c 0,12,13
 225 181 225 181 197 120 c 2,14,15
 192 103 192 103 176 81 c 1,16,-1
 171 82 l 1,17,18
 184 211 184 211 231 697 c 0,19,20
 252 916 252 916 252 963 c 0,21,22
 252 991 252 991 310 1207 c 0,23,24
 325 1267 325 1267 345 1334.5 c 128,-1,25
 365 1402 365 1402 390 1479 c 1,26,27
 394 1483 394 1483 400 1485 c 1,28,-1
 409 1477 l 1,0,1
EndSplineSet
Substitution2: "'fina' Terminal Forms in Arabic lookup 5 subtable" aleffinal
Substitution2: "'isol' Isolated Forms in Arabic lookup 2 subtable" alefisolated
AlternateSubs2: "'aalt' Access All Alternates in Latin lookup 1 subtable" alefisolated aleffinal
EndChar

StartChar: beh
Encoding: 1576 1576 11
Width: 1860
Flags: W
AnchorPoint: "ArabicBelow" 930 -766 basechar 0
AnchorPoint: "ArabicAbove" 930 763 basechar 0
LayerCount: 2
Fore
SplineSet
1847 488 m 1,0,1
 1849 450 1849 450 1795 361 c 2,2,-1
 1758 299 l 2,3,4
 1601 35 1601 35 1048 -64 c 0,5,6
 730 -121 730 -121 530 -121 c 0,7,8
 131 -121 131 -121 76 21 c 0,9,10
 60 60 60 60 60 159 c 0,11,12
 60 200 60 200 77 300 c 0,13,14
 101 433 101 433 133 433 c 0,15,16
 153 433 153 433 153 415 c 0,17,18
 153 405 153 405 148 377 c 0,19,20
 146 364 146 364 145 354.5 c 128,-1,21
 144 345 144 345 144 339 c 0,22,23
 144 220 144 220 301 165 c 0,24,25
 415 124 415 124 558 124 c 0,26,27
 885 124 885 124 1196 181 c 0,28,29
 1637 261 1637 261 1762 426 c 2,30,-1
 1827 512 l 1,31,-1
 1830 513 l 1,32,-1
 1839 506 l 1,33,-1
 1847 488 l 1,0,1
1111 -358 m 0,34,35
 1111 -393 1111 -393 935 -516 c 1,36,37
 873 -446 873 -446 862 -434 c 0,38,39
 800 -371 800 -371 774 -371 c 1,40,-1
 774 -358 l 1,41,-1
 956 -185 l 1,42,43
 1111 -295 1111 -295 1111 -358 c 0,34,35
EndSplineSet
Substitution2: "'fina' Terminal Forms in Arabic lookup 5 subtable" behfinal
Substitution2: "'medi' Medial Forms in Arabic lookup 4 subtable" behmedial
Substitution2: "'init' Initial Forms in Arabic lookup 3 subtable" behinitial
Substitution2: "'isol' Isolated Forms in Arabic lookup 2 subtable" behisolated
AlternateSubs2: "'aalt' Access All Alternates in Latin lookup 1 subtable" behisolated behinitial behmedial behfinal
EndChar

StartChar: tehmarbuta
Encoding: 1577 1577 12
Width: 576
Flags: W
AnchorPoint: "ArabicBelow" 288 -310 basechar 0
AnchorPoint: "ArabicAbove" 288 1363 basechar 0
LayerCount: 2
Fore
SplineSet
517 1030 m 0,0,1
 517 994 517 994 456 921 c 0,2,3
 392 845 392 845 356 845 c 1,4,5
 264 898 264 898 252 898 c 0,6,7
 239 898 239 898 194 836 c 0,8,9
 150 774 150 774 116 774 c 0,10,11
 93 774 93 774 30 803 c 0,12,13
 -34 834 -34 834 -34 854 c 1,14,15
 104 1032 104 1032 122 1032 c 0,16,17
 133 1032 133 1032 183 1000 c 256,18,19
 233 968 233 968 249 968 c 0,20,21
 259 968 259 968 321 1040 c 0,22,23
 382 1113 382 1113 399 1113 c 1,24,25
 517 1052 517 1052 517 1030 c 0,0,1
499 434 m 0,26,27
 499 295 499 295 404 128 c 0,28,29
 297 -60 297 -60 169 -60 c 1,30,31
 32 -9 32 -9 32 149 c 0,32,33
 32 228 32 228 51 288 c 0,34,35
 52 290 52 290 65.5 324.5 c 128,-1,36
 79 359 79 359 105 425 c 1,37,38
 106 433 106 433 107.5 444.5 c 128,-1,39
 109 456 109 456 113 471 c 0,40,41
 127 505 127 505 140.5 539 c 128,-1,42
 154 573 154 573 168 608 c 0,43,44
 221 715 221 715 268 715 c 0,45,46
 363 715 363 715 434 620 c 0,47,48
 499 531 499 531 499 434 c 0,26,27
374 257 m 0,49,50
 374 311 374 311 321 356 c 0,51,52
 270 398 270 398 215 398 c 0,53,54
 184 398 184 398 145 335 c 0,55,56
 109 276 109 276 109 242 c 0,57,58
 109 193 109 193 147 155 c 0,59,60
 185 118 185 118 236 118 c 0,61,62
 295 118 295 118 334 158 c 0,63,64
 374 198 374 198 374 257 c 0,49,50
EndSplineSet
Substitution2: "'fina' Terminal Forms in Arabic lookup 5 subtable" tehmarbutafinal
Substitution2: "'isol' Isolated Forms in Arabic lookup 2 subtable" tehmarbutaisolated
AlternateSubs2: "'aalt' Access All Alternates in Latin lookup 1 subtable" tehmarbutaisolated tehmarbutafinal
EndChar

StartChar: teh
Encoding: 1578 1578 13
Width: 1865
Flags: W
AnchorPoint: "ArabicBelow" 932 -371 basechar 0
AnchorPoint: "ArabicAbove" 932 1159 basechar 0
LayerCount: 2
Fore
SplineSet
1308 822 m 0,0,1
 1308 785 1308 785 1244 708 c 0,2,3
 1176 628 1176 628 1139 628 c 1,4,5
 1116 642 1116 642 1088.5 656 c 128,-1,6
 1061 670 1061 670 1030 683 c 1,7,8
 1022 683 1022 683 971 617 c 0,9,10
 921 552 921 552 886 552 c 0,11,12
 860 552 860 552 797 583 c 0,13,14
 729 616 729 616 729 636 c 1,15,16
 748 660 748 660 766 684 c 128,-1,17
 784 708 784 708 803 732 c 0,18,19
 877 824 877 824 894 824 c 1,20,21
 911 814 911 814 928 805 c 128,-1,22
 945 796 945 796 962 786 c 0,23,24
 1011 758 1011 758 1027 758 c 256,25,26
 1043 758 1043 758 1105 833 c 0,27,28
 1166 909 1166 909 1183 909 c 1,29,30
 1308 850 1308 850 1308 822 c 0,0,1
1847 488 m 1,31,32
 1849 450 1849 450 1795 361 c 2,33,-1
 1758 299 l 2,34,35
 1601 35 1601 35 1048 -64 c 0,36,37
 730 -121 730 -121 530 -121 c 0,38,39
 131 -121 131 -121 76 21 c 0,40,41
 60 60 60 60 60 159 c 0,42,43
 60 200 60 200 77 300 c 0,44,45
 101 433 101 433 133 433 c 0,46,47
 153 433 153 433 153 415 c 0,48,49
 153 405 153 405 148 377 c 0,50,51
 146 364 146 364 145 354.5 c 128,-1,52
 144 345 144 345 144 339 c 0,53,54
 144 220 144 220 301 165 c 0,55,56
 415 124 415 124 558 124 c 0,57,58
 885 124 885 124 1196 181 c 0,59,60
 1637 261 1637 261 1762 426 c 2,61,-1
 1827 512 l 1,62,-1
 1830 513 l 1,63,-1
 1839 506 l 1,64,-1
 1847 488 l 1,31,32
EndSplineSet
Substitution2: "'fina' Terminal Forms in Arabic lookup 5 subtable" tehfinal
Substitution2: "'medi' Medial Forms in Arabic lookup 4 subtable" tehmedial
Substitution2: "'init' Initial Forms in Arabic lookup 3 subtable" tehinitial
Substitution2: "'isol' Isolated Forms in Arabic lookup 2 subtable" tehisolated
AlternateSubs2: "'aalt' Access All Alternates in Latin lookup 1 subtable" tehisolated tehinitial tehmedial tehfinal
EndChar

StartChar: theh
Encoding: 1579 1579 14
Width: 1895
Flags: W
AnchorPoint: "ArabicBelow" 947 -371 basechar 0
AnchorPoint: "ArabicAbove" 947 1441 basechar 0
LayerCount: 2
Fore
SplineSet
1139 1107 m 1,0,1
 1139 1080 1139 1080 1073 990 c 0,2,3
 1008 901 1008 901 985 901 c 256,4,5
 962 901 962 901 913 930 c 0,6,7
 862 961 862 961 862 983 c 1,8,9
 894 1033 894 1033 930.5 1084.5 c 128,-1,10
 967 1136 967 1136 1009 1191 c 1,11,12
 1032 1178 1032 1178 1064.5 1157 c 128,-1,13
 1097 1136 1097 1136 1139 1107 c 1,0,1
1308 822 m 0,14,15
 1308 785 1308 785 1244 708 c 0,16,17
 1176 628 1176 628 1139 628 c 1,18,19
 1116 642 1116 642 1088.5 656 c 128,-1,20
 1061 670 1061 670 1030 683 c 1,21,22
 1022 683 1022 683 971 617 c 0,23,24
 921 552 921 552 886 552 c 0,25,26
 860 552 860 552 797 583 c 0,27,28
 729 616 729 616 729 636 c 1,29,30
 748 660 748 660 766 684 c 128,-1,31
 784 708 784 708 803 732 c 0,32,33
 877 824 877 824 894 824 c 1,34,35
 911 814 911 814 928 805 c 128,-1,36
 945 796 945 796 962 786 c 0,37,38
 1011 758 1011 758 1027 758 c 256,39,40
 1043 758 1043 758 1105 833 c 0,41,42
 1166 909 1166 909 1183 909 c 1,43,44
 1308 850 1308 850 1308 822 c 0,14,15
1847 488 m 1,45,46
 1849 450 1849 450 1795 361 c 2,47,-1
 1758 299 l 2,48,49
 1601 35 1601 35 1048 -64 c 0,50,51
 730 -121 730 -121 530 -121 c 0,52,53
 131 -121 131 -121 76 21 c 0,54,55
 60 60 60 60 60 159 c 0,56,57
 60 200 60 200 77 300 c 0,58,59
 101 433 101 433 133 433 c 0,60,61
 153 433 153 433 153 415 c 0,62,63
 153 405 153 405 148 377 c 0,64,65
 146 364 146 364 145 354.5 c 128,-1,66
 144 345 144 345 144 339 c 0,67,68
 144 220 144 220 301 165 c 0,69,70
 415 124 415 124 558 124 c 0,71,72
 885 124 885 124 1196 181 c 0,73,74
 1637 261 1637 261 1762 426 c 2,75,-1
 1827 512 l 1,76,-1
 1830 513 l 1,77,-1
 1839 506 l 1,78,-1
 1847 488 l 1,45,46
EndSplineSet
Substitution2: "'fina' Terminal Forms in Arabic lookup 5 subtable" thehfinal
Substitution2: "'medi' Medial Forms in Arabic lookup 4 subtable" thehmedial
Substitution2: "'init' Initial Forms in Arabic lookup 3 subtable" thehinitial
Substitution2: "'isol' Isolated Forms in Arabic lookup 2 subtable" thehisolated
AlternateSubs2: "'aalt' Access All Alternates in Latin lookup 1 subtable" thehisolated thehinitial thehmedial thehfinal
EndChar

StartChar: jeem
Encoding: 1580 1580 15
Width: 1491
Flags: W
AnchorPoint: "ArabicBelow" 745 -1024 basechar 0
AnchorPoint: "ArabicAbove" 745 1386 basechar 0
LayerCount: 2
Fore
SplineSet
948 217 m 0,0,1
 948 182 948 182 772 60 c 1,2,3
 749 88 749 88 730 109 c 128,-1,4
 711 130 711 130 696 146 c 0,5,6
 637 206 637 206 611 206 c 1,7,-1
 611 217 l 1,8,-1
 794 391 l 1,9,10
 948 276 948 276 948 217 c 0,0,1
1471 -51 m 0,11,12
 1471 -115 1471 -115 1412 -207 c 2,13,-1
 1318 -354 l 2,14,15
 1200 -540 1200 -540 973 -659 c 0,16,17
 753 -774 753 -774 528 -774 c 0,18,19
 318 -774 318 -774 157 -625 c 0,20,21
 -7 -473 -7 -473 -7 -264 c 0,22,23
 -7 -72 -7 -72 79 154 c 0,24,25
 161 373 161 373 289 526 c 0,26,27
 428 694 428 694 652 854 c 0,28,29
 744 919 744 919 744 931 c 0,30,31
 744 951 744 951 624 969 c 0,32,33
 578 976 578 976 548 979.5 c 128,-1,34
 518 983 518 983 503 983 c 0,35,36
 442 983 442 983 381 922 c 0,37,38
 379 920 379 920 356 893 c 128,-1,39
 333 866 333 866 290 815 c 1,40,41
 266 825 266 825 260 845 c 1,42,43
 422 1136 422 1136 613 1136 c 0,44,45
 707 1136 707 1136 832 1118 c 0,46,47
 1010 1093 1010 1093 1010 1050 c 0,48,49
 1010 1020 1010 1020 974 975 c 0,50,51
 943 937 943 937 914 917 c 0,52,53
 869 890 869 890 825.5 863 c 128,-1,54
 782 836 782 836 737 810 c 0,55,56
 683 778 683 778 641 748 c 128,-1,57
 599 718 599 718 567 692 c 0,58,59
 411 563 411 563 289 378 c 0,60,61
 145 160 145 160 145 -7 c 0,62,63
 145 -245 145 -245 318 -385 c 0,64,65
 479 -516 479 -516 721 -516 c 0,66,67
 864 -516 864 -516 1008 -465 c 0,68,69
 1165 -410 1165 -410 1254 -315 c 0,70,71
 1293 -273 1293 -273 1328 -207 c 0,72,73
 1354 -157 l 128,-1,74
 1367 -132 1367 -132 1381 -106 c 0,75,76
 1427 -24 1427 -24 1457 -24 c 0,77,78
 1471 -24 1471 -24 1471 -51 c 0,11,12
EndSplineSet
Substitution2: "'fina' Terminal Forms in Arabic lookup 5 subtable" jeemfinal
Substitution2: "'medi' Medial Forms in Arabic lookup 4 subtable" jeemmedial
Substitution2: "'init' Initial Forms in Arabic lookup 3 subtable" jeeminitial
Substitution2: "'isol' Isolated Forms in Arabic lookup 2 subtable" jeemisolated
AlternateSubs2: "'aalt' Access All Alternates in Latin lookup 1 subtable" jeemisolated jeeminitial jeemmedial jeemfinal
EndChar

StartChar: hah
Encoding: 1581 1581 16
Width: 1278
Flags: W
AnchorPoint: "ArabicBelow" 639 -1024 basechar 0
AnchorPoint: "ArabicAbove" 639 1386 basechar 0
LayerCount: 2
Fore
SplineSet
1573 -51 m 0,0,1
 1573 -115 1573 -115 1514 -207 c 2,2,-1
 1420 -354 l 2,3,4
 1302 -540 1302 -540 1075 -659 c 0,5,6
 855 -774 855 -774 630 -774 c 0,7,8
 420 -774 420 -774 259 -625 c 0,9,10
 96 -474 96 -474 96 -264 c 0,11,12
 96 -64 96 -64 180 154 c 0,13,14
 260 358 260 358 391 526 c 0,15,16
 515 684 515 684 754 854 c 0,17,18
 846 919 846 919 846 931 c 0,19,20
 846 949 846 949 726 969 c 0,21,22
 681 976 681 976 651.5 979.5 c 128,-1,23
 622 983 622 983 605 983 c 0,24,25
 544 983 544 983 483 922 c 0,26,27
 481 920 481 920 392 815 c 1,28,29
 369 824 369 824 362 845 c 1,30,31
 524 1136 524 1136 715 1136 c 0,32,33
 809 1136 809 1136 934 1118 c 0,34,35
 1112 1093 1112 1093 1112 1050 c 0,36,37
 1112 1020 1112 1020 1076 975 c 0,38,39
 1045 937 1045 937 1016 917 c 0,40,41
 958 882 958 882 901 846 c 128,-1,42
 844 810 844 810 787 775 c 0,43,44
 655 689 655 689 577 605 c 0,45,46
 247 249 247 249 247 -7 c 0,47,48
 247 -247 247 -247 419 -386 c 0,49,50
 579 -516 579 -516 823 -516 c 0,51,52
 961 -516 961 -516 1110 -464 c 0,53,54
 1279 -405 1279 -405 1356 -315 c 0,55,56
 1378 -289 1378 -289 1396 -262.5 c 128,-1,57
 1414 -236 1414 -236 1430 -207 c 0,58,59
 1456 -157 l 128,-1,60
 1469 -132 1469 -132 1483 -106 c 0,61,62
 1529 -24 1529 -24 1559 -24 c 0,63,64
 1573 -24 1573 -24 1573 -51 c 0,0,1
EndSplineSet
Substitution2: "'fina' Terminal Forms in Arabic lookup 5 subtable" hahfinal
Substitution2: "'medi' Medial Forms in Arabic lookup 4 subtable" hahmedial
Substitution2: "'init' Initial Forms in Arabic lookup 3 subtable" hahinitial
Substitution2: "'isol' Isolated Forms in Arabic lookup 2 subtable" hahisolated
AlternateSubs2: "'aalt' Access All Alternates in Latin lookup 1 subtable" hahisolated hahinitial hahmedial hahfinal
EndChar

StartChar: khah
Encoding: 1582 1582 17
Width: 1491
Flags: W
AnchorPoint: "ArabicBelow" 745 -1024 basechar 0
AnchorPoint: "ArabicAbove" 745 1985 basechar 0
LayerCount: 2
Fore
SplineSet
660 1561 m 0,0,1
 660 1526 660 1526 484 1404 c 1,2,3
 461 1432 461 1432 442 1453 c 128,-1,4
 423 1474 423 1474 408 1490 c 0,5,6
 349 1550 349 1550 323 1550 c 1,7,-1
 323 1561 l 1,8,-1
 506 1735 l 1,9,10
 660 1620 660 1620 660 1561 c 0,0,1
1471 -51 m 0,11,12
 1471 -115 1471 -115 1412 -207 c 2,13,-1
 1318 -354 l 2,14,15
 1200 -540 1200 -540 973 -659 c 0,16,17
 753 -774 753 -774 528 -774 c 0,18,19
 318 -774 318 -774 157 -625 c 0,20,21
 -7 -473 -7 -473 -7 -264 c 0,22,23
 -7 -72 -7 -72 79 154 c 0,24,25
 161 373 161 373 289 526 c 0,26,27
 428 694 428 694 652 854 c 0,28,29
 744 919 744 919 744 931 c 0,30,31
 744 951 744 951 624 969 c 0,32,33
 578 976 578 976 548 979.5 c 128,-1,34
 518 983 518 983 503 983 c 0,35,36
 442 983 442 983 381 922 c 0,37,38
 379 920 379 920 356 893 c 128,-1,39
 333 866 333 866 290 815 c 1,40,41
 266 825 266 825 260 845 c 1,42,43
 422 1136 422 1136 613 1136 c 0,44,45
 707 1136 707 1136 832 1118 c 0,46,47
 1010 1093 1010 1093 1010 1050 c 0,48,49
 1010 1020 1010 1020 974 975 c 0,50,51
 943 937 943 937 914 917 c 0,52,53
 869 890 869 890 825.5 863 c 128,-1,54
 782 836 782 836 737 810 c 0,55,56
 683 778 683 778 641 748 c 128,-1,57
 599 718 599 718 567 692 c 0,58,59
 411 563 411 563 289 378 c 0,60,61
 145 160 145 160 145 -7 c 0,62,63
 145 -245 145 -245 318 -385 c 0,64,65
 479 -516 479 -516 721 -516 c 0,66,67
 864 -516 864 -516 1008 -465 c 0,68,69
 1165 -410 1165 -410 1254 -315 c 0,70,71
 1293 -273 1293 -273 1328 -207 c 0,72,73
 1354 -157 l 128,-1,74
 1367 -132 1367 -132 1381 -106 c 0,75,76
 1427 -24 1427 -24 1457 -24 c 0,77,78
 1471 -24 1471 -24 1471 -51 c 0,11,12
EndSplineSet
Substitution2: "'fina' Terminal Forms in Arabic lookup 5 subtable" khahfinal
Substitution2: "'medi' Medial Forms in Arabic lookup 4 subtable" khahmedial
Substitution2: "'init' Initial Forms in Arabic lookup 3 subtable" khahinitial
Substitution2: "'isol' Isolated Forms in Arabic lookup 2 subtable" khahisolated
AlternateSubs2: "'aalt' Access All Alternates in Latin lookup 1 subtable" khahisolated khahinitial khahmedial khahfinal
EndChar

StartChar: dal
Encoding: 1583 1583 18
Width: 609
Flags: W
AnchorPoint: "ArabicBelow" 304 -319 basechar 0
AnchorPoint: "ArabicAbove" 304 1099 basechar 0
LayerCount: 2
Fore
SplineSet
526 510 m 0,0,1
 526 487 526 487 490 387 c 0,2,3
 397 128 397 128 299 45 c 0,4,5
 271 22 271 22 119 -23 c 0,6,7
 -35 -69 -35 -69 -60 -69 c 0,8,9
 -99 -69 -99 -69 -108 -43 c 1,10,11
 -38 -5 -38 -5 31.5 32 c 128,-1,12
 101 69 101 69 171 106 c 0,13,14
 358 223 358 223 358 329 c 0,15,16
 358 394 358 394 308 474 c 0,17,18
 307 476 307 476 284.5 507 c 128,-1,19
 262 538 262 538 217 599 c 1,20,21
 344 849 344 849 372 849 c 0,22,23
 382 849 382 849 421 799 c 0,24,25
 526 665 526 665 526 510 c 0,0,1
EndSplineSet
Substitution2: "'fina' Terminal Forms in Arabic lookup 5 subtable" dalfinal
Substitution2: "'isol' Isolated Forms in Arabic lookup 2 subtable" dalisolated
AlternateSubs2: "'aalt' Access All Alternates in Latin lookup 1 subtable" dalisolated dalfinal
EndChar

StartChar: thal
Encoding: 1584 1584 19
Width: 609
Flags: W
AnchorPoint: "ArabicBelow" 304 -319 basechar 0
AnchorPoint: "ArabicAbove" 304 1632 basechar 0
LayerCount: 2
Fore
SplineSet
333 1227 m 256,0,1
 333 1198 333 1198 261 1144 c 0,2,3
 217 1114 l 128,-1,4
 173 1084 l 1,5,6
 147 1114 147 1114 130.5 1133.5 c 128,-1,7
 114 1153 114 1153 106 1161 c 0,8,9
 53 1215 53 1215 29 1215 c 1,10,-1
 29 1227 l 1,11,-1
 193 1382 l 1,12,13
 213 1369 213 1369 234 1351.5 c 128,-1,14
 255 1334 255 1334 277 1312 c 0,15,16
 333 1256 333 1256 333 1227 c 256,0,1
526 510 m 0,17,18
 526 487 526 487 490 387 c 0,19,20
 397 128 397 128 299 45 c 0,21,22
 271 22 271 22 119 -23 c 0,23,24
 -35 -69 -35 -69 -60 -69 c 0,25,26
 -99 -69 -99 -69 -108 -43 c 1,27,28
 -38 -5 -38 -5 31.5 32 c 128,-1,29
 101 69 101 69 171 106 c 0,30,31
 358 223 358 223 358 329 c 0,32,33
 358 394 358 394 308 474 c 0,34,35
 307 476 307 476 284.5 507 c 128,-1,36
 262 538 262 538 217 599 c 1,37,38
 344 849 344 849 372 849 c 0,39,40
 382 849 382 849 421 799 c 0,41,42
 526 665 526 665 526 510 c 0,17,18
EndSplineSet
Substitution2: "'fina' Terminal Forms in Arabic lookup 5 subtable" thalfinal
Substitution2: "'isol' Isolated Forms in Arabic lookup 2 subtable" thalisolated
AlternateSubs2: "'aalt' Access All Alternates in Latin lookup 1 subtable" thalisolated thalfinal
EndChar

StartChar: reh
Encoding: 1585 1585 20
Width: 454
Flags: W
AnchorPoint: "ArabicBelow" 227 -300 basechar 0
AnchorPoint: "ArabicAbove" 227 1144 basechar 0
LayerCount: 2
Fore
SplineSet
432 834 m 2,0,1
 432 642 432 642 308 340 c 0,2,3
 291 298 291 298 279.5 270.5 c 128,-1,4
 268 243 268 243 261 230 c 0,5,6
 232 167 232 167 199 128 c 0,7,8
 161 83 161 83 100 56 c 0,9,10
 92 52 92 52 62 42 c 128,-1,11
 32 32 32 32 -19 15 c 0,12,13
 -219 -50 -219 -50 -253 -50 c 0,14,15
 -274 -50 -274 -50 -281 -32 c 1,16,17
 -279 -8 -279 -8 -159 71 c 2,18,-1
 -12 167 l 2,19,20
 69 228 69 228 130 292 c 0,21,22
 213 380 213 380 266 497 c 0,23,24
 283 536 283 536 302 595 c 128,-1,25
 321 654 321 654 343 734 c 0,26,27
 346 745 346 745 364 784.5 c 128,-1,28
 382 824 382 824 414 894 c 1,29,-1
 432 894 l 1,30,-1
 432 834 l 2,0,1
EndSplineSet
Substitution2: "'fina' Terminal Forms in Arabic lookup 5 subtable" rehfinal
Substitution2: "'isol' Isolated Forms in Arabic lookup 2 subtable" rehisolated
AlternateSubs2: "'aalt' Access All Alternates in Latin lookup 1 subtable" rehisolated rehfinal
EndChar

StartChar: zain
Encoding: 1586 1586 21
Width: 469
Flags: W
AnchorPoint: "ArabicBelow" 234 -300 basechar 0
AnchorPoint: "ArabicAbove" 234 1554 basechar 0
LayerCount: 2
Fore
SplineSet
486 1113 m 0,0,1
 486 1074 486 1074 293 941 c 1,2,3
 230 1013 230 1013 209 1034 c 0,4,5
 145 1101 145 1101 116 1101 c 1,6,-1
 116 1113 l 1,7,-1
 317 1304 l 1,8,9
 486 1180 486 1180 486 1113 c 0,0,1
432 834 m 2,10,11
 432 642 432 642 308 340 c 0,12,13
 291 298 291 298 279.5 270.5 c 128,-1,14
 268 243 268 243 261 230 c 0,15,16
 232 167 232 167 199 128 c 0,17,18
 161 83 161 83 100 56 c 0,19,20
 92 52 92 52 62 42 c 128,-1,21
 32 32 32 32 -19 15 c 0,22,23
 -219 -50 -219 -50 -253 -50 c 0,24,25
 -274 -50 -274 -50 -281 -32 c 1,26,27
 -279 -8 -279 -8 -159 71 c 2,28,-1
 -12 167 l 2,29,30
 69 228 69 228 130 292 c 0,31,32
 213 380 213 380 266 497 c 0,33,34
 283 536 283 536 302 595 c 128,-1,35
 321 654 321 654 343 734 c 0,36,37
 346 745 346 745 364 784.5 c 128,-1,38
 382 824 382 824 414 894 c 1,39,-1
 432 894 l 1,40,-1
 432 834 l 2,10,11
EndSplineSet
Substitution2: "'fina' Terminal Forms in Arabic lookup 5 subtable" zainfinal
Substitution2: "'isol' Isolated Forms in Arabic lookup 2 subtable" zainisolated
AlternateSubs2: "'aalt' Access All Alternates in Latin lookup 1 subtable" zainisolated zainfinal
EndChar

StartChar: seen
Encoding: 1587 1587 22
Width: 1747
Flags: W
AnchorPoint: "ArabicBelow" 873 -978 basechar 0
AnchorPoint: "ArabicAbove" 873 968 basechar 0
LayerCount: 2
Fore
SplineSet
1720 686 m 0,0,1
 1720 621 1720 621 1664 530 c 0,2,3
 1602 432 1602 432 1541 426 c 1,4,5
 1476 444 1476 444 1465 444 c 0,6,7
 1432 444 1432 444 1390 372 c 0,8,9
 1343 291 1343 291 1313 278 c 0,10,11
 1290 267 1290 267 1267.5 256.5 c 128,-1,12
 1245 246 1245 246 1222 235 c 0,13,14
 1177 206 1177 206 1173 152 c 0,15,16
 1165 78 1165 78 1113 -61 c 0,17,18
 1099 -96 1099 -96 1081 -139.5 c 128,-1,19
 1063 -183 1063 -183 1040 -236 c 0,20,21
 1011 -301 1011 -301 929 -409 c 0,22,23
 685 -728 685 -728 372 -728 c 0,24,25
 234 -728 234 -728 122 -610 c 0,26,27
 13 -495 13 -495 13 -355 c 0,28,29
 13 -174 13 -174 139 161 c 0,30,31
 189 292 189 292 217 292 c 0,32,33
 246 292 246 292 245 256 c 1,34,35
 124 54 124 54 124 -121 c 0,36,37
 124 -269 124 -269 232 -363 c 0,38,39
 335 -453 335 -453 485 -453 c 0,40,41
 712 -453 712 -453 893 -263 c 0,42,43
 1067 -80 1067 -80 1092 149 c 0,44,45
 1095 176 1095 176 1095 305 c 0,46,47
 1095 393 1095 393 1158 393 c 0,48,49
 1164 393 1164 393 1174.5 392 c 128,-1,50
 1185 391 1185 391 1196.5 389.5 c 128,-1,51
 1208 388 1208 388 1218.5 387 c 128,-1,52
 1229 386 1229 386 1235 386 c 0,53,54
 1306 386 1306 386 1389 482 c 0,55,56
 1473 579 1473 579 1503 579 c 0,57,58
 1514 579 1514 579 1538 569 c 0,59,60
 1563 560 1563 560 1575 560 c 0,61,62
 1613 560 1613 560 1648 637 c 0,63,64
 1683 715 1683 715 1694 718 c 1,65,-1
 1714 709 l 1,66,67
 1720 700 1720 700 1720 686 c 0,0,1
EndSplineSet
Substitution2: "'fina' Terminal Forms in Arabic lookup 5 subtable" seenfinal
Substitution2: "'medi' Medial Forms in Arabic lookup 4 subtable" seenmedial
Substitution2: "'init' Initial Forms in Arabic lookup 3 subtable" seeninitial
Substitution2: "'isol' Isolated Forms in Arabic lookup 2 subtable" seenisolated
AlternateSubs2: "'aalt' Access All Alternates in Latin lookup 1 subtable" seenisolated seeninitial seenmedial seenfinal
EndChar

StartChar: sheen
Encoding: 1588 1588 23
Width: 1747
Flags: W
AnchorPoint: "ArabicBelow" 873 -978 basechar 0
AnchorPoint: "ArabicAbove" 873 1565 basechar 0
LayerCount: 2
Fore
SplineSet
1445 1231 m 1,0,1
 1445 1202 1445 1202 1379 1114 c 0,2,3
 1315 1026 1315 1026 1290 1026 c 0,4,5
 1266 1026 1266 1026 1219 1055 c 0,6,7
 1168 1086 1168 1086 1168 1108 c 1,8,9
 1234 1208 1234 1208 1315 1315 c 1,10,11
 1345 1298 1345 1298 1377.5 1277 c 128,-1,12
 1410 1256 1410 1256 1445 1231 c 1,0,1
1614 947 m 0,13,14
 1614 913 1614 913 1549 834 c 0,15,16
 1481 753 1481 753 1445 753 c 1,17,18
 1349 807 1349 807 1336 807 c 0,19,20
 1322 807 1322 807 1274 742 c 0,21,22
 1227 677 1227 677 1193 677 c 0,23,24
 1169 677 1169 677 1103 709 c 0,25,26
 1034 743 1034 743 1034 762 c 1,27,28
 1181 949 1181 949 1199 949 c 0,29,30
 1206 949 1206 949 1262 916 c 0,31,32
 1317 883 1317 883 1332 883 c 0,33,34
 1350 883 1350 883 1410 959 c 256,35,36
 1470 1035 1470 1035 1490 1035 c 1,37,38
 1614 969 1614 969 1614 947 c 0,13,14
1720 686 m 0,39,40
 1720 621 1720 621 1664 530 c 0,41,42
 1602 432 1602 432 1541 426 c 1,43,44
 1476 444 1476 444 1465 444 c 0,45,46
 1432 444 1432 444 1390 372 c 0,47,48
 1343 291 1343 291 1313 278 c 0,49,50
 1290 267 1290 267 1267.5 256.5 c 128,-1,51
 1245 246 1245 246 1222 235 c 0,52,53
 1177 206 1177 206 1173 152 c 0,54,55
 1165 78 1165 78 1113 -61 c 0,56,57
 1099 -96 1099 -96 1081 -139.5 c 128,-1,58
 1063 -183 1063 -183 1040 -236 c 0,59,60
 1011 -301 1011 -301 929 -409 c 0,61,62
 685 -728 685 -728 372 -728 c 0,63,64
 234 -728 234 -728 122 -610 c 0,65,66
 13 -495 13 -495 13 -355 c 0,67,68
 13 -174 13 -174 139 161 c 0,69,70
 189 292 189 292 217 292 c 0,71,72
 246 292 246 292 245 256 c 1,73,74
 124 54 124 54 124 -121 c 0,75,76
 124 -269 124 -269 232 -363 c 0,77,78
 335 -453 335 -453 485 -453 c 0,79,80
 712 -453 712 -453 893 -263 c 0,81,82
 1067 -80 1067 -80 1092 149 c 0,83,84
 1095 176 1095 176 1095 305 c 0,85,86
 1095 393 1095 393 1158 393 c 0,87,88
 1164 393 1164 393 1174.5 392 c 128,-1,89
 1185 391 1185 391 1196.5 389.5 c 128,-1,90
 1208 388 1208 388 1218.5 387 c 128,-1,91
 1229 386 1229 386 1235 386 c 0,92,93
 1306 386 1306 386 1389 482 c 0,94,95
 1473 579 1473 579 1503 579 c 0,96,97
 1514 579 1514 579 1538 569 c 0,98,99
 1563 560 1563 560 1575 560 c 0,100,101
 1613 560 1613 560 1648 637 c 0,102,103
 1683 715 1683 715 1694 718 c 1,104,-1
 1714 709 l 1,105,106
 1720 700 1720 700 1720 686 c 0,39,40
EndSplineSet
Substitution2: "'fina' Terminal Forms in Arabic lookup 5 subtable" sheenfinal
Substitution2: "'medi' Medial Forms in Arabic lookup 4 subtable" sheenmedial
Substitution2: "'init' Initial Forms in Arabic lookup 3 subtable" sheeninitial
Substitution2: "'isol' Isolated Forms in Arabic lookup 2 subtable" sheenisolated
AlternateSubs2: "'aalt' Access All Alternates in Latin lookup 1 subtable" sheenisolated sheeninitial sheenmedial sheenfinal
EndChar

StartChar: sad
Encoding: 1589 1589 24
Width: 1877
Flags: W
AnchorPoint: "ArabicBelow" 938 -694 basechar 0
AnchorPoint: "ArabicAbove" 938 1289 basechar 0
LayerCount: 2
Fore
SplineSet
1840 912 m 0,0,1
 1840 883 1840 883 1816 822 c 0,2,3
 1725 589 1725 589 1533 478 c 0,4,5
 1407 406 1407 406 1251 406 c 0,6,7
 1203 406 1203 406 1194 390 c 0,8,9
 1181 370 1181 370 1154 267 c 0,10,11
 1141 219 1141 219 1122.5 168.5 c 128,-1,12
 1104 118 1104 118 1081 64 c 0,13,14
 985 -154 985 -154 786 -296 c 0,15,16
 580 -444 580 -444 348 -444 c 0,17,18
 206 -444 206 -444 104 -310 c 0,19,20
 11 -187 11 -187 11 -40 c 0,21,22
 11 94 11 94 66 271 c 0,23,24
 120 446 120 446 194 561 c 1,25,-1
 208 554 l 1,26,-1
 216 544 l 1,27,28
 214 540 214 540 212 534.5 c 128,-1,29
 210 529 210 529 206 522 c 0,30,31
 106 340 106 340 106 144 c 0,32,33
 106 -8 106 -8 233 -87 c 0,34,35
 340 -152 340 -152 501 -152 c 0,36,37
 666 -152 666 -152 805 -73 c 0,38,39
 944 5 944 5 1024 148 c 0,40,41
 1079 247 1079 247 1091 361 c 0,42,43
 1093 417 1093 417 1096 472 c 128,-1,44
 1099 527 1099 527 1102 583 c 0,45,46
 1106 635 1106 635 1142 634 c 1,47,48
 1201 609 1201 609 1229 609 c 1,49,50
 1270 672 1270 672 1400 808 c 0,51,52
 1538 954 1538 954 1593 982 c 0,53,54
 1702 1039 1702 1039 1747 1039 c 0,55,56
 1840 1039 1840 1039 1840 912 c 0,0,1
1745 779 m 1,57,58
 1741 819 1741 819 1705 850 c 0,59,60
 1668 882 1668 882 1628 882 c 0,61,62
 1565 882 1565 882 1431 772 c 0,63,64
 1302 664 1302 664 1306 624 c 1,65,-1
 1319 604 l 1,66,-1
 1334 597 l 1,67,68
 1348 596 1348 596 1358.5 595.5 c 128,-1,69
 1369 595 1369 595 1375 595 c 0,70,71
 1476 595 1476 595 1581 646 c 0,72,73
 1687 699 1687 699 1745 779 c 1,57,58
EndSplineSet
Substitution2: "'fina' Terminal Forms in Arabic lookup 5 subtable" sadfinal
Substitution2: "'medi' Medial Forms in Arabic lookup 4 subtable" sadmedial
Substitution2: "'init' Initial Forms in Arabic lookup 3 subtable" sadinitial
Substitution2: "'isol' Isolated Forms in Arabic lookup 2 subtable" sadisolated
AlternateSubs2: "'aalt' Access All Alternates in Latin lookup 1 subtable" sadisolated sadinitial sadmedial sadfinal
EndChar

StartChar: dad
Encoding: 1590 1590 25
Width: 1877
Flags: W
AnchorPoint: "ArabicBelow" 938 -694 basechar 0
AnchorPoint: "ArabicAbove" 938 1534 basechar 0
LayerCount: 2
Fore
SplineSet
1431 1111 m 0,0,1
 1431 1076 1431 1076 1255 953 c 1,2,3
 1204 1013 1204 1013 1182 1035 c 0,4,5
 1120 1098 1120 1098 1094 1098 c 1,6,-1
 1094 1111 l 1,7,-1
 1277 1284 l 1,8,9
 1317 1261 1317 1261 1369 1206 c 0,10,11
 1431 1142 1431 1142 1431 1111 c 0,0,1
1840 912 m 0,12,13
 1840 883 1840 883 1816 822 c 0,14,15
 1725 589 1725 589 1533 478 c 0,16,17
 1407 406 1407 406 1251 406 c 0,18,19
 1203 406 1203 406 1194 390 c 0,20,21
 1181 370 1181 370 1154 267 c 0,22,23
 1141 219 1141 219 1122.5 168.5 c 128,-1,24
 1104 118 1104 118 1081 64 c 0,25,26
 985 -154 985 -154 786 -296 c 0,27,28
 580 -444 580 -444 348 -444 c 0,29,30
 206 -444 206 -444 104 -310 c 0,31,32
 11 -187 11 -187 11 -40 c 0,33,34
 11 94 11 94 66 271 c 0,35,36
 120 446 120 446 194 561 c 1,37,-1
 208 554 l 1,38,-1
 216 544 l 1,39,40
 214 540 214 540 212 534.5 c 128,-1,41
 210 529 210 529 206 522 c 0,42,43
 106 340 106 340 106 144 c 0,44,45
 106 -8 106 -8 233 -87 c 0,46,47
 340 -152 340 -152 501 -152 c 0,48,49
 666 -152 666 -152 805 -73 c 0,50,51
 944 5 944 5 1024 148 c 0,52,53
 1079 247 1079 247 1091 361 c 0,54,55
 1093 417 1093 417 1096 472 c 128,-1,56
 1099 527 1099 527 1102 583 c 0,57,58
 1106 635 1106 635 1142 634 c 1,59,60
 1201 609 1201 609 1229 609 c 1,61,62
 1270 672 1270 672 1400 808 c 0,63,64
 1538 954 1538 954 1593 982 c 0,65,66
 1702 1039 1702 1039 1747 1039 c 0,67,68
 1840 1039 1840 1039 1840 912 c 0,12,13
1745 779 m 1,69,70
 1741 819 1741 819 1705 850 c 0,71,72
 1668 882 1668 882 1628 882 c 0,73,74
 1565 882 1565 882 1431 772 c 0,75,76
 1302 664 1302 664 1306 624 c 1,77,-1
 1319 604 l 1,78,-1
 1334 597 l 1,79,80
 1348 596 1348 596 1358.5 595.5 c 128,-1,81
 1369 595 1369 595 1375 595 c 0,82,83
 1476 595 1476 595 1581 646 c 0,84,85
 1687 699 1687 699 1745 779 c 1,69,70
EndSplineSet
Substitution2: "'fina' Terminal Forms in Arabic lookup 5 subtable" dadfinal
Substitution2: "'medi' Medial Forms in Arabic lookup 4 subtable" dadmedial
Substitution2: "'init' Initial Forms in Arabic lookup 3 subtable" dadinitial
Substitution2: "'isol' Isolated Forms in Arabic lookup 2 subtable" dadisolated
AlternateSubs2: "'aalt' Access All Alternates in Latin lookup 1 subtable" dadisolated dadinitial dadmedial dadfinal
EndChar

StartChar: tah
Encoding: 1591 1591 26
Width: 1048
Flags: W
AnchorPoint: "ArabicBelow" 524 -102 basechar 0
AnchorPoint: "ArabicAbove" 524 1851 basechar 0
LayerCount: 2
Fore
SplineSet
1021 680 m 0,0,1
 1021 675 1021 675 998 594 c 0,2,3
 955 440 955 440 771 297 c 0,4,5
 698 240 698 240 667 233 c 0,6,7
 291 148 291 148 91 148 c 0,8,9
 79 148 79 148 69 148 c 0,10,11
 60 148 60 148 53 149 c 1,12,-1
 38 159 l 1,13,14
 54 183 54 183 143 224 c 0,15,16
 171 235 171 235 198 247 c 128,-1,17
 225 259 225 259 253 271 c 0,18,19
 283 284 283 284 367 374 c 0,20,21
 402 412 402 412 426.5 440 c 128,-1,22
 451 468 451 468 465 488 c 0,23,24
 504 542 504 542 514 586 c 0,25,26
 542 701 542 701 543 937 c 0,27,28
 544 1054 544 1054 552.5 1141 c 128,-1,29
 561 1228 561 1228 577 1286 c 0,30,31
 598 1340 598 1340 619 1400 c 128,-1,32
 640 1460 640 1460 662 1527 c 1,33,34
 669 1541 669 1541 680.5 1559.5 c 128,-1,35
 692 1578 692 1578 709 1601 c 1,36,37
 714 1600 714 1600 722 1592 c 1,38,-1
 727 1581 l 1,39,40
 717 1542 717 1542 708 1497.5 c 128,-1,41
 699 1453 699 1453 689 1402 c 0,42,43
 688 1398 688 1398 684 1346.5 c 128,-1,44
 680 1295 680 1295 672 1193 c 0,45,46
 665 1100 665 1100 658 1029 c 128,-1,47
 651 958 651 958 643 906 c 0,48,49
 630 815 630 815 612.5 743.5 c 128,-1,50
 595 672 595 672 573 620 c 1,51,-1
 573 590 l 1,52,-1
 585 585 l 1,53,54
 653 633 653 633 692.5 660 c 128,-1,55
 732 687 732 687 743 694 c 0,56,57
 862 768 862 768 924 768 c 0,58,59
 959 768 959 768 990 742 c 0,60,61
 1021 717 1021 717 1021 680 c 0,0,1
880 525 m 0,62,63
 880 551 880 551 835 572 c 0,64,65
 797 590 797 590 767 590 c 0,66,67
 701 590 701 590 595 502 c 0,68,69
 557 468 557 468 518 435 c 128,-1,70
 479 402 479 402 441 368 c 0,71,72
 421 354 421 354 399 324 c 1,73,-1
 404 319 l 1,74,-1
 415 316 l 1,75,76
 583 348 583 348 636 364 c 0,77,78
 749 398 749 398 835 469 c 0,79,80
 880 506 880 506 880 525 c 0,62,63
EndSplineSet
Substitution2: "'fina' Terminal Forms in Arabic lookup 5 subtable" tahfinal
Substitution2: "'medi' Medial Forms in Arabic lookup 4 subtable" tahmedial
Substitution2: "'init' Initial Forms in Arabic lookup 3 subtable" tahinitial
Substitution2: "'isol' Isolated Forms in Arabic lookup 2 subtable" tahisolated
AlternateSubs2: "'aalt' Access All Alternates in Latin lookup 1 subtable" tahisolated tahinitial tahmedial tahfinal
EndChar

StartChar: zah
Encoding: 1592 1592 27
Width: 1048
Flags: W
AnchorPoint: "ArabicBelow" 524 -102 basechar 0
AnchorPoint: "ArabicAbove" 524 1851 basechar 0
LayerCount: 2
Fore
SplineSet
968 982 m 0,0,1
 968 958 968 958 911 915 c 0,2,3
 894 903 894 903 876 891 c 128,-1,4
 840 867 l 1,5,6
 823 887 823 887 809.5 901.5 c 128,-1,7
 796 916 796 916 786 926 c 0,8,9
 740 972 740 972 722 972 c 1,10,-1
 722 982 l 1,11,-1
 849 1115 l 1,12,13
 882 1095 882 1095 920 1055 c 0,14,15
 968 1007 968 1007 968 982 c 0,0,1
1021 680 m 0,16,17
 1021 675 1021 675 998 594 c 0,18,19
 955 440 955 440 771 297 c 0,20,21
 698 240 698 240 667 233 c 0,22,23
 291 148 291 148 91 148 c 0,24,25
 79 148 79 148 69 148 c 0,26,27
 60 148 60 148 53 149 c 1,28,-1
 38 159 l 1,29,30
 54 183 54 183 143 224 c 0,31,32
 171 235 171 235 198 247 c 128,-1,33
 225 259 225 259 253 271 c 0,34,35
 283 284 283 284 367 374 c 0,36,37
 402 412 402 412 426.5 440 c 128,-1,38
 451 468 451 468 465 488 c 0,39,40
 504 542 504 542 514 586 c 0,41,42
 542 701 542 701 543 937 c 0,43,44
 544 1054 544 1054 552.5 1141 c 128,-1,45
 561 1228 561 1228 577 1286 c 0,46,47
 598 1340 598 1340 619 1400 c 128,-1,48
 640 1460 640 1460 662 1527 c 1,49,50
 669 1541 669 1541 680.5 1559.5 c 128,-1,51
 692 1578 692 1578 709 1601 c 1,52,53
 714 1600 714 1600 722 1592 c 1,54,-1
 727 1581 l 1,55,56
 717 1542 717 1542 708 1497.5 c 128,-1,57
 699 1453 699 1453 689 1402 c 0,58,59
 688 1398 688 1398 684 1346.5 c 128,-1,60
 680 1295 680 1295 672 1193 c 0,61,62
 665 1100 665 1100 658 1029 c 128,-1,63
 651 958 651 958 643 906 c 0,64,65
 630 815 630 815 612.5 743.5 c 128,-1,66
 595 672 595 672 573 620 c 1,67,-1
 573 590 l 1,68,-1
 585 585 l 1,69,70
 653 633 653 633 692.5 660 c 128,-1,71
 732 687 732 687 743 694 c 0,72,73
 862 768 862 768 924 768 c 0,74,75
 959 768 959 768 990 742 c 0,76,77
 1021 717 1021 717 1021 680 c 0,16,17
880 525 m 0,78,79
 880 551 880 551 835 572 c 0,80,81
 797 590 797 590 767 590 c 0,82,83
 701 590 701 590 595 502 c 0,84,85
 557 468 557 468 518 435 c 128,-1,86
 479 402 479 402 441 368 c 0,87,88
 421 354 421 354 399 324 c 1,89,-1
 404 319 l 1,90,-1
 415 316 l 1,91,92
 583 348 583 348 636 364 c 0,93,94
 749 398 749 398 835 469 c 0,95,96
 880 506 880 506 880 525 c 0,78,79
EndSplineSet
Substitution2: "'fina' Terminal Forms in Arabic lookup 5 subtable" zahfinal
Substitution2: "'medi' Medial Forms in Arabic lookup 4 subtable" zahmedial
Substitution2: "'init' Initial Forms in Arabic lookup 3 subtable" zahinitial
Substitution2: "'isol' Isolated Forms in Arabic lookup 2 subtable" zahisolated
AlternateSubs2: "'aalt' Access All Alternates in Latin lookup 1 subtable" zahisolated zahinitial zahmedial zahfinal
EndChar

StartChar: ain
Encoding: 1593 1593 28
Width: 1092
Flags: W
AnchorPoint: "ArabicBelow" 546 -938 basechar 0
AnchorPoint: "ArabicAbove" 546 1393 basechar 0
LayerCount: 2
Fore
SplineSet
1481 150 m 1,0,1
 1481 64 1481 64 1329 -156 c 0,2,3
 959 -688 959 -688 508 -688 c 0,4,5
 336 -688 336 -688 212 -535 c 0,6,7
 93 -389 93 -389 93 -216 c 0,8,9
 93 127 93 127 425 522 c 1,10,11
 400 537 400 537 376 552 c 128,-1,12
 352 567 352 567 327 582 c 0,13,14
 268 626 268 626 268 673 c 0,15,16
 268 687 268 687 345 799 c 0,17,18
 437 931 437 931 590 1075 c 0,19,20
 664 1143 664 1143 760 1143 c 0,21,22
 798 1143 798 1143 832 1124 c 0,23,24
 872 1102 872 1102 872 1066 c 0,25,26
 872 998 872 998 825 974 c 1,27,28
 712 1019 712 1019 698 1019 c 0,29,30
 638 1019 638 1019 563 965 c 0,31,32
 483 908 483 908 483 852 c 0,33,34
 483 810 483 810 558 770 c 0,35,36
 625 734 625 734 674 734 c 0,37,38
 740 734 740 734 851 783 c 0,39,40
 969 834 969 834 1003 880 c 1,41,-1
 1006 881 l 1,42,43
 1018 878 1018 878 1033 868 c 1,44,45
 1022 852 1022 852 998 818 c 128,-1,46
 974 784 974 784 939 730 c 0,47,48
 931 719 931 719 894 703 c 0,49,50
 737 635 737 635 613 553 c 0,51,52
 534 500 534 500 468 432 c 128,-1,53
 402 364 402 364 348 279 c 0,54,55
 222 79 222 79 222 -58 c 0,56,57
 222 -210 222 -210 357 -316 c 0,58,59
 483 -415 483 -415 638 -415 c 0,60,61
 836 -415 836 -415 1023 -305 c 0,62,63
 1197 -202 1197 -202 1317 -28 c 2,64,-1
 1446 160 l 1,65,-1
 1478 160 l 1,66,67
 1480 154 1480 154 1481 150 c 1,0,1
EndSplineSet
Substitution2: "'fina' Terminal Forms in Arabic lookup 5 subtable" ainfinal
Substitution2: "'medi' Medial Forms in Arabic lookup 4 subtable" ainmedial
Substitution2: "'init' Initial Forms in Arabic lookup 3 subtable" aininitial
Substitution2: "'isol' Isolated Forms in Arabic lookup 2 subtable" ainisolated
AlternateSubs2: "'aalt' Access All Alternates in Latin lookup 1 subtable" ainisolated aininitial ainmedial ainfinal
EndChar

StartChar: ghain
Encoding: 1594 1594 29
Width: 1092
Flags: W
AnchorPoint: "ArabicBelow" 546 -938 basechar 0
AnchorPoint: "ArabicAbove" 546 1809 basechar 0
LayerCount: 2
Fore
SplineSet
782 1386 m 0,0,1
 782 1351 782 1351 605 1228 c 1,2,3
 483 1374 483 1374 444 1374 c 1,4,-1
 444 1386 l 1,5,-1
 627 1559 l 1,6,7
 673 1527 673 1527 720 1481 c 0,8,9
 782 1419 782 1419 782 1386 c 0,0,1
1481 150 m 1,10,11
 1481 64 1481 64 1329 -156 c 0,12,13
 959 -688 959 -688 508 -688 c 0,14,15
 336 -688 336 -688 212 -535 c 0,16,17
 93 -389 93 -389 93 -216 c 0,18,19
 93 127 93 127 425 522 c 1,20,21
 400 537 400 537 376 552 c 128,-1,22
 352 567 352 567 327 582 c 0,23,24
 268 626 268 626 268 673 c 0,25,26
 268 687 268 687 345 799 c 0,27,28
 437 931 437 931 590 1075 c 0,29,30
 664 1143 664 1143 760 1143 c 0,31,32
 798 1143 798 1143 832 1124 c 0,33,34
 872 1102 872 1102 872 1066 c 0,35,36
 872 998 872 998 825 974 c 1,37,38
 712 1019 712 1019 698 1019 c 0,39,40
 638 1019 638 1019 563 965 c 0,41,42
 483 908 483 908 483 852 c 0,43,44
 483 810 483 810 558 770 c 0,45,46
 625 734 625 734 674 734 c 0,47,48
 740 734 740 734 851 783 c 0,49,50
 969 834 969 834 1003 880 c 1,51,-1
 1006 881 l 1,52,53
 1018 878 1018 878 1033 868 c 1,54,55
 1022 852 1022 852 998 818 c 128,-1,56
 974 784 974 784 939 730 c 0,57,58
 931 719 931 719 894 703 c 0,59,60
 737 635 737 635 613 553 c 0,61,62
 534 500 534 500 468 432 c 128,-1,63
 402 364 402 364 348 279 c 0,64,65
 222 79 222 79 222 -58 c 0,66,67
 222 -210 222 -210 357 -316 c 0,68,69
 483 -415 483 -415 638 -415 c 0,70,71
 836 -415 836 -415 1023 -305 c 0,72,73
 1197 -202 1197 -202 1317 -28 c 2,74,-1
 1446 160 l 1,75,-1
 1478 160 l 1,76,77
 1480 154 1480 154 1481 150 c 1,10,11
EndSplineSet
Substitution2: "'fina' Terminal Forms in Arabic lookup 5 subtable" ghainfinal
Substitution2: "'medi' Medial Forms in Arabic lookup 4 subtable" ghainmedial
Substitution2: "'init' Initial Forms in Arabic lookup 3 subtable" ghaininitial
Substitution2: "'isol' Isolated Forms in Arabic lookup 2 subtable" ghainisolated
AlternateSubs2: "'aalt' Access All Alternates in Latin lookup 1 subtable" ghainisolated ghaininitial ghainmedial ghainfinal
EndChar

StartChar: tatweel
Encoding: 1600 1600 30
Width: 356
Flags: W
LayerCount: 2
Fore
SplineSet
-13 239 m 1,0,-1
 349 239 l 1,1,-1
 349 0 l 1,2,-1
 -13 0 l 1,3,-1
 -13 239 l 1,0,-1
EndSplineSet
EndChar

StartChar: feh
Encoding: 1601 1601 31
Width: 2107
Flags: W
AnchorPoint: "ArabicBelow" 1053 -524 basechar 0
AnchorPoint: "ArabicAbove" 1053 1512 basechar 0
LayerCount: 2
Fore
SplineSet
2027 1089 m 0,0,1
 2027 1055 2027 1055 1949 997 c 2,2,-1
 1850 931 l 1,3,4
 1822 963 1822 963 1803.5 984.5 c 128,-1,5
 1785 1006 1785 1006 1775 1016 c 0,6,7
 1716 1076 1716 1076 1689 1076 c 1,8,-1
 1689 1089 l 1,9,-1
 1872 1262 l 1,10,11
 2027 1152 2027 1152 2027 1089 c 0,0,1
2096 516 m 0,12,13
 2096 404 2096 404 2021 265 c 0,14,15
 1821 -104 1821 -104 1306 -202 c 0,16,17
 925 -274 925 -274 491 -274 c 0,18,19
 107 -274 107 -274 107 27 c 0,20,21
 107 74 107 74 109.5 121.5 c 128,-1,22
 112 169 112 169 117 220 c 0,23,24
 134 384 134 384 167 384 c 0,25,26
 189 384 189 384 191 324 c 1,27,28
 190 352 190 352 189.5 334 c 128,-1,29
 189 316 189 316 189 250 c 0,30,31
 189 182 189 182 226 139 c 0,32,33
 236 126 236 126 259 107.5 c 128,-1,34
 282 89 282 89 317 64 c 0,35,36
 414 -5 414 -5 778 -5 c 0,37,38
 823 -5 823 -5 909 -2 c 128,-1,39
 995 1 995 1 1124 6 c 0,40,41
 1172 6 1172 6 1267 15 c 0,42,43
 1665 86 1665 86 1850 187 c 0,44,45
 1986 260 1986 260 1986 313 c 0,46,47
 1986 367 1986 367 1929 387 c 1,48,49
 1872 368 1872 368 1862 368 c 0,50,51
 1804 368 1804 368 1770.5 404.5 c 128,-1,52
 1737 441 1737 441 1737 470 c 128,-1,53
 1737 499 1737 499 1742 519 c 128,-1,54
 1747 539 1747 539 1758 581 c 0,55,56
 1778 657 1778 657 1813 720 c 0,57,58
 1864 809 1864 809 1918 809 c 0,59,60
 1965 809 1965 809 2042 698 c 0,61,62
 2096 620 2096 620 2096 516 c 0,12,13
EndSplineSet
Substitution2: "'fina' Terminal Forms in Arabic lookup 5 subtable" fehfinal
Substitution2: "'medi' Medial Forms in Arabic lookup 4 subtable" fehmedial
Substitution2: "'init' Initial Forms in Arabic lookup 3 subtable" fehinitial
Substitution2: "'isol' Isolated Forms in Arabic lookup 2 subtable" fehisolated
AlternateSubs2: "'aalt' Access All Alternates in Latin lookup 1 subtable" fehisolated fehinitial fehmedial fehfinal
EndChar

StartChar: qaf
Encoding: 1602 1602 32
Width: 1310
Flags: W
AnchorPoint: "ArabicBelow" 655 -634 basechar 0
AnchorPoint: "ArabicAbove" 655 1649 basechar 0
LayerCount: 2
Fore
SplineSet
1278 1311 m 0,0,1
 1278 1277 1278 1277 1213 1198 c 0,2,3
 1145 1117 1145 1117 1109 1117 c 1,4,5
 1086 1131 1086 1131 1058.5 1145 c 128,-1,6
 1031 1159 1031 1159 1000 1172 c 1,7,8
 985 1172 985 1172 938 1107 c 256,9,10
 891 1042 891 1042 856 1042 c 0,11,12
 833 1042 833 1042 767 1074 c 0,13,14
 698 1107 698 1107 698 1126 c 1,15,16
 844 1314 844 1314 863 1314 c 0,17,18
 874 1314 874 1314 929 1280 c 0,19,20
 984 1247 984 1247 995 1247 c 256,21,22
 1006 1247 1006 1247 1070 1323 c 256,23,24
 1134 1399 1134 1399 1153 1399 c 1,25,26
 1278 1340 1278 1340 1278 1311 c 0,0,1
1274 695 m 0,27,28
 1274 617 1274 617 1248 521 c 0,29,30
 1167 231 1167 231 1068 69 c 0,31,32
 943 -136 943 -136 723 -275 c 0,33,34
 551 -384 551 -384 383 -384 c 0,35,36
 324 -384 324 -384 249 -347 c 0,37,38
 21 -238 21 -238 21 39 c 0,39,40
 21 283 21 283 166 570 c 0,41,42
 174 589 174 589 187.5 611 c 128,-1,43
 201 633 201 633 218 658 c 1,44,45
 240 656 240 656 238 630 c 1,46,47
 199 531 199 531 179 480 c 128,-1,48
 159 429 159 429 157 425 c 0,49,50
 111 296 111 296 111 214 c 0,51,52
 111 61 111 61 245 -28 c 0,53,54
 360 -104 360 -104 522 -104 c 0,55,56
 586 -104 586 -104 726 -47 c 0,57,58
 963 51 963 51 1091 273 c 0,59,60
 1164 400 1164 400 1164 470 c 0,61,62
 1164 576 1164 576 1110 576 c 0,63,64
 1095 576 1095 576 1062 567 c 0,65,66
 1027 559 1027 559 1012 559 c 0,67,68
 976 559 976 559 945 589 c 256,69,70
 914 619 914 619 914 655 c 0,71,72
 914 721 914 721 972 837 c 0,73,74
 1035 967 1035 967 1092 967 c 0,75,76
 1171 967 1171 967 1227 868 c 0,77,78
 1274 782 1274 782 1274 695 c 0,27,28
EndSplineSet
Substitution2: "'fina' Terminal Forms in Arabic lookup 5 subtable" qaffinal
Substitution2: "'medi' Medial Forms in Arabic lookup 4 subtable" qafmedial
Substitution2: "'init' Initial Forms in Arabic lookup 3 subtable" qafinitial
Substitution2: "'isol' Isolated Forms in Arabic lookup 2 subtable" qafisolated
AlternateSubs2: "'aalt' Access All Alternates in Latin lookup 1 subtable" qafisolated qafinitial qafmedial qaffinal
EndChar

StartChar: arabickaf
Encoding: 1603 1603 33
Width: 1787
Flags: W
AnchorPoint: "ArabicBelow" 893 -305 basechar 0
AnchorPoint: "ArabicAbove" 893 1632 basechar 0
LayerCount: 2
Fore
SplineSet
1735 1382 m 1,0,1
 1730 1260 1730 1260 1725.5 1178 c 128,-1,2
 1721 1096 1721 1096 1716 1053 c 0,3,4
 1715 1021 1715 1021 1714 988.5 c 128,-1,5
 1713 956 1713 956 1711 924 c 0,6,7
 1701 737 1701 737 1696 630 c 128,-1,8
 1691 523 1691 523 1691 494 c 0,9,10
 1691 436 1691 436 1622 367 c 0,11,12
 1414 189 1414 189 1310 123 c 0,13,14
 1196 50 1196 50 950 -2 c 0,15,16
 825 -28 825 -28 704.5 -41.5 c 128,-1,17
 584 -55 584 -55 463 -55 c 0,18,19
 149 -55 149 -55 72 43 c 0,20,21
 24 104 24 104 24 274 c 0,22,23
 24 283 24 283 26 308 c 128,-1,24
 28 333 28 333 32 375 c 0,25,26
 45 508 45 508 63 508 c 0,27,28
 77 508 77 508 91 493 c 1,29,30
 99 477 99 477 99 453 c 0,31,32
 99 445 99 445 98 432 c 128,-1,33
 97 419 97 419 95 402 c 0,34,35
 92 367 92 367 92 351 c 0,36,37
 92 304 92 304 131 267 c 0,38,39
 147 252 147 252 210 214 c 0,40,41
 310 153 310 153 557 153 c 0,42,43
 897 153 897 153 1248 287 c 0,44,45
 1525 394 1525 394 1574 487 c 0,46,47
 1590 517 1590 517 1599 757 c 0,48,49
 1612 1280 1612 1280 1735 1382 c 1,0,1
1260 990 m 0,50,51
 1260 956 1260 956 1205 931 c 0,52,53
 1171 915 1171 915 1130.5 889.5 c 128,-1,54
 1090 864 1090 864 1042 828 c 0,55,56
 1013 806 1013 806 984.5 785 c 128,-1,57
 956 764 956 764 927 742 c 0,58,59
 831 665 831 665 831 634 c 0,60,61
 831 623 831 623 875 609 c 256,62,63
 919 595 919 595 919 573 c 0,64,65
 919 528 919 528 841 459 c 0,66,67
 762 391 762 391 715 391 c 0,68,69
 711 391 711 391 702 397 c 1,70,-1
 694 412 l 1,71,72
 713 422 713 422 731.5 432 c 128,-1,73
 750 442 750 442 769 452 c 0,74,75
 823 482 823 482 823 503 c 0,76,77
 823 516 823 516 788 530 c 0,78,79
 754 543 754 543 754 566 c 0,80,81
 754 644 754 644 971 837 c 0,82,83
 1179 1023 1179 1023 1234 1023 c 0,84,85
 1260 1023 1260 1023 1260 990 c 0,50,51
EndSplineSet
Substitution2: "'fina' Terminal Forms in Arabic lookup 5 subtable" arabickaffinal
Substitution2: "'medi' Medial Forms in Arabic lookup 4 subtable" kafmedial
Substitution2: "'init' Initial Forms in Arabic lookup 3 subtable" kafinitial
Substitution2: "'isol' Isolated Forms in Arabic lookup 2 subtable" kafisolated
AlternateSubs2: "'aalt' Access All Alternates in Latin lookup 1 subtable" kafisolated kafinitial kafmedial arabickaffinal
EndChar

StartChar: lam
Encoding: 1604 1604 34
Width: 1310
Flags: W
AnchorPoint: "ArabicBelow" 655 -1085 basechar 0
AnchorPoint: "ArabicAbove" 655 1482 basechar 0
LayerCount: 2
Fore
SplineSet
1288 1229 m 1,0,1
 1277 1174 1277 1174 1267 1069.5 c 128,-1,2
 1257 965 1257 965 1248 808 c 0,3,4
 1244 775 1244 775 1239 725.5 c 128,-1,5
 1234 676 1234 676 1228 610 c 0,6,7
 1226 534 1226 534 1223.5 458 c 128,-1,8
 1221 382 1221 382 1219 306 c 0,9,10
 1213 123 1213 123 1182 5 c 0,11,12
 1169 -43 1169 -43 1136 -127 c 128,-1,13
 1103 -211 1103 -211 1048 -332 c 0,14,15
 1002 -435 1002 -435 945 -518.5 c 128,-1,16
 888 -602 888 -602 819 -669 c 0,17,18
 650 -835 650 -835 459 -835 c 0,19,20
 362 -835 362 -835 316 -820 c 0,21,22
 206 -786 206 -786 142 -649 c 0,23,24
 87 -535 87 -535 87 -404 c 0,25,26
 87 -319 87 -319 129 -173 c 0,27,28
 148 -108 148 -108 168.5 -53.5 c 128,-1,29
 189 1 189 1 211 46 c 0,30,31
 242 112 242 112 255 112 c 0,32,33
 270 112 270 112 276 87 c 1,34,35
 168 -129 168 -129 168 -299 c 0,36,37
 168 -412 168 -412 272 -501 c 0,38,39
 373 -584 373 -584 488 -584 c 0,40,41
 605 -584 605 -584 749 -506 c 0,42,43
 869 -441 869 -441 940 -358 c 0,44,45
 1004 -283 1004 -283 1058 -148 c 0,46,47
 1101 -44 1101 -44 1104 54 c 0,48,49
 1105 99 1105 99 1107 164.5 c 128,-1,50
 1109 230 1109 230 1112 318 c 0,51,52
 1117 446 1117 446 1123 548.5 c 128,-1,53
 1129 651 1129 651 1135 732 c 0,54,55
 1140 787 1140 787 1142.5 819 c 128,-1,56
 1145 851 1145 851 1146 861 c 0,57,58
 1150 899 1150 899 1155.5 930.5 c 128,-1,59
 1161 962 1161 962 1169 988 c 0,60,61
 1241 1232 1241 1232 1259 1232 c 128,-1,62
 1277 1232 1277 1232 1280 1231.5 c 128,-1,63
 1283 1231 1283 1231 1288 1229 c 1,0,1
EndSplineSet
Substitution2: "'fina' Terminal Forms in Arabic lookup 5 subtable" lamfinal
Substitution2: "'medi' Medial Forms in Arabic lookup 4 subtable" lammedial
Substitution2: "'init' Initial Forms in Arabic lookup 3 subtable" laminitial
Substitution2: "'isol' Isolated Forms in Arabic lookup 2 subtable" lamisolated
AlternateSubs2: "'aalt' Access All Alternates in Latin lookup 1 subtable" lamisolated laminitial lammedial lamfinal
EndChar

StartChar: meem
Encoding: 1605 1605 35
Width: 1054
Flags: W
AnchorPoint: "ArabicBelow" 527 -1235 basechar 0
AnchorPoint: "ArabicAbove" 527 1136 basechar 0
LayerCount: 2
Fore
SplineSet
993 805 m 0,0,1
 993 639 993 639 842 554 c 2,2,-1
 533 422 l 2,3,4
 343 330 343 330 282 170 c 0,5,6
 263 121 263 121 242.5 33 c 128,-1,7
 222 -55 222 -55 199 -185 c 0,8,9
 197 -236 197 -236 193 -334 c 0,10,11
 188 -398 188 -398 181.5 -493 c 128,-1,12
 175 -588 175 -588 168 -717 c 0,13,14
 166 -783 166 -783 165 -818.5 c 128,-1,15
 164 -854 164 -854 163 -861 c 0,16,17
 150 -985 150 -985 108 -985 c 1,18,19
 88 -959 88 -959 88 -904 c 0,20,21
 88 -857 88 -857 89.5 -766 c 128,-1,22
 91 -675 91 -675 95 -537 c 0,23,24
 104 -171 104 -171 140 -9 c 0,25,26
 200 255 200 255 380 452 c 0,27,28
 391 463 391 463 428 495.5 c 128,-1,29
 465 528 465 528 531 582 c 0,30,31
 629 663 629 663 655 719 c 0,32,33
 677 771 l 128,-1,34
 699 823 l 0,35,36
 733 886 733 886 783 886 c 0,37,38
 850 886 850 886 909 871 c 0,39,40
 993 850 993 850 993 805 c 0,0,1
EndSplineSet
Substitution2: "'fina' Terminal Forms in Arabic lookup 5 subtable" meemfinal
Substitution2: "'medi' Medial Forms in Arabic lookup 4 subtable" meemmedial
Substitution2: "'init' Initial Forms in Arabic lookup 3 subtable" meeminitial
Substitution2: "'isol' Isolated Forms in Arabic lookup 2 subtable" meemisolated
AlternateSubs2: "'aalt' Access All Alternates in Latin lookup 1 subtable" meemisolated meeminitial meemmedial meemfinal
EndChar

StartChar: noon
Encoding: 1606 1606 36
Width: 1176
Flags: W
AnchorPoint: "ArabicBelow" 588 -598 basechar 0
AnchorPoint: "ArabicAbove" 588 1174 basechar 0
LayerCount: 2
Fore
SplineSet
712 429 m 0,0,1
 712 408 712 408 651 341 c 0,2,3
 591 273 591 273 568 273 c 1,4,5
 453 319 453 319 453 355 c 0,6,7
 453 374 453 374 512 450 c 0,8,9
 572 525 572 525 593 525 c 1,10,11
 712 478 712 478 712 429 c 0,0,1
1209 907 m 1,12,13
 1179 860 1179 860 1155 671 c 0,14,15
 1147 608 1147 608 1139 547 c 128,-1,16
 1131 486 1131 486 1123 423 c 0,17,18
 1061 129 1061 129 865 -94 c 0,19,20
 641 -348 641 -348 365 -348 c 0,21,22
 230 -348 230 -348 136 -239 c 0,23,24
 47 -135 47 -135 47 2 c 0,25,26
 47 69 47 69 65 161 c 0,27,28
 73 203 73 203 89.5 255.5 c 128,-1,29
 106 308 106 308 129 371 c 0,30,31
 192 537 192 537 238 537 c 0,32,33
 256 537 256 537 255 512 c 1,34,35
 145 301 145 301 145 185 c 0,36,37
 145 60 145 60 229 -28 c 0,38,39
 314 -116 314 -116 440 -116 c 256,40,41
 566 -116 566 -116 693 -57 c 0,42,43
 821 2 821 2 898 98 c 0,44,45
 929 137 929 137 946.5 160 c 128,-1,46
 964 183 964 183 969 191 c 0,47,48
 995 232 995 232 1011 298 c 0,49,50
 1024 353 1024 353 1029 480 c 0,51,52
 1034 599 1034 599 1053 662 c 0,53,54
 1064 697 1064 697 1098.5 762 c 128,-1,55
 1133 827 1133 827 1193 924 c 1,56,-1
 1209 924 l 1,57,-1
 1209 907 l 1,12,13
EndSplineSet
Substitution2: "'fina' Terminal Forms in Arabic lookup 5 subtable" noonfinal
Substitution2: "'medi' Medial Forms in Arabic lookup 4 subtable" noonmedial
Substitution2: "'init' Initial Forms in Arabic lookup 3 subtable" nooninitial
Substitution2: "'isol' Isolated Forms in Arabic lookup 2 subtable" noonisolated
AlternateSubs2: "'aalt' Access All Alternates in Latin lookup 1 subtable" noonisolated nooninitial noonmedial noonfinal
EndChar

StartChar: heh
Encoding: 1607 1607 37
Width: 576
Flags: W
AnchorPoint: "ArabicBelow" 288 -310 basechar 0
AnchorPoint: "ArabicAbove" 288 965 basechar 0
LayerCount: 2
Fore
SplineSet
499 434 m 0,0,1
 499 295 499 295 404 128 c 0,2,3
 297 -60 297 -60 169 -60 c 1,4,5
 32 -9 32 -9 32 149 c 0,6,7
 32 228 32 228 51 288 c 0,8,9
 52 290 52 290 65.5 324.5 c 128,-1,10
 79 359 79 359 105 425 c 1,11,12
 106 433 106 433 107.5 444.5 c 128,-1,13
 109 456 109 456 113 471 c 0,14,15
 127 505 127 505 140.5 539 c 128,-1,16
 154 573 154 573 168 608 c 0,17,18
 221 715 221 715 268 715 c 0,19,20
 363 715 363 715 434 620 c 0,21,22
 499 531 499 531 499 434 c 0,0,1
374 257 m 0,23,24
 374 311 374 311 321 356 c 0,25,26
 270 398 270 398 215 398 c 0,27,28
 184 398 184 398 145 335 c 0,29,30
 109 276 109 276 109 242 c 0,31,32
 109 193 109 193 147 155 c 0,33,34
 185 118 185 118 236 118 c 0,35,36
 295 118 295 118 334 158 c 0,37,38
 374 198 374 198 374 257 c 0,23,24
EndSplineSet
Substitution2: "'fina' Terminal Forms in Arabic lookup 5 subtable" hehfinal
Substitution2: "'medi' Medial Forms in Arabic lookup 4 subtable" hehmedial
Substitution2: "'init' Initial Forms in Arabic lookup 3 subtable" hehinitial
Substitution2: "'isol' Isolated Forms in Arabic lookup 2 subtable" hehisolated
AlternateSubs2: "'aalt' Access All Alternates in Latin lookup 1 subtable" hehisolated hehinitial hehmedial hehfinal
EndChar

StartChar: waw
Encoding: 1608 1608 38
Width: 495
Flags: W
AnchorPoint: "ArabicBelow" 247 -379 basechar 0
AnchorPoint: "ArabicAbove" 247 1076 basechar 0
LayerCount: 2
Fore
SplineSet
428 554 m 0,0,1
 428 509 428 509 422 462 c 128,-1,2
 416 415 416 415 405 364 c 0,3,4
 364 188 364 188 305 109 c 0,5,6
 236 16 236 16 82 -45 c 0,7,8
 5 -77 5 -77 -144 -129 c 1,9,-1
 -146 -128 l 1,10,-1
 -155 -113 l 1,11,12
 -154 -93 -154 -93 40 62 c 0,13,14
 246 226 246 226 283 292 c 0,15,16
 320 359 320 359 320 377 c 0,17,18
 320 394 320 394 299 394 c 0,19,20
 281 394 281 394 238 386 c 256,21,22
 195 378 195 378 176 378 c 0,23,24
 61 378 61 378 61 515 c 0,25,26
 61 559 61 559 132 690 c 0,27,28
 205 826 205 826 239 826 c 0,29,30
 277 826 277 826 345 763 c 0,31,32
 428 686 428 686 428 554 c 0,0,1
EndSplineSet
Substitution2: "'fina' Terminal Forms in Arabic lookup 5 subtable" wawfinal
Substitution2: "'isol' Isolated Forms in Arabic lookup 2 subtable" wawisolated
AlternateSubs2: "'aalt' Access All Alternates in Latin lookup 1 subtable" wawisolated wawfinal
EndChar

StartChar: alefmaksura
Encoding: 1609 1609 39
Width: 1435
Flags: W
AnchorPoint: "ArabicBelow" 717 -687 basechar 0
AnchorPoint: "ArabicAbove" 717 1424 basechar 0
LayerCount: 2
Fore
SplineSet
1399 1120 m 0,0,1
 1399 1002 1399 1002 1334 958 c 0,2,3
 1315 945 1315 945 1271.5 933 c 128,-1,4
 1228 921 1228 921 1159 908 c 0,5,6
 1137 904 1137 904 1049 814 c 0,7,8
 949 713 949 713 949 628 c 0,9,10
 949 592 949 592 1006 564 c 0,11,12
 1056 539 1056 539 1082 525 c 128,-1,13
 1108 511 1108 511 1112 509 c 0,14,15
 1169 468 1169 468 1169 401 c 0,16,17
 1169 176 1169 176 1008 -78 c 0,18,19
 841 -341 841 -341 636 -413 c 0,20,21
 567 -437 567 -437 459 -437 c 0,22,23
 309 -437 309 -437 195 -316 c 0,24,25
 82 -194 82 -194 82 -43 c 0,26,27
 82 148 82 148 146 352 c 0,28,29
 186 478 186 478 293 726 c 0,30,31
 330 811 330 811 354 811 c 0,32,33
 373 811 373 811 377 777 c 1,34,35
 354 725 354 725 331.5 674 c 128,-1,36
 309 623 309 623 286 571 c 0,37,38
 246 477 246 477 215 349 c 0,39,40
 202 298 202 298 202 238 c 0,41,42
 202 51 202 51 309 -56 c 256,43,44
 416 -163 416 -163 604 -163 c 0,45,46
 719 -163 719 -163 877 -58 c 0,47,48
 1045 54 1045 54 1045 162 c 0,49,50
 1045 200 1045 200 940 260 c 0,51,52
 836 322 836 322 836 387 c 0,53,54
 836 407 836 407 842.5 445.5 c 128,-1,55
 849 484 849 484 862 544 c 0,56,57
 930 855 930 855 1215 1100 c 0,58,59
 1301 1174 1301 1174 1341 1174 c 0,60,61
 1399 1174 1399 1174 1399 1120 c 0,0,1
EndSplineSet
Substitution2: "'fina' Terminal Forms in Arabic lookup 5 subtable" alefmaksurafinal
Substitution2: "'isol' Isolated Forms in Arabic lookup 2 subtable" alefmaksuraisolated
AlternateSubs2: "'aalt' Access All Alternates in Latin lookup 1 subtable" alefmaksuraisolated alefmaksurafinal
EndChar

StartChar: yeh
Encoding: 1610 1610 40
Width: 1435
Flags: W
AnchorPoint: "ArabicBelow" 717 -1087 basechar 0
AnchorPoint: "ArabicAbove" 717 1424 basechar 0
LayerCount: 2
Fore
SplineSet
1399 1120 m 0,0,1
 1399 1002 1399 1002 1334 958 c 0,2,3
 1315 945 1315 945 1271.5 933 c 128,-1,4
 1228 921 1228 921 1159 908 c 0,5,6
 1137 904 1137 904 1049 814 c 0,7,8
 949 713 949 713 949 628 c 0,9,10
 949 592 949 592 1006 564 c 0,11,12
 1056 539 1056 539 1082 525 c 128,-1,13
 1108 511 1108 511 1112 509 c 0,14,15
 1169 468 1169 468 1169 401 c 0,16,17
 1169 176 1169 176 1008 -78 c 0,18,19
 841 -341 841 -341 636 -413 c 0,20,21
 567 -437 567 -437 459 -437 c 0,22,23
 309 -437 309 -437 195 -316 c 0,24,25
 82 -194 82 -194 82 -43 c 0,26,27
 82 148 82 148 146 352 c 0,28,29
 186 478 186 478 293 726 c 0,30,31
 330 811 330 811 354 811 c 0,32,33
 373 811 373 811 377 777 c 1,34,35
 354 725 354 725 331.5 674 c 128,-1,36
 309 623 309 623 286 571 c 0,37,38
 246 477 246 477 215 349 c 0,39,40
 202 298 202 298 202 238 c 0,41,42
 202 51 202 51 309 -56 c 256,43,44
 416 -163 416 -163 604 -163 c 0,45,46
 719 -163 719 -163 877 -58 c 0,47,48
 1045 54 1045 54 1045 162 c 0,49,50
 1045 200 1045 200 940 260 c 0,51,52
 836 322 836 322 836 387 c 0,53,54
 836 407 836 407 842.5 445.5 c 128,-1,55
 849 484 849 484 862 544 c 0,56,57
 930 855 930 855 1215 1100 c 0,58,59
 1301 1174 1301 1174 1341 1174 c 0,60,61
 1399 1174 1399 1174 1399 1120 c 0,0,1
894 -567 m 256,62,63
 894 -601 894 -601 829 -680 c 0,64,65
 761 -761 761 -761 725 -761 c 1,66,67
 629 -707 629 -707 615 -707 c 0,68,69
 605 -707 605 -707 555 -772 c 256,70,71
 505 -837 505 -837 471 -837 c 0,72,73
 444 -837 444 -837 381 -806 c 0,74,75
 313 -774 313 -774 313 -753 c 1,76,77
 332 -729 332 -729 350 -705 c 128,-1,78
 368 -681 368 -681 387 -658 c 0,79,80
 462 -567 462 -567 479 -565 c 1,81,82
 496 -575 496 -575 513 -584 c 128,-1,83
 530 -593 530 -593 547 -603 c 0,84,85
 596 -631 596 -631 611 -631 c 0,86,87
 628 -631 628 -631 689 -555 c 0,88,89
 750 -480 750 -480 769 -480 c 1,90,91
 894 -533 894 -533 894 -567 c 256,62,63
EndSplineSet
Substitution2: "'fina' Terminal Forms in Arabic lookup 5 subtable" yehfinal
Substitution2: "'medi' Medial Forms in Arabic lookup 4 subtable" yehmedial
Substitution2: "'init' Initial Forms in Arabic lookup 3 subtable" yehinitial
Substitution2: "'isol' Isolated Forms in Arabic lookup 2 subtable" yehisolated
AlternateSubs2: "'aalt' Access All Alternates in Latin lookup 1 subtable" yehisolated yehinitial yehmedial yehfinal
EndChar

StartChar: fathatan
Encoding: 1611 1611 41
Width: 0
Flags: W
AnchorPoint: "ArabicAboveLigature" 230 1275 mark 0
AnchorPoint: "ArabicAbove" 230 1275 mark 0
LayerCount: 2
Fore
SplineSet
398 2164 m 1,0,1
 398 2098 398 2098 363 2078 c 2,2,-1
 60 1906 l 1,3,4
 63 1944 63 1944 74 1965 c 0,5,6
 86 1985 86 1985 126 2007 c 2,7,-1
 398 2164 l 1,0,1
398 2018 m 1,8,9
 398 1952 398 1952 363 1932 c 2,10,-1
 60 1760 l 1,11,12
 63 1798 63 1798 74 1819 c 0,13,14
 86 1839 86 1839 126 1861 c 2,15,-1
 398 2018 l 1,8,9
EndSplineSet
AlternateSubs2: "'aalt' Access All Alternates in Latin lookup 1 subtable" fathatanisolated fathatanlow
EndChar

StartChar: dammatan
Encoding: 1612 1612 42
Width: 0
Flags: W
AnchorPoint: "ArabicAboveLigature" 230 1275 mark 0
AnchorPoint: "ArabicAbove" 230 1275 mark 0
LayerCount: 2
Fore
SplineSet
396 1582 m 0,0,1
 396 1565 396 1565 395.5 1550 c 128,-1,2
 395 1535 395 1535 394 1523 c 1,3,4
 374 1534 374 1534 351 1548.5 c 128,-1,5
 328 1563 328 1563 302 1582 c 1,6,7
 176 1453 176 1453 62 1437 c 1,8,9
 105 1526 105 1526 105 1566 c 0,10,11
 105 1621 105 1621 56 1621 c 0,12,13
 14 1621 14 1621 7 1545 c 1,14,15
 -3 1574 -3 1574 -3 1597 c 256,16,17
 -3 1620 -3 1620 3.5 1640 c 128,-1,18
 10 1660 10 1660 21.5 1675 c 128,-1,19
 33 1690 33 1690 48 1698.5 c 128,-1,20
 63 1707 63 1707 81 1707 c 0,21,22
 148 1707 148 1707 148 1607 c 2,23,-1
 142 1515 l 1,24,25
 207 1540 207 1540 266 1605 c 1,26,27
 200 1648 200 1648 200 1699 c 0,28,29
 200 1752 200 1752 240 1798 c 0,30,31
 280 1846 280 1846 322 1846 c 0,32,33
 344 1846 344 1846 367 1819 c 0,34,35
 390 1793 390 1793 390 1766 c 0,36,37
 390 1736 390 1736 379 1708 c 0,38,-1
 357 1652 l 1,39,40
 396 1622 396 1622 396 1582 c 0,0,1
320 1726 m 0,41,42
 320 1779 320 1779 279 1779 c 0,43,44
 253 1779 253 1779 253 1756 c 0,45,46
 253 1730 253 1730 316 1687 c 1,47,48
 320 1696 320 1696 320 1726 c 0,41,42
EndSplineSet
AlternateSubs2: "'aalt' Access All Alternates in Latin lookup 1 subtable" dammatanisolated dammatanlow
EndChar

StartChar: kasratan
Encoding: 1613 1613 43
Width: 0
Flags: W
AnchorPoint: "ArabicBelowLigature" 165 -500 mark 0
AnchorPoint: "ArabicBelow" 165 -500 mark 0
LayerCount: 2
Fore
SplineSet
339 -620 m 1,0,1
 339 -686 339 -686 304 -706 c 2,2,-1
 1 -878 l 1,3,4
 4 -840 4 -840 15 -818 c 1,5,6
 28 -800 28 -800 67 -777 c 2,7,-1
 339 -620 l 1,0,1
339 -767 m 1,8,9
 339 -833 339 -833 304 -853 c 2,10,-1
 1 -1025 l 1,11,12
 4 -987 4 -987 15 -965 c 1,13,14
 28 -947 28 -947 67 -924 c 2,15,-1
 339 -767 l 1,8,9
EndSplineSet
AlternateSubs2: "'aalt' Access All Alternates in Latin lookup 1 subtable" kasratanisolated kasratanlow
EndChar

StartChar: fatha
Encoding: 1614 1614 44
Width: 0
Flags: W
AnchorPoint: "ArabicAboveLigature" 230 1275 mark 0
AnchorPoint: "ArabicAbove" 230 1275 mark 0
LayerCount: 2
Fore
SplineSet
283 1910 m 1,0,1
 283 1856 283 1856 254 1839 c 2,2,-1
 5 1698 l 1,3,4
 7 1732 7 1732 16 1747 c 0,5,6
 26 1762 26 1762 59 1781 c 2,7,-1
 283 1910 l 1,0,1
EndSplineSet
AlternateSubs2: "'aalt' Access All Alternates in Latin lookup 1 subtable" fathaisolated fathalow
EndChar

StartChar: damma
Encoding: 1615 1615 45
Width: 0
Flags: W
AnchorPoint: "ArabicAboveLigature" 230 1275 mark 0
AnchorPoint: "ArabicAbove" 230 1275 mark 0
LayerCount: 2
Fore
SplineSet
280 1883 m 1,0,-1
 273 1802 l 1,1,-1
 208 1845 l 1,2,3
 109 1727 109 1727 46 1727 c 0,4,5
 28 1727 28 1727 -2 1737 c 1,6,7
 40 1760 40 1760 83.5 1791.5 c 128,-1,8
 127 1823 127 1823 173 1865 c 1,9,10
 123 1903 123 1903 123 1938 c 0,11,12
 123 1988 123 1988 159 2041 c 0,13,14
 185 2076 185 2076 218 2076 c 0,15,16
 273 2076 273 2076 273 2004 c 0,17,18
 273 1962 273 1962 248 1908 c 1,19,20
 254 1904 254 1904 262 1897.5 c 128,-1,21
 270 1891 270 1891 280 1883 c 1,0,-1
223 1956 m 0,22,23
 223 1974 223 1974 209.5 1990 c 128,-1,24
 196 2006 196 2006 179 2006 c 0,25,26
 164 2006 164 2006 164 1989 c 0,27,28
 164 1964 164 1964 218 1928 c 1,29,30
 223 1948 223 1948 223 1956 c 0,22,23
EndSplineSet
AlternateSubs2: "'aalt' Access All Alternates in Latin lookup 1 subtable" dammaisolated dammalow
EndChar

StartChar: kasra
Encoding: 1616 1616 46
Width: 0
Flags: W
AnchorPoint: "ArabicBelowLigature" 165 -500 mark 0
AnchorPoint: "ArabicBelow" 165 -500 mark 0
LayerCount: 2
Fore
SplineSet
351 -620 m 1,0,1
 351 -686 351 -686 316 -706 c 2,2,-1
 13 -878 l 1,3,4
 16 -840 16 -840 27 -818 c 1,5,6
 40 -800 40 -800 79 -777 c 2,7,-1
 351 -620 l 1,0,1
EndSplineSet
AlternateSubs2: "'aalt' Access All Alternates in Latin lookup 1 subtable" kasraisolated kasralow
EndChar

StartChar: shadda
Encoding: 1617 1617 47
Width: 0
Flags: W
AnchorPoint: "ArabicAboveLigature" 300 1650 mark 0
AnchorPoint: "ArabicAbove" 300 1650 mark 0
LayerCount: 2
Fore
SplineSet
355 1683 m 0,0,1
 355 1515 355 1515 251 1515 c 0,2,3
 215 1515 215 1515 187 1536 c 1,4,5
 179 1501 179 1501 148 1476 c 0,6,7
 116 1450 116 1450 83 1450 c 0,8,9
 1 1450 1 1450 1 1558 c 0,10,11
 1 1583 1 1583 23 1659 c 1,12,-1
 46 1663 l 1,13,14
 46 1552 46 1552 85 1552 c 0,15,16
 149 1552 149 1552 175 1714 c 1,17,-1
 193 1720 l 1,18,19
 216 1622 216 1622 251 1622 c 0,20,21
 309 1622 309 1622 318 1769 c 1,22,-1
 341 1779 l 1,23,24
 355 1718 355 1718 355 1683 c 0,0,1
EndSplineSet
AlternateSubs2: "'aalt' Access All Alternates in Latin lookup 1 subtable" shaddaisolated shaddalow
EndChar

StartChar: sukun
Encoding: 1618 1618 48
Width: 0
Flags: W
AnchorPoint: "ArabicAboveLigature" 230 1275 mark 0
AnchorPoint: "ArabicAbove" 230 1275 mark 0
LayerCount: 2
Fore
SplineSet
260 1614 m 0,0,1
 260 1549 260 1549 214 1500 c 0,2,3
 167 1450 167 1450 109 1450 c 0,4,5
 2 1450 2 1450 2 1571 c 0,6,7
 2 1655 2 1655 40 1708 c 0,8,9
 77 1762 77 1762 139 1762 c 0,10,11
 186 1762 186 1762 223 1716 c 0,12,13
 260 1673 260 1673 260 1614 c 0,0,1
205 1590 m 0,14,15
 205 1616 205 1616 162 1647 c 0,16,17
 121 1676 121 1676 94 1676 c 0,18,19
 35 1676 35 1676 35 1608 c 0,20,21
 35 1549 35 1549 127 1549 c 0,22,23
 205 1549 205 1549 205 1590 c 0,14,15
EndSplineSet
AlternateSubs2: "'aalt' Access All Alternates in Latin lookup 1 subtable" sukunisolated sukunlow
EndChar

StartChar: arabicindicdigitzero
Encoding: 1632 1632 49
Width: 466
Flags: W
LayerCount: 2
Fore
SplineSet
362 449 m 1,0,-1
 292 205 l 1,1,-1
 98 325 l 1,2,-1
 168 569 l 1,3,-1
 362 449 l 1,0,-1
EndSplineSet
EndChar

StartChar: arabicindicdigitone
Encoding: 1633 1633 50
Width: 502
Flags: W
LayerCount: 2
Fore
SplineSet
404 134 m 2,0,1
 404 83 404 83 401 46.5 c 128,-1,2
 398 10 398 10 393 -15 c 1,3,-1
 393 -16 l 1,4,5
 385 -66 385 -66 367 -66 c 0,6,7
 355 -66 355 -66 342 0 c 0,8,9
 319 147 319 147 302.5 235 c 128,-1,10
 286 323 286 323 272 359 c 0,11,12
 258 394 258 394 246 425 c 128,-1,13
 234 456 234 456 222 484 c 0,14,15
 211 510 211 510 199 533.5 c 128,-1,16
 187 557 187 557 174 581 c 2,17,-1
 104 701 l 1,18,19
 105 714 105 714 106 723 c 128,-1,20
 107 732 107 732 109 738 c 0,21,22
 113 750 113 750 119.5 770.5 c 128,-1,23
 126 791 126 791 138 827 c 0,24,25
 171 917 171 917 177 919 c 1,26,27
 191 914 191 914 236 847 c 0,28,29
 265 805 265 805 291.5 749 c 128,-1,30
 318 693 318 693 344 618 c 0,31,32
 357 573 357 573 367.5 526 c 128,-1,33
 378 479 378 479 387 428 c 0,34,35
 395 377 395 377 399 329 c 128,-1,36
 403 281 403 281 403 235 c 2,37,-1
 403 199 l 1,38,-1
 404 134 l 2,0,1
EndSplineSet
EndChar

StartChar: arabicindicdigittwo
Encoding: 1634 1634 51
Width: 724
Flags: W
LayerCount: 2
Fore
SplineSet
183 720 m 1,0,-1
 183 792 l 2,1,2
 185 812 185 812 189 834.5 c 128,-1,3
 193 857 193 857 204 875 c 0,4,5
 228 915 228 915 281.5 931 c 128,-1,6
 335 947 335 947 400 950 c 128,-1,7
 465 953 465 953 531 948 c 128,-1,8
 597 943 597 943 673 930 c 1,9,10
 654 809 654 809 648 782 c 1,11,12
 632 788 632 788 569 795.5 c 128,-1,13
 506 803 506 803 484 802 c 128,-1,14
 462 801 462 801 454 800 c 0,15,16
 401 795 401 795 373 777.5 c 128,-1,17
 345 760 345 760 335.5 734.5 c 128,-1,18
 326 709 326 709 330.5 676.5 c 128,-1,19
 335 644 335 644 347.5 609 c 128,-1,20
 360 574 360 574 375.5 538 c 128,-1,21
 391 502 391 502 404 470 c 0,22,23
 405 467 405 467 407 462.5 c 128,-1,24
 409 458 409 458 413 444.5 c 128,-1,25
 417 431 417 431 424.5 404.5 c 128,-1,26
 432 378 432 378 444 331 c 2,27,-1
 460 233 l 1,28,-1
 467 155 l 1,29,-1
 470 73 l 2,30,31
 470 -78 470 -78 440 -78 c 0,32,33
 420 -78 420 -78 402 19 c 0,34,35
 388 95 388 95 369 178 c 0,36,37
 362 211 362 211 348 248 c 2,38,-1
 329 311 l 2,39,40
 297 402 297 402 265.5 475 c 128,-1,41
 234 548 234 548 209 631 c 2,42,-1
 183 720 l 1,0,-1
EndSplineSet
EndChar

StartChar: arabicindicdigitthree
Encoding: 1635 1635 52
Width: 939
Flags: W
LayerCount: 2
Fore
SplineSet
765 964 m 1,0,1
 766 964 766 964 766.5 964.5 c 128,-1,2
 767 965 767 965 768 965 c 1,3,-1
 765 964 l 1,0,1
768 944 m 1,4,5
 771 944 771 944 776 940 c 1,6,-1
 779 927 l 1,7,-1
 781 898 l 2,8,9
 781 856 781 856 773 813 c 128,-1,10
 765 770 765 770 748 720 c 0,11,12
 714 618 714 618 669 602 c 1,13,-1
 668 601 l 1,14,15
 659 599 659 599 650 597.5 c 128,-1,16
 641 596 641 596 637 596 c 0,17,18
 601 596 601 596 568 613 c 1,19,-1
 567 613 l 1,20,-1
 530 630 l 1,21,-1
 510 640 l 1,22,-1
 496 651 l 1,23,-1
 483 649 l 1,24,25
 459 619 459 619 436 599.5 c 128,-1,26
 413 580 413 580 392 569 c 2,27,-1
 353 555 l 1,28,-1
 346 538 l 1,29,-1
 361 472 l 1,30,-1
 376 395 l 1,31,-1
 383 330 l 1,32,-1
 390 273 l 1,33,-1
 390 117 l 2,34,35
 390 61 390 61 389 22.5 c 128,-1,36
 388 -16 388 -16 384 -40.5 c 128,-1,37
 380 -65 380 -65 374 -75.5 c 128,-1,38
 368 -86 368 -86 358 -86 c 0,39,40
 340 -86 340 -86 325 66 c 0,41,42
 309 230 309 230 272 348 c 0,43,44
 259 394 259 394 246.5 434 c 128,-1,45
 234 474 234 474 221 508 c 0,46,47
 208 545 208 545 197.5 573.5 c 128,-1,48
 187 602 187 602 178 623 c 1,49,-1
 177 624 l 1,50,-1
 123 732 l 1,51,-1
 100 778 l 1,52,-1
 122 831 l 2,53,54
 137 862 137 862 152.5 887 c 128,-1,55
 168 912 168 912 184 933 c 1,56,-1
 242 858 l 2,57,58
 319 762 319 762 369 762 c 0,59,60
 384 762 384 762 401 772 c 0,61,62
 455 815 455 815 487 872 c 2,63,-1
 553 981 l 1,64,65
 563 981 563 981 563 950 c 2,66,-1
 563 923 l 1,67,-1
 565 896 l 1,68,-1
 565 894 l 1,69,70
 570 875 570 875 600 846 c 1,71,-1
 600 845 l 1,72,73
 616 833 616 833 633 826 c 128,-1,74
 650 819 650 819 669 819 c 0,75,76
 695 819 695 819 718 848 c 2,77,-1
 721 852 l 1,78,-1
 746 918 l 2,79,80
 754 936 754 936 768 944 c 1,4,5
EndSplineSet
EndChar

StartChar: arabicindicdigitfour
Encoding: 1636 1636 53
Width: 630
Flags: W
LayerCount: 2
Fore
SplineSet
462 -64 m 1,0,-1
 457 -64 l 2,1,2
 402 -64 402 -64 289 -24 c 0,3,4
 116 28 116 28 116 107 c 0,5,6
 116 125 116 125 128.5 154 c 128,-1,7
 141 183 141 183 164 218 c 2,8,-1
 286 386 l 1,9,-1
 288 396 l 1,10,11
 288 416 288 416 188 484 c 0,12,13
 165 498 165 498 145.5 515 c 128,-1,14
 126 532 126 532 112 547 c 1,15,16
 111 555 111 555 110.5 561 c 128,-1,17
 110 567 110 567 109 575 c 0,18,19
 109 598 109 598 115.5 622.5 c 128,-1,20
 122 647 122 647 134 675 c 1,21,-1
 134 674 l 1,22,23
 158 720 158 720 193.5 764.5 c 128,-1,24
 229 809 229 809 274 850 c 0,25,26
 312 882 312 882 344 904 c 128,-1,27
 376 926 376 926 396 933 c 1,28,29
 390 896 390 896 385.5 864 c 128,-1,30
 381 832 381 832 376 795 c 1,31,-1
 311 775 l 1,32,33
 237 740 237 740 226 703 c 1,34,35
 226 670 226 670 309 621 c 0,36,37
 343 605 343 605 374.5 589.5 c 128,-1,38
 406 574 406 574 439 559 c 1,39,-1
 440 551 l 2,40,41
 440 533 440 533 423 501.5 c 128,-1,42
 406 470 406 470 377 433 c 2,43,-1
 295 346 l 2,44,45
 273 324 273 324 251 286 c 0,46,47
 239 266 239 266 237 247.5 c 128,-1,48
 235 229 235 229 240 215 c 1,49,-1
 244 209 l 1,50,51
 251 204 251 204 267 195.5 c 128,-1,52
 283 187 283 187 311 176 c 2,53,-1
 426 134 l 2,54,55
 444 129 444 129 462 124.5 c 128,-1,56
 480 120 480 120 499 115 c 0,57,58
 505 113 505 113 510 111 c 128,-1,59
 515 109 515 109 521 107 c 1,60,-1
 462 -64 l 1,0,-1
EndSplineSet
EndChar

StartChar: arabicindicdigitfive
Encoding: 1637 1637 54
Width: 740
Flags: W
LayerCount: 2
Fore
SplineSet
555 359 m 1,0,1
 560 364 560 364 560.5 367 c 128,-1,2
 561 370 561 370 561 374 c 0,3,4
 561 390 561 390 542.5 420.5 c 128,-1,5
 524 451 524 451 487 502 c 1,6,-1
 486 502 l 1,7,8
 388 624 388 624 313 624 c 0,9,10
 288 624 288 624 244 547 c 0,11,12
 202 472 202 472 202 411 c 2,13,-1
 202 410 l 1,14,-1
 206 368 l 1,15,16
 213 346 213 346 261 319 c 1,17,-1
 263 319 l 1,18,-1
 282 312 l 1,19,-1
 283 311 l 1,20,-1
 314 304 l 1,21,-1
 316 304 l 1,22,-1
 374 300 l 1,23,-1
 396 300 l 1,24,-1
 421 301 l 1,25,-1
 422 301 l 2,26,27
 442 303 442 303 448 306 c 1,28,-1
 473 313 l 2,29,30
 500 320 500 320 520.5 332 c 128,-1,31
 541 344 541 344 556 359 c 1,32,-1
 555 359 l 1,0,1
640 494 m 2,33,34
 640 423 640 423 616 321 c 0,35,36
 593 225 593 225 563 198 c 0,37,38
 513 159 513 159 442 130 c 0,39,40
 425 124 425 124 408 119.5 c 128,-1,41
 391 115 391 115 372 110 c 2,42,-1
 338 105 l 1,43,-1
 305 103 l 2,44,45
 262 103 262 103 221 116.5 c 128,-1,46
 180 130 180 130 143 172 c 0,47,48
 103 215 103 215 103 305 c 0,49,50
 103 454 103 454 206 641 c 0,51,52
 307 823 307 823 390 823 c 0,53,54
 447 823 447 823 522 737 c 0,55,56
 596 651 596 651 635 542 c 1,57,-1
 639 516 l 1,58,-1
 640 494 l 2,33,34
EndSplineSet
EndChar

StartChar: arabicindicdigitsix
Encoding: 1638 1638 55
Width: 770
Flags: W
LayerCount: 2
Fore
SplineSet
634 -57 m 2,0,1
 632 -57 632 -57 632 -55 c 1,2,3
 635 -57 635 -57 636 -57 c 1,4,-1
 634 -57 l 2,0,1
675 150 m 2,5,6
 674 138 674 138 668 107 c 128,-1,7
 662 76 662 76 652 31 c 0,8,9
 630 -43 630 -43 632 -55 c 1,10,11
 621 -48 621 -48 602 -19.5 c 128,-1,12
 583 9 583 9 560 54 c 0,13,14
 522 129 522 129 502 210 c 128,-1,15
 482 291 482 291 482 375 c 2,16,-1
 482 474 l 2,17,18
 485 519 485 519 485.5 549 c 128,-1,19
 486 579 486 579 486 591 c 0,20,21
 487 603 487 603 489.5 625 c 128,-1,22
 492 647 492 647 495 673 c 1,23,-1
 471 698 l 1,24,25
 460 696 460 696 445.5 693 c 128,-1,26
 431 690 431 690 419 688 c 0,27,28
 415 687 415 687 410 687 c 0,29,30
 406 687 406 687 403 686 c 0,31,32
 371 681 371 681 351 678 c 128,-1,33
 331 675 331 675 312 675 c 0,34,35
 230 675 230 675 201 691 c 0,36,37
 145 714 145 714 115 766 c 1,38,-1
 117 763 l 1,39,40
 115 768 115 768 113 775.5 c 128,-1,41
 111 783 111 783 109 789 c 1,42,-1
 107 819 l 2,43,44
 107 859 107 859 133 965 c 1,45,-1
 191 928 l 2,46,47
 236 907 236 907 280.5 896 c 128,-1,48
 325 885 325 885 375 885 c 0,49,50
 406 885 406 885 450 893 c 128,-1,51
 494 901 494 901 546 915 c 1,52,-1
 548 915 l 1,53,-1
 542 885 l 1,54,-1
 542 886 l 1,55,-1
 528 808 l 2,56,57
 527 794 527 794 526 779 c 128,-1,58
 525 764 525 764 524 750 c 2,59,-1
 513 643 l 1,60,-1
 518 643 l 1,61,-1
 518 599 l 1,62,-1
 523 552 l 1,63,-1
 527 516 l 1,64,-1
 545 435 l 2,65,66
 557 388 557 388 574.5 341.5 c 128,-1,67
 592 295 592 295 615 251 c 0,68,69
 630 223 630 223 643 201.5 c 128,-1,70
 656 180 656 180 675 155 c 1,71,-1
 675 150 l 2,5,6
EndSplineSet
EndChar

StartChar: arabicindicdigitseven
Encoding: 1639 1639 56
Width: 919
Flags: W
LayerCount: 2
Fore
SplineSet
814 763 m 1,0,1
 800 749 800 749 776 715.5 c 128,-1,2
 752 682 752 682 720 628 c 0,3,4
 691 579 691 579 661.5 514.5 c 128,-1,5
 632 450 632 450 601 369 c 2,6,-1
 568 271 l 1,7,-1
 510 87 l 2,8,9
 478 -11 478 -11 466 -15 c 1,10,11
 453 -15 453 -15 428 73 c 0,12,13
 416 119 416 119 404 158.5 c 128,-1,14
 392 198 392 198 379 234 c 0,15,16
 368 267 368 267 355.5 297 c 128,-1,17
 343 327 343 327 329 355 c 2,18,-1
 289 442 l 2,19,20
 278 463 278 463 269 480.5 c 128,-1,21
 260 498 260 498 250 514 c 0,22,23
 232 546 232 546 212 576 c 128,-1,24
 192 606 192 606 170 634 c 1,25,-1
 170 635 l 1,26,-1
 119 692 l 1,27,-1
 100 710 l 1,28,-1
 126 784 l 2,29,30
 140 823 140 823 152 849.5 c 128,-1,31
 164 876 164 876 174 889 c 1,32,-1
 217 844 l 1,33,-1
 243 809 l 1,34,-1
 275 759 l 2,35,36
 286 742 286 742 296.5 721 c 128,-1,37
 307 700 307 700 320 674 c 2,38,-1
 418 438 l 1,39,-1
 479 279 l 1,40,-1
 501 279 l 1,41,-1
 544 409 l 1,42,-1
 569 484 l 1,43,-1
 598 562 l 1,44,-1
 626 633 l 1,45,-1
 655 698 l 2,46,47
 670 736 670 736 694.5 776 c 128,-1,48
 719 816 719 816 751 861 c 0,49,50
 770 887 770 887 780.5 901.5 c 128,-1,51
 791 916 791 916 796 921 c 1,52,53
 796 916 796 916 799 895 c 0,54,55
 802 875 802 875 814 763 c 1,0,1
EndSplineSet
EndChar

StartChar: arabicindicdigiteight
Encoding: 1640 1640 57
Width: 903
Flags: W
LayerCount: 2
Fore
SplineSet
793 104 m 2,0,1
 777 47 777 47 764 13.5 c 128,-1,2
 751 -20 751 -20 740 -34 c 1,3,-1
 697 13 l 2,4,5
 681 33 681 33 668 53.5 c 128,-1,6
 655 74 655 74 644 94 c 0,7,8
 637 105 637 105 625.5 127.5 c 128,-1,9
 614 150 614 150 597 186 c 2,10,-1
 558 273 l 1,11,-1
 501 417 l 1,12,-1
 441 573 l 1,13,-1
 419 573 l 1,14,-1
 394 500 l 1,15,-1
 350 382 l 1,16,-1
 315 293 l 1,17,-1
 263 171 l 2,18,19
 246 128 246 128 221.5 84 c 128,-1,20
 197 40 197 40 166 -5 c 0,21,22
 121 -70 121 -70 117 -71 c 1,23,24
 105 -62 105 -62 105 58 c 2,25,-1
 103 115 l 1,26,-1
 195 232 l 1,27,-1
 196 233 l 1,28,29
 223 281 223 281 252 343 c 128,-1,30
 281 405 281 405 313 486 c 2,31,-1
 386 703 l 2,32,33
 439 867 439 867 452 867 c 0,34,35
 469 867 469 867 495 780 c 0,36,37
 514 697 514 697 536 634 c 128,-1,38
 558 571 558 571 590 509 c 0,39,40
 625 431 625 431 655.5 372.5 c 128,-1,41
 686 314 686 314 712 276 c 2,42,-1
 806 152 l 1,43,-1
 793 104 l 2,0,1
EndSplineSet
EndChar

StartChar: arabicindicdigitnine
Encoding: 1641 1641 58
Width: 757
Flags: W
LayerCount: 2
Fore
SplineSet
420 579 m 1,0,1
 412 641 412 641 400 663 c 1,2,3
 374 739 374 739 321 752 c 1,4,-1
 317 752 l 2,5,6
 294 752 294 752 257 709 c 2,7,-1
 256 708 l 1,8,9
 225 665 225 665 225 642 c 1,10,11
 231 628 231 628 251.5 616.5 c 128,-1,12
 272 605 272 605 309 586 c 1,13,-1
 311 586 l 1,14,15
 380 562 380 562 398 562 c 2,16,-1
 400 562 l 1,17,-1
 410 564 l 1,18,-1
 420 579 l 1,0,1
660 111 m 2,19,20
 660 82 660 82 636 -5 c 0,21,22
 610 -95 610 -95 608 -97 c 1,23,24
 584 -92 584 -92 522 52 c 2,25,-1
 499 115 l 1,26,-1
 477 185 l 2,27,28
 469 217 469 217 461 258 c 128,-1,29
 453 299 453 299 445 350 c 1,30,-1
 434 360 l 1,31,-1
 419 363 l 1,32,-1
 370 369 l 2,33,34
 315 369 315 369 258 378 c 0,35,36
 201 388 201 388 154 434 c 1,37,-1
 153 434 l 1,38,39
 107 478 107 478 103 539 c 0,40,41
 103 593 103 593 126.5 657 c 128,-1,42
 150 721 150 721 198 794 c 0,43,44
 294 939 294 939 360 939 c 0,45,46
 427 939 427 939 476 842 c 0,47,48
 529 738 529 738 529 544 c 0,49,50
 529 450 529 450 544.5 368.5 c 128,-1,51
 560 287 560 287 595 217 c 0,52,53
 603 200 603 200 615 180.5 c 128,-1,54
 627 161 627 161 642 138 c 1,55,-1
 643 137 l 1,56,-1
 659 119 l 1,57,-1
 660 111 l 2,19,20
EndSplineSet
EndChar

StartChar: arabicpercentsign
Encoding: 1642 1642 59
Width: 567
Flags: W
LayerCount: 2
Fore
SplineSet
197 869 m 1,0,-1
 31 869 l 1,1,-1
 31 1049 l 1,2,-1
 197 1049 l 1,3,-1
 197 869 l 1,0,-1
520 1049 m 1,4,-1
 109 8 l 1,5,-1
 16 8 l 1,6,-1
 427 1049 l 1,7,-1
 520 1049 l 1,4,-1
508 -7 m 1,8,-1
 341 -7 l 1,9,-1
 341 172 l 1,10,-1
 508 172 l 1,11,-1
 508 -7 l 1,8,-1
EndSplineSet
EndChar

StartChar: arabicfivepointedstar
Encoding: 1645 1645 60
Width: 815
Flags: W
LayerCount: 2
Fore
SplineSet
765 1190 m 1,0,-1
 547 1029 l 1,1,-1
 629 770 l 1,2,-1
 408 928 l 1,3,-1
 187 770 l 1,4,-1
 269 1029 l 1,5,-1
 51 1190 l 1,6,-1
 322 1190 l 1,7,-1
 408 1450 l 1,8,-1
 494 1190 l 1,9,-1
 765 1190 l 1,0,-1
EndSplineSet
EndChar

StartChar: shaddawithdammatanisolated
Encoding: 64606 64606 62
Width: 482
Flags: W
LayerCount: 2
Fore
SplineSet
482 1788 m 0,0,1
 482 1779 482 1779 475 1769 c 1,2,3
 451 1775 451 1775 381 1800 c 1,4,5
 248 1730 248 1730 174 1730 c 0,6,7
 132 1730 132 1730 92 1743 c 1,8,9
 156 1777 156 1777 156 1818 c 0,10,11
 156 1872 156 1872 106 1872 c 1,12,13
 113 1872 113 1872 104 1870.5 c 128,-1,14
 95 1869 95 1869 70 1865 c 1,15,16
 94 1941 94 1941 141 1941 c 0,17,18
 166 1941 166 1941 184.5 1919 c 128,-1,19
 203 1897 203 1897 203 1865 c 0,20,21
 203 1841 203 1841 186 1792 c 1,22,23
 258 1800 258 1800 319 1837 c 1,24,25
 266 1873 266 1873 266 1915 c 0,26,27
 266 1951 266 1951 309 1988 c 0,28,29
 352 2027 352 2027 393 2027 c 0,30,31
 415 2027 415 2027 438 2003 c 0,32,33
 461 1977 461 1977 461 1953 c 0,34,35
 461 1925 461 1925 436 1874 c 1,36,37
 482 1846 482 1846 482 1788 c 0,0,1
455 1677 m 0,38,39
 455 1640 455 1640 447 1609 c 128,-1,40
 439 1578 439 1578 425 1556 c 128,-1,41
 411 1534 411 1534 391.5 1521.5 c 128,-1,42
 372 1509 372 1509 350 1509 c 0,43,44
 330 1509 330 1509 282 1532 c 2,45,-1
 278 1534 l 1,46,47
 233 1450 233 1450 174 1450 c 0,48,49
 94 1450 94 1450 94 1554 c 0,50,51
 94 1583 94 1583 117 1650 c 1,52,-1
 137 1652 l 1,53,54
 141 1552 141 1552 186 1552 c 0,55,56
 233 1552 233 1552 272 1687 c 1,57,-1
 291 1689 l 1,58,59
 307 1616 307 1616 356 1616 c 0,60,61
 407 1616 407 1616 430 1726 c 1,62,-1
 450 1726 l 1,63,64
 452 1715 452 1715 453.5 1703 c 128,-1,65
 455 1691 455 1691 455 1677 c 0,38,39
395 1941 m 0,66,67
 395 1982 395 1982 364 1982 c 0,68,69
 334 1982 334 1982 334 1958 c 256,70,71
 334 1934 334 1934 381 1902 c 1,72,73
 395 1928 395 1928 395 1941 c 0,66,67
EndSplineSet
Ligature2: "'liga' Standard Ligatures in Arabic lookup 7 subtable" shadda dammatan
AlternateSubs2: "'aalt' Access All Alternates in Latin lookup 1 subtable" shaddawithdammatanisolated shaddawithdammatanisolatedlow
EndChar

StartChar: shaddawithkasratanisolated
Encoding: 64607 64607 63
Width: 420
Flags: W
LayerCount: 2
Fore
SplineSet
420 1940 m 0,0,1
 420 1772 420 1772 316 1772 c 0,2,3
 280 1772 280 1772 252 1793 c 1,4,5
 244 1758 244 1758 213 1733 c 0,6,7
 181 1707 181 1707 148 1707 c 0,8,9
 66 1707 66 1707 66 1815 c 0,10,11
 66 1840 66 1840 88 1916 c 1,12,-1
 111 1920 l 1,13,14
 111 1809 111 1809 150 1809 c 0,15,16
 214 1809 214 1809 240 1971 c 1,17,-1
 258 1977 l 1,18,19
 281 1879 281 1879 316 1879 c 0,20,21
 374 1879 374 1879 383 2026 c 1,22,-1
 406 2036 l 1,23,24
 420 1975 420 1975 420 1940 c 0,0,1
412 1773 m 1,25,26
 397 1707 397 1707 353 1687 c 2,27,-1
 70 1560 l 1,28,29
 98 1633 98 1633 156 1659 c 2,30,-1
 412 1773 l 1,25,26
412 1656 m 1,31,32
 397 1594 397 1594 346 1572 c 2,33,-1
 70 1450 l 1,34,35
 90 1520 90 1520 142 1542 c 2,36,-1
 412 1656 l 1,31,32
EndSplineSet
Ligature2: "'liga' Standard Ligatures in Arabic lookup 7 subtable" shadda kasratan
AlternateSubs2: "'aalt' Access All Alternates in Latin lookup 1 subtable" shaddawithkasratanisolated shaddawithkasratanisolatedlow
EndChar

StartChar: shaddawithfathaisolated
Encoding: 64608 64608 64
Width: 414
Flags: W
LayerCount: 2
Fore
SplineSet
408 1845 m 1,0,1
 398 1784 398 1784 359 1769 c 2,2,-1
 64 1653 l 1,3,4
 91 1722 91 1722 150 1745 c 2,5,-1
 408 1845 l 1,0,1
414 1673 m 0,6,7
 414 1638 414 1638 406 1608.5 c 128,-1,8
 398 1579 398 1579 384 1557 c 128,-1,9
 370 1535 370 1535 350.5 1523 c 128,-1,10
 331 1511 331 1511 308 1511 c 0,11,12
 290 1511 290 1511 246 1534 c 2,13,-1
 242 1536 l 1,14,15
 204 1450 204 1450 138 1450 c 0,16,17
 60 1450 60 1450 60 1548 c 1,18,19
 60 1543 60 1543 66 1609 c 1,20,-1
 95 1628 l 1,21,22
 105 1550 105 1550 148 1550 c 0,23,24
 203 1550 203 1550 236 1683 c 1,25,-1
 258 1689 l 1,26,27
 283 1616 283 1616 316 1616 c 0,28,29
 373 1616 373 1616 381 1738 c 1,30,-1
 408 1747 l 1,31,32
 414 1714 414 1714 414 1673 c 0,6,7
EndSplineSet
Ligature2: "'liga' Standard Ligatures in Arabic lookup 7 subtable" shadda fatha
AlternateSubs2: "'aalt' Access All Alternates in Latin lookup 1 subtable" shaddawithfathaisolated shaddawithfathaisolatedlow
EndChar

StartChar: shaddawithdammaisolated
Encoding: 64609 64609 65
Width: 424
Flags: W
LayerCount: 2
Fore
SplineSet
424 1763 m 1,0,1
 381 1769 381 1769 314 1792 c 1,2,3
 192 1694 192 1694 129 1694 c 0,4,5
 107 1694 107 1694 64 1714 c 1,6,7
 130 1736 130 1736 182.5 1760 c 128,-1,8
 235 1784 235 1784 273 1812 c 1,9,10
 224 1849 224 1849 224 1896 c 0,11,12
 224 1938 224 1938 262 1979 c 0,13,14
 301 2019 301 2019 344 2019 c 0,15,16
 366 2019 366 2019 392 1995 c 0,17,18
 418 1972 418 1972 418 1952 c 0,19,20
 418 1907 418 1907 382 1864 c 1,21,22
 390 1860 390 1860 399 1854.5 c 128,-1,23
 408 1849 408 1849 417 1842 c 0,24,25
 424 1835 424 1835 424 1800 c 2,26,-1
 424 1763 l 1,0,1
418 1720 m 1,27,28
 418 1505 418 1505 310 1505 c 0,29,30
 268 1505 268 1505 240 1530 c 1,31,32
 208 1450 208 1450 136 1450 c 0,33,34
 58 1450 58 1450 58 1548 c 0,35,36
 58 1592 58 1592 80 1632 c 1,37,-1
 101 1634 l 1,38,39
 107 1552 107 1552 148 1552 c 0,40,41
 194 1552 194 1552 236 1671 c 1,42,-1
 260 1677 l 1,43,44
 272 1610 272 1610 314 1610 c 0,45,46
 370 1610 370 1610 394 1714 c 1,47,-1
 418 1720 l 1,27,28
353 1927 m 0,48,49
 353 1976 353 1976 310 1976 c 0,50,51
 285 1976 285 1976 285 1946 c 0,52,53
 285 1922 285 1922 344 1884 c 1,54,55
 353 1908 353 1908 353 1927 c 0,48,49
EndSplineSet
Ligature2: "'liga' Standard Ligatures in Arabic lookup 7 subtable" shadda damma
AlternateSubs2: "'aalt' Access All Alternates in Latin lookup 1 subtable" shaddawithdammaisolated shaddawithdammaisolatedlow
EndChar

StartChar: shaddawithkasraisolated
Encoding: 64610 64610 66
Width: 420
Flags: W
LayerCount: 2
Fore
SplineSet
420 1830 m 0,0,1
 420 1662 420 1662 316 1662 c 0,2,3
 280 1662 280 1662 252 1683 c 1,4,5
 244 1648 244 1648 213 1623 c 0,6,7
 181 1597 181 1597 148 1597 c 0,8,9
 66 1597 66 1597 66 1705 c 0,10,11
 66 1730 66 1730 88 1806 c 1,12,-1
 111 1810 l 1,13,14
 111 1699 111 1699 150 1699 c 0,15,16
 214 1699 214 1699 240 1861 c 1,17,-1
 258 1867 l 1,18,19
 281 1769 281 1769 316 1769 c 0,20,21
 374 1769 374 1769 383 1916 c 1,22,-1
 406 1926 l 1,23,24
 420 1865 420 1865 420 1830 c 0,0,1
412 1663 m 1,25,26
 397 1597 397 1597 353 1577 c 2,27,-1
 70 1450 l 1,28,29
 98 1523 98 1523 156 1549 c 2,30,-1
 412 1663 l 1,25,26
EndSplineSet
Ligature2: "'liga' Standard Ligatures in Arabic lookup 7 subtable" shadda kasra
AlternateSubs2: "'aalt' Access All Alternates in Latin lookup 1 subtable" shaddawithkasraisolated shaddawithkasraisolatedlow
EndChar

StartChar: shaddawithfathamedial
Encoding: 64754 64754 67
Width: 1284
Flags: W
LayerCount: 2
Fore
SplineSet
807 1552 m 1,0,1
 807 1486 807 1486 772 1466 c 2,2,-1
 469 1294 l 1,3,4
 472 1332 472 1332 483 1353 c 0,5,6
 495 1373 495 1373 535 1395 c 2,7,-1
 807 1552 l 1,0,1
819 1263 m 0,8,9
 819 1095 819 1095 715 1095 c 0,10,11
 679 1095 679 1095 651 1116 c 1,12,13
 643 1081 643 1081 612 1056 c 0,14,15
 580 1030 580 1030 547 1030 c 0,16,17
 465 1030 465 1030 465 1138 c 0,18,19
 465 1163 465 1163 487 1239 c 1,20,-1
 510 1243 l 1,21,22
 510 1132 510 1132 549 1132 c 0,23,24
 613 1132 613 1132 639 1294 c 1,25,-1
 657 1300 l 1,26,27
 680 1202 680 1202 715 1202 c 0,28,29
 773 1202 773 1202 782 1349 c 1,30,-1
 805 1359 l 1,31,32
 819 1298 819 1298 819 1263 c 0,8,9
1354 129 m 1,33,-1
 0 129 l 1,34,-1
 0 250 l 1,35,-1
 1354 250 l 1,36,-1
 1354 129 l 1,33,-1
EndSplineSet
Ligature2: "'liga' Standard Ligatures in Arabic lookup 6 subtable" tatweel shadda fatha
EndChar

StartChar: shaddawithdammamedial
Encoding: 64755 64755 68
Width: 1284
Flags: W
LayerCount: 2
Fore
SplineSet
813 1503 m 1,0,-1
 805 1404 l 1,1,-1
 725 1456 l 1,2,3
 605 1312 605 1312 528 1312 c 0,4,5
 509 1312 509 1312 469 1324 c 1,6,7
 571 1381 571 1381 682 1480 c 1,8,9
 621 1525 621 1525 621 1570 c 0,10,11
 621 1630 621 1630 666 1695 c 0,12,13
 696 1738 696 1738 737 1738 c 0,14,15
 805 1738 805 1738 805 1650 c 0,16,17
 805 1599 805 1599 774 1533 c 1,18,19
 787 1522 787 1522 813 1503 c 1,0,-1
819 1263 m 0,20,21
 819 1095 819 1095 715 1095 c 0,22,23
 679 1095 679 1095 651 1116 c 1,24,25
 643 1081 643 1081 612 1056 c 0,26,27
 580 1030 580 1030 547 1030 c 0,28,29
 465 1030 465 1030 465 1138 c 0,30,31
 465 1163 465 1163 487 1239 c 1,32,-1
 510 1243 l 1,33,34
 510 1132 510 1132 549 1132 c 0,35,36
 613 1132 613 1132 639 1294 c 1,37,-1
 657 1300 l 1,38,39
 680 1202 680 1202 715 1202 c 0,40,41
 773 1202 773 1202 782 1349 c 1,42,-1
 805 1359 l 1,43,44
 819 1298 819 1298 819 1263 c 0,20,21
743 1591 m 0,45,46
 743 1614 743 1614 727 1633 c 128,-1,47
 711 1652 711 1652 690 1652 c 0,48,49
 672 1652 672 1652 672 1632 c 0,50,51
 672 1601 672 1601 737 1557 c 1,52,53
 743 1576 743 1576 743 1591 c 0,45,46
1354 129 m 1,54,-1
 0 129 l 1,55,-1
 0 250 l 1,56,-1
 1354 250 l 1,57,-1
 1354 129 l 1,54,-1
EndSplineSet
Ligature2: "'liga' Standard Ligatures in Arabic lookup 6 subtable" tatweel shadda damma
EndChar

StartChar: shaddawithkasramedial
Encoding: 64756 64756 69
Width: 1284
Flags: W
LayerCount: 2
Fore
SplineSet
819 1491 m 0,0,1
 819 1323 819 1323 715 1323 c 0,2,3
 679 1323 679 1323 651 1344 c 1,4,5
 643 1309 643 1309 612 1284 c 0,6,7
 580 1258 580 1258 547 1258 c 0,8,9
 465 1258 465 1258 465 1366 c 0,10,11
 465 1391 465 1391 487 1467 c 1,12,-1
 510 1471 l 1,13,14
 510 1360 510 1360 549 1360 c 0,15,16
 613 1360 613 1360 639 1522 c 1,17,-1
 657 1528 l 1,18,19
 680 1430 680 1430 715 1430 c 0,20,21
 773 1430 773 1430 782 1577 c 1,22,-1
 805 1587 l 1,23,24
 819 1526 819 1526 819 1491 c 0,0,1
807 1288 m 1,25,26
 807 1222 807 1222 772 1202 c 2,27,-1
 469 1030 l 1,28,29
 472 1068 472 1068 483 1089 c 0,30,31
 495 1109 495 1109 535 1131 c 2,32,-1
 807 1288 l 1,25,26
1354 129 m 1,33,-1
 0 129 l 1,34,-1
 0 250 l 1,35,-1
 1354 250 l 1,36,-1
 1354 129 l 1,33,-1
EndSplineSet
Ligature2: "'liga' Standard Ligatures in Arabic lookup 6 subtable" tatweel shadda kasra
EndChar

StartChar: ornateleftparenthesis
Encoding: 64830 64830 70
Width: 1135
Flags: W
LayerCount: 2
Fore
SplineSet
1075 -612 m 0,0,1
 1075 -627 1075 -627 1051 -627 c 0,2,3
 975 -627 975 -627 822 -476 c 0,4,5
 621 -280 621 -280 508 23 c 1,6,7
 299 26 299 26 299 78 c 1,8,9
 436 222 436 222 436 301 c 1,10,11
 374 301 374 301 302.5 227.5 c 128,-1,12
 231 154 231 154 221 154 c 0,13,14
 183 154 183 154 166 317 c 1,15,16
 55 371 55 371 55 412 c 0,17,18
 55 458 55 458 160 520 c 1,19,20
 171 676 171 676 209 676 c 1,21,22
 362 532 362 532 436 532 c 1,23,24
 429 609 429 609 358 678 c 128,-1,25
 287 747 287 747 287 756 c 0,26,27
 287 772 287 772 348 791 c 0,28,29
 417 812 417 812 502 815 c 1,30,31
 574 1032 574 1032 697 1203 c 0,32,33
 792 1336 792 1336 901 1422 c 0,34,35
 988 1491 988 1491 1024 1491 c 0,36,37
 1044 1491 1044 1491 1044 1468 c 0,38,39
 1044 1458 1044 1458 971 1377 c 0,40,41
 881 1276 881 1276 824 1169 c 0,42,43
 735 1005 735 1005 705 805 c 1,44,45
 805 789 805 789 805 760 c 1,46,47
 664 618 664 618 664 539 c 1,48,49
 736 539 736 539 879 686 c 1,50,51
 897 686 897 686 916 633 c 128,-1,52
 935 580 935 580 938 522 c 1,53,54
 1044 467 1044 467 1044 422 c 0,55,56
 1044 385 1044 385 944 326 c 1,57,58
 936 166 936 166 889 166 c 1,59,-1
 821 231 l 2,60,61
 752 299 752 299 668 307 c 1,62,63
 668 236 668 236 741.5 164 c 128,-1,64
 815 92 815 92 815 80 c 0,65,66
 815 57 815 57 707 35 c 1,67,68
 739 -128 739 -128 837.5 -301.5 c 128,-1,69
 936 -475 936 -475 1055 -578 c 0,70,71
 1075 -595 1075 -595 1075 -612 c 0,0,1
956 1417 m 1,72,73
 678 1229 678 1229 528 768 c 1,74,75
 407 762 407 762 387 759 c 0,76,77
 362 755 362 755 362 743 c 1,78,-1
 401 705 l 2,79,80
 449 660 449 660 479 600 c 1,81,82
 524 682 524 682 553 682 c 0,83,84
 572 682 572 682 618 600 c 1,85,86
 628 624 628 624 683 673 c 0,87,88
 731 716 731 716 731 750 c 0,89,90
 731 760 731 760 701 766 c 2,91,-1
 655 774 l 1,92,93
 714 1018 714 1018 753 1109 c 0,94,95
 812 1247 812 1247 956 1417 c 1,72,73
989 428 m 0,96,97
 989 454 989 454 897 485 c 1,98,99
 886 612 886 612 872 612 c 0,100,101
 864 612 864 612 818 565 c 0,102,103
 766 512 766 512 713 492 c 1,104,105
 809 450 809 450 809 418 c 0,106,107
 809 385 809 385 717 350 c 1,108,109
 783 328 783 328 834 280 c 2,110,-1
 879 238 l 1,111,112
 897 238 897 238 897 354 c 1,113,114
 989 406 989 406 989 428 c 0,96,97
680 418 m 0,115,116
 680 471 680 471 642 509 c 128,-1,117
 604 547 604 547 551 547 c 0,118,119
 497 547 497 547 459.5 509 c 128,-1,120
 422 471 422 471 422 418 c 0,121,122
 422 366 422 366 459.5 329.5 c 128,-1,123
 497 293 497 293 551 293 c 0,124,125
 604 293 604 293 642 329.5 c 128,-1,126
 680 366 680 366 680 418 c 0,115,116
387 348 m 1,127,128
 293 390 293 390 293 422 c 0,129,130
 293 456 293 456 385 489 c 1,131,132
 358 498 358 498 304 553 c 0,133,134
 257 602 257 602 221 602 c 0,135,136
 203 602 203 602 203 485 c 1,137,138
 111 433 111 433 111 412 c 0,139,140
 111 387 111 387 203 354 c 1,141,142
 214 227 214 227 227 227 c 0,143,144
 235 227 235 227 282 274 c 0,145,146
 334 328 334 328 387 348 c 1,127,128
1001 -571 m 1,147,148
 888 -469 888 -469 800 -315 c 0,149,150
 694 -130 694 -130 664 68 c 1,151,152
 743 75 743 75 743 90 c 1,153,-1
 700 131 l 2,154,155
 649 178 649 178 618 240 c 1,156,157
 581 158 581 158 551 158 c 0,158,159
 511 158 511 158 483 240 c 1,160,161
 455 173 455 173 410 127 c 2,162,-1
 373 86 l 1,163,164
 373 78 373 78 465 68 c 0,165,166
 490 68 490 68 535 72 c 1,167,168
 672 -359 672 -359 1001 -571 c 1,147,148
EndSplineSet
EndChar

StartChar: ornaterightparenthesis
Encoding: 64831 64831 71
Width: 1135
Flags: W
LayerCount: 2
Fore
SplineSet
1079 453 m 0,0,1
 1079 405 1079 405 975 344 c 1,2,3
 964 188 964 188 926 188 c 1,4,5
 773 332 773 332 698 332 c 1,6,7
 706 255 706 255 777 186.5 c 128,-1,8
 848 118 848 118 848 109 c 0,9,10
 848 93 848 93 787 73 c 0,11,12
 718 52 718 52 633 49 c 1,13,14
 561 -168 561 -168 438 -339 c 0,15,16
 343 -472 343 -472 234 -558 c 0,17,18
 147 -627 147 -627 111 -627 c 0,19,20
 90 -627 90 -627 90 -606 c 0,21,22
 90 -596 90 -596 163 -514 c 0,23,24
 253 -412 253 -412 311 -306 c 0,25,26
 399 -142 399 -142 430 59 c 1,27,28
 330 76 330 76 330 104 c 1,29,30
 471 247 471 247 471 326 c 1,31,32
 398 326 398 326 256 178 c 1,33,34
 237 178 237 178 218.5 230.5 c 128,-1,35
 200 283 200 283 197 342 c 1,36,37
 90 398 90 398 90 442 c 0,38,39
 90 480 90 480 190 539 c 1,40,41
 200 698 200 698 246 698 c 1,42,-1
 314 633 l 2,43,44
 383 565 383 565 467 557 c 1,45,46
 467 629 467 629 393 701 c 128,-1,47
 319 773 319 773 319 784 c 0,48,49
 319 807 319 807 428 829 c 1,50,51
 396 993 396 993 297.5 1166 c 128,-1,52
 199 1339 199 1339 80 1442 c 0,53,54
 59 1460 59 1460 59 1475 c 0,55,56
 59 1491 59 1491 84 1491 c 0,57,58
 160 1491 160 1491 313 1341 c 0,59,60
 514 1144 514 1144 627 842 c 1,61,62
 836 839 836 839 836 786 c 1,63,64
 698 642 698 642 698 563 c 1,65,66
 760 563 760 563 832 637 c 128,-1,67
 904 711 904 711 913 711 c 0,68,69
 951 711 951 711 969 547 c 1,70,71
 1079 493 1079 493 1079 453 c 0,0,1
762 778 m 1,72,73
 762 787 762 787 670 797 c 0,74,75
 645 797 645 797 600 793 c 1,76,77
 460 1223 460 1223 133 1436 c 1,78,79
 247 1331 247 1331 335 1178 c 0,80,81
 441 993 441 993 471 797 c 1,82,83
 391 790 391 790 391 774 c 1,84,-1
 434 733 l 2,85,86
 486 687 486 687 516 625 c 1,87,88
 555 707 555 707 584 707 c 0,89,90
 624 707 624 707 651 625 c 1,91,92
 679 691 679 691 724 737 c 2,93,-1
 762 778 l 1,72,73
1024 453 m 0,94,95
 1024 476 1024 476 932 510 c 1,96,97
 921 637 921 637 907 637 c 0,98,99
 899 637 899 637 853 590 c 0,100,101
 801 536 801 536 748 516 c 1,102,103
 842 474 842 474 842 442 c 0,104,105
 842 408 842 408 750 375 c 1,106,107
 777 366 777 366 830 311 c 0,108,109
 877 262 877 262 913 262 c 0,110,111
 932 262 932 262 932 379 c 1,112,113
 1024 433 1024 433 1024 453 c 0,94,95
713 446 m 0,114,115
 713 498 713 498 675 534.5 c 128,-1,116
 637 571 637 571 584 571 c 256,117,118
 531 571 531 571 493 534.5 c 128,-1,119
 455 498 455 498 455 446 c 0,120,121
 455 393 455 393 493 355 c 128,-1,122
 531 317 531 317 584 317 c 256,123,124
 637 317 637 317 675 355 c 128,-1,125
 713 393 713 393 713 446 c 0,114,115
422 373 m 1,126,127
 326 413 326 413 326 446 c 0,128,129
 326 481 326 481 418 514 c 1,130,131
 351 536 351 536 300 584 c 2,132,-1
 256 627 l 1,133,134
 238 627 238 627 238 510 c 1,135,136
 145 458 145 458 145 436 c 0,137,138
 145 410 145 410 238 379 c 1,139,140
 249 252 249 252 262 252 c 0,141,142
 270 252 270 252 317 299 c 0,143,144
 369 353 369 353 422 373 c 1,126,127
772 121 m 1,145,-1
 733 160 l 2,146,147
 686 204 686 204 655 264 c 1,148,149
 612 182 612 182 582 182 c 0,150,151
 562 182 562 182 516 264 c 1,152,153
 494 209 494 209 446 160 c 2,154,-1
 403 115 l 1,155,156
 403 105 403 105 434 98 c 0,157,158
 456 94 456 94 479 90 c 1,159,160
 422 -153 422 -153 382 -246 c 0,161,162
 323 -382 323 -382 178 -553 c 1,163,164
 458 -364 458 -364 606 96 c 1,165,166
 727 102 727 102 749.5 105.5 c 128,-1,167
 772 109 772 109 772 121 c 1,145,-1
EndSplineSet
EndChar

StartChar: allahisolated
Encoding: 65010 65010 72
Width: 1529
Flags: W
LayerCount: 2
Fore
SplineSet
1015 1218 m 0,0,1
 1015 1100 1015 1100 990 1069 c 1,2,-1
 980 1070 l 1,3,4
 981 1083 981 1083 981.5 1095 c 128,-1,5
 982 1107 982 1107 982 1120 c 0,6,7
 982 1256 982 1256 922 1373 c 1,8,9
 932 1393 932 1393 940.5 1409 c 128,-1,10
 949 1425 949 1425 957 1437 c 1,11,12
 1015 1416 1015 1416 1015 1218 c 0,0,1
1095 952 m 2,13,14
 1095 887 1095 887 1065 875 c 0,15,16
 1050 869 1050 869 1015 869 c 0,17,18
 1005 869 1005 869 984 854 c 0,19,20
 964 840 964 840 957 840 c 0,21,22
 896 840 896 840 896 959 c 0,23,24
 896 982 896 982 910 990 c 1,25,26
 932 906 932 906 952 906 c 0,27,28
 980 906 980 906 987 949 c 0,29,30
 996 1003 996 1003 1003 1008 c 1,31,32
 1025 979 1025 979 1029 924 c 1,33,34
 1039 922 1039 922 1048 916 c 1,35,36
 1074 916 1074 916 1071 1013 c 1,37,38
 1092 1013 1092 1013 1095 991 c 2,39,-1
 1095 952 l 2,13,14
1502 774 m 2,40,41
 1497 583 1497 583 1407 384 c 0,42,43
 1295 137 1295 137 1132 137 c 0,44,45
 1036 137 1036 137 999 167 c 0,46,47
 971 189 971 189 923 286 c 1,48,49
 909 286 909 286 899 265 c 0,50,51
 859 183 859 183 764 111 c 0,52,53
 701 63 701 63 590 63 c 0,54,55
 466 63 466 63 415 142 c 0,56,57
 386 186 386 186 354 334 c 1,58,59
 190 170 190 170 47 101 c 1,60,61
 162 191 162 191 256 293.5 c 128,-1,62
 350 396 350 396 426 513 c 1,63,-1
 449 498 l 1,64,65
 449 413 449 413 533 373 c 0,66,67
 597 340 597 340 691 340 c 0,68,69
 811 340 811 340 887 410 c 0,70,71
 940 458 940 458 1007 585 c 1,72,-1
 1022 582 l 1,73,74
 1016 547 1016 547 1016 549 c 1,75,76
 1016 474 1016 474 1080 431 c 0,77,78
 1135 394 1135 394 1214 394 c 0,79,80
 1262 394 1262 394 1329 432 c 0,81,82
 1382 462 1382 462 1394 480 c 0,83,84
 1406 499 1406 499 1406 554 c 1,85,86
 1406 536 1406 536 1391 706 c 0,87,88
 1385 774 1385 774 1506 959 c 1,89,-1
 1502 774 l 2,40,41
EndSplineSet
Ligature2: "'liga' Standard Ligatures in Arabic lookup 6 subtable" laminitial lammedial hehfinal
EndChar

StartChar: fathatanisolated
Encoding: 65136 65136 73
Width: 408
Flags: W
LayerCount: 2
Fore
SplineSet
408 2054 m 1,0,1
 408 1988 408 1988 373 1968 c 2,2,-1
 70 1796 l 1,3,4
 73 1834 73 1834 84 1855 c 0,5,6
 96 1875 96 1875 136 1897 c 2,7,-1
 408 2054 l 1,0,1
408 1908 m 1,8,9
 408 1842 408 1842 373 1822 c 2,10,-1
 70 1650 l 1,11,12
 73 1688 73 1688 84 1709 c 0,13,14
 96 1729 96 1729 136 1751 c 2,15,-1
 408 1908 l 1,8,9
EndSplineSet
EndChar

StartChar: tatweelwithfathatanabove
Encoding: 65137 65137 74
Width: 1284
Flags: W
LayerCount: 2
Fore
SplineSet
811 1434 m 1,0,1
 811 1368 811 1368 776 1348 c 2,2,-1
 473 1176 l 1,3,4
 476 1214 476 1214 487 1235 c 0,5,6
 499 1255 499 1255 539 1277 c 2,7,-1
 811 1434 l 1,0,1
811 1288 m 1,8,9
 811 1222 811 1222 776 1202 c 2,10,-1
 473 1030 l 1,11,12
 476 1068 476 1068 487 1089 c 0,13,14
 499 1109 499 1109 539 1131 c 2,15,-1
 811 1288 l 1,8,9
1354 129 m 1,16,-1
 0 129 l 1,17,-1
 0 250 l 1,18,-1
 1354 250 l 1,19,-1
 1354 129 l 1,16,-1
EndSplineSet
Ligature2: "'liga' Standard Ligatures in Arabic lookup 6 subtable" tatweel fathatan
EndChar

StartChar: dammatanisolated
Encoding: 65138 65138 75
Width: 463
Flags: W
LayerCount: 2
Fore
SplineSet
463 1582 m 0,0,1
 463 1565 463 1565 462.5 1550 c 128,-1,2
 462 1535 462 1535 461 1523 c 1,3,4
 441 1534 441 1534 418 1548.5 c 128,-1,5
 395 1563 395 1563 369 1582 c 1,6,7
 243 1453 243 1453 129 1437 c 1,8,9
 172 1526 172 1526 172 1566 c 0,10,11
 172 1621 172 1621 123 1621 c 0,12,13
 81 1621 81 1621 74 1545 c 1,14,15
 64 1574 64 1574 64 1597 c 256,16,17
 64 1620 64 1620 70.5 1640 c 128,-1,18
 77 1660 77 1660 88.5 1675 c 128,-1,19
 100 1690 100 1690 115 1698.5 c 128,-1,20
 130 1707 130 1707 148 1707 c 0,21,22
 215 1707 215 1707 215 1607 c 2,23,-1
 209 1515 l 1,24,25
 274 1540 274 1540 333 1605 c 1,26,27
 267 1648 267 1648 267 1699 c 0,28,29
 267 1752 267 1752 307 1798 c 0,30,31
 347 1846 347 1846 389 1846 c 0,32,33
 411 1846 411 1846 434 1819 c 0,34,35
 457 1793 457 1793 457 1766 c 0,36,37
 457 1736 457 1736 446 1708 c 128,-1,38
 424 1652 l 1,39,40
 463 1622 463 1622 463 1582 c 0,0,1
387 1726 m 0,41,42
 387 1779 387 1779 346 1779 c 0,43,44
 320 1779 320 1779 320 1756 c 0,45,46
 320 1730 320 1730 383 1687 c 1,47,48
 387 1696 387 1696 387 1726 c 0,41,42
EndSplineSet
EndChar

StartChar: kasratanisolated
Encoding: 65140 65140 76
Width: 408
Flags: W
LayerCount: 2
Fore
SplineSet
408 -620 m 1,0,1
 408 -686 408 -686 373 -706 c 2,2,-1
 70 -878 l 1,3,4
 73 -840 73 -840 84 -818 c 1,5,6
 97 -800 97 -800 136 -777 c 2,7,-1
 408 -620 l 1,0,1
408 -767 m 1,8,9
 408 -833 408 -833 373 -853 c 2,10,-1
 70 -1025 l 1,11,12
 73 -987 73 -987 84 -965 c 1,13,14
 97 -947 97 -947 136 -924 c 2,15,-1
 408 -767 l 1,8,9
EndSplineSet
EndChar

StartChar: fathaisolated
Encoding: 65142 65142 77
Width: 408
Flags: W
LayerCount: 2
Fore
SplineSet
408 1708 m 1,0,1
 408 1642 408 1642 373 1622 c 2,2,-1
 70 1450 l 1,3,4
 73 1488 73 1488 84 1509 c 0,5,6
 96 1529 96 1529 136 1551 c 2,7,-1
 408 1708 l 1,0,1
EndSplineSet
EndChar

StartChar: fathamedial
Encoding: 65143 65143 78
Width: 1284
Flags: W
LayerCount: 2
Fore
SplineSet
811 1288 m 1,0,1
 811 1222 811 1222 776 1202 c 2,2,-1
 473 1030 l 1,3,4
 476 1068 476 1068 487 1089 c 0,5,6
 499 1109 499 1109 539 1131 c 2,7,-1
 811 1288 l 1,0,1
1354 129 m 1,8,-1
 0 129 l 1,9,-1
 0 250 l 1,10,-1
 1354 250 l 1,11,-1
 1354 129 l 1,8,-1
EndSplineSet
Ligature2: "'liga' Standard Ligatures in Arabic lookup 6 subtable" tatweel fatha
EndChar

StartChar: dammaisolated
Encoding: 65144 65144 79
Width: 414
Flags: W
LayerCount: 2
Fore
SplineSet
414 1641 m 1,0,-1
 406 1542 l 1,1,-1
 326 1594 l 1,2,3
 206 1450 206 1450 129 1450 c 0,4,5
 110 1450 110 1450 70 1462 c 1,6,7
 172 1519 172 1519 283 1618 c 1,8,9
 222 1663 222 1663 222 1708 c 0,10,11
 222 1768 222 1768 267 1833 c 0,12,13
 297 1876 297 1876 338 1876 c 0,14,15
 406 1876 406 1876 406 1788 c 0,16,17
 406 1737 406 1737 375 1671 c 1,18,19
 388 1660 388 1660 414 1641 c 1,0,-1
344 1729 m 0,20,21
 344 1752 344 1752 328 1771 c 128,-1,22
 312 1790 312 1790 291 1790 c 0,23,24
 273 1790 273 1790 273 1770 c 0,25,26
 273 1739 273 1739 338 1695 c 1,27,28
 344 1714 344 1714 344 1729 c 0,20,21
EndSplineSet
EndChar

StartChar: dammamedial
Encoding: 65145 65145 80
Width: 1284
Flags: W
LayerCount: 2
Fore
SplineSet
814 1221 m 1,0,-1
 806 1122 l 1,1,-1
 726 1174 l 1,2,3
 606 1030 606 1030 529 1030 c 0,4,5
 510 1030 510 1030 470 1042 c 1,6,7
 572 1099 572 1099 683 1198 c 1,8,9
 622 1243 622 1243 622 1288 c 0,10,11
 622 1348 622 1348 667 1413 c 0,12,13
 697 1456 697 1456 738 1456 c 0,14,15
 806 1456 806 1456 806 1368 c 0,16,17
 806 1317 806 1317 775 1251 c 1,18,19
 788 1240 788 1240 814 1221 c 1,0,-1
744 1309 m 0,20,21
 744 1332 744 1332 728 1351 c 128,-1,22
 712 1370 712 1370 691 1370 c 0,23,24
 673 1370 673 1370 673 1350 c 0,25,26
 673 1319 673 1319 738 1275 c 1,27,28
 744 1294 744 1294 744 1309 c 0,20,21
1354 129 m 1,29,-1
 0 129 l 1,30,-1
 0 250 l 1,31,-1
 1354 250 l 1,32,-1
 1354 129 l 1,29,-1
EndSplineSet
Ligature2: "'liga' Standard Ligatures in Arabic lookup 6 subtable" tatweel damma
EndChar

StartChar: kasraisolated
Encoding: 65146 65146 81
Width: 408
Flags: W
LayerCount: 2
Fore
SplineSet
408 -620 m 1,0,1
 408 -686 408 -686 373 -706 c 2,2,-1
 70 -878 l 1,3,4
 73 -840 73 -840 84 -818 c 1,5,6
 97 -800 97 -800 136 -777 c 2,7,-1
 408 -620 l 1,0,1
EndSplineSet
EndChar

StartChar: kasramedial
Encoding: 65147 65147 82
Width: 1284
Flags: W
LayerCount: 2
Fore
SplineSet
811 -71 m 1,0,1
 811 -137 811 -137 776 -157 c 2,2,-1
 473 -329 l 1,3,4
 476 -291 476 -291 487 -269 c 1,5,6
 500 -251 500 -251 539 -228 c 2,7,-1
 811 -71 l 1,0,1
1354 129 m 1,8,-1
 0 129 l 1,9,-1
 0 250 l 1,10,-1
 1354 250 l 1,11,-1
 1354 129 l 1,8,-1
EndSplineSet
Ligature2: "'liga' Standard Ligatures in Arabic lookup 6 subtable" tatweel kasra
EndChar

StartChar: shaddaisolated
Encoding: 65148 65148 83
Width: 420
Flags: W
LayerCount: 2
Fore
SplineSet
420 1683 m 0,0,1
 420 1515 420 1515 316 1515 c 0,2,3
 280 1515 280 1515 252 1536 c 1,4,5
 244 1501 244 1501 213 1476 c 0,6,7
 181 1450 181 1450 148 1450 c 0,8,9
 66 1450 66 1450 66 1558 c 0,10,11
 66 1583 66 1583 88 1659 c 1,12,-1
 111 1663 l 1,13,14
 111 1552 111 1552 150 1552 c 0,15,16
 214 1552 214 1552 240 1714 c 1,17,-1
 258 1720 l 1,18,19
 281 1622 281 1622 316 1622 c 0,20,21
 374 1622 374 1622 383 1769 c 1,22,-1
 406 1779 l 1,23,24
 420 1718 420 1718 420 1683 c 0,0,1
EndSplineSet
EndChar

StartChar: shaddamedial
Encoding: 65149 65149 84
Width: 1284
Flags: W
LayerCount: 2
Fore
SplineSet
819 1263 m 0,0,1
 819 1095 819 1095 715 1095 c 0,2,3
 679 1095 679 1095 651 1116 c 1,4,5
 643 1081 643 1081 612 1056 c 0,6,7
 580 1030 580 1030 547 1030 c 0,8,9
 465 1030 465 1030 465 1138 c 0,10,11
 465 1163 465 1163 487 1239 c 1,12,-1
 510 1243 l 1,13,14
 510 1132 510 1132 549 1132 c 0,15,16
 613 1132 613 1132 639 1294 c 1,17,-1
 657 1300 l 1,18,19
 680 1202 680 1202 715 1202 c 0,20,21
 773 1202 773 1202 782 1349 c 1,22,-1
 805 1359 l 1,23,24
 819 1298 819 1298 819 1263 c 0,0,1
1354 129 m 1,25,-1
 0 129 l 1,26,-1
 0 250 l 1,27,-1
 1354 250 l 1,28,-1
 1354 129 l 1,25,-1
EndSplineSet
Ligature2: "'liga' Standard Ligatures in Arabic lookup 6 subtable" tatweel shadda
EndChar

StartChar: sukunisolated
Encoding: 65150 65150 85
Width: 332
Flags: W
LayerCount: 2
Fore
SplineSet
332 1614 m 0,0,1
 332 1549 332 1549 286 1500 c 0,2,3
 239 1450 239 1450 181 1450 c 0,4,5
 74 1450 74 1450 74 1571 c 0,6,7
 74 1655 74 1655 112 1708 c 0,8,9
 149 1762 149 1762 211 1762 c 0,10,11
 258 1762 258 1762 295 1716 c 0,12,13
 332 1673 332 1673 332 1614 c 0,0,1
277 1590 m 0,14,15
 277 1616 277 1616 234 1647 c 0,16,17
 193 1676 193 1676 166 1676 c 0,18,19
 107 1676 107 1676 107 1608 c 0,20,21
 107 1549 107 1549 199 1549 c 0,22,23
 277 1549 277 1549 277 1590 c 0,14,15
EndSplineSet
EndChar

StartChar: sukunmedial
Encoding: 65151 65151 86
Width: 1284
Flags: W
LayerCount: 2
Fore
SplineSet
771 1194 m 0,0,1
 771 1129 771 1129 725 1080 c 0,2,3
 678 1030 678 1030 620 1030 c 0,4,5
 513 1030 513 1030 513 1151 c 0,6,7
 513 1235 513 1235 551 1288 c 0,8,9
 588 1342 588 1342 650 1342 c 0,10,11
 697 1342 697 1342 734 1296 c 0,12,13
 771 1253 771 1253 771 1194 c 0,0,1
716 1170 m 0,14,15
 716 1196 716 1196 673 1227 c 0,16,17
 632 1256 632 1256 605 1256 c 0,18,19
 546 1256 546 1256 546 1188 c 0,20,21
 546 1129 546 1129 638 1129 c 0,22,23
 716 1129 716 1129 716 1170 c 0,14,15
1354 129 m 1,24,-1
 0 129 l 1,25,-1
 0 250 l 1,26,-1
 1354 250 l 1,27,-1
 1354 129 l 1,24,-1
EndSplineSet
Ligature2: "'liga' Standard Ligatures in Arabic lookup 6 subtable" tatweel sukun
EndChar

StartChar: hamzaisolated
Encoding: 65152 65152 87
Width: 886
Flags: W
AnchorPoint: "ArabicBelow" 443 -231 basechar 0
AnchorPoint: "ArabicAbove" 443 759 basechar 0
LayerCount: 2
Fore
SplineSet
463 230 m 1,0,1
 479 237 479 237 511.5 248 c 128,-1,2
 544 259 544 259 598 276 c 1,3,4
 592 253 592 253 584 230 c 128,-1,5
 576 207 576 207 566 182 c 1,6,7
 407 147 407 147 262 51 c 0,8,9
 212 19 212 19 210 19 c 0,10,11
 186 19 186 19 186 25 c 0,12,13
 186 26 186 26 185 25 c 1,14,15
 213 83 213 83 314 158 c 1,16,-1
 315 181 l 1,17,18
 217 280 217 280 207 331 c 1,19,20
 224 380 224 380 242 412.5 c 128,-1,21
 260 445 260 445 277 462 c 0,22,23
 321 509 321 509 413 509 c 0,24,25
 468 509 468 509 498 498 c 1,26,-1
 498 408 l 1,27,28
 441 432 441 432 386 432 c 0,29,30
 322 432 322 432 275 403 c 1,31,-1
 269 384 l 1,32,33
 279 361 279 361 298.5 339 c 128,-1,34
 318 317 318 317 347 292 c 0,35,36
 375 269 375 269 401 253.5 c 128,-1,37
 427 238 427 238 451 230 c 1,38,-1
 463 230 l 1,0,1
EndSplineSet
EndChar

StartChar: alefwithmaddaaboveisolated
Encoding: 65153 65153 88
Width: 528
Flags: W
AnchorPoint: "ArabicBelow" 264 -193 basechar 0
AnchorPoint: "ArabicAbove" 264 1774 basechar 0
LayerCount: 2
Fore
SplineSet
585 1472 m 2,0,1
 542 1472 542 1472 438 1419 c 0,2,3
 335 1367 335 1367 260 1367 c 0,4,5
 220 1367 220 1367 146 1395 c 0,6,7
 62 1426 62 1426 60 1457 c 1,8,-1
 63 1459 l 1,9,10
 123 1446 123 1446 163 1440 c 128,-1,11
 203 1434 203 1434 224 1434 c 0,12,13
 293 1434 293 1434 376 1479 c 0,14,15
 458 1524 458 1524 518 1524 c 0,16,17
 618 1524 618 1524 694 1472 c 1,18,-1
 585 1472 l 2,0,1
409 1255 m 2,19,20
 409 1182 409 1182 394 1079 c 0,21,22
 387 1035 387 1035 381 992 c 128,-1,23
 375 949 375 949 368 904 c 0,24,25
 364 867 364 867 358.5 812 c 128,-1,26
 353 757 353 757 345 683 c 0,27,28
 344 679 344 679 341 626.5 c 128,-1,29
 338 574 338 574 331 471 c 0,30,31
 327 408 327 408 320 355.5 c 128,-1,32
 313 303 313 303 302 261 c 0,33,34
 296 235 296 235 231 137 c 0,35,36
 221 118 221 118 209.5 98.5 c 128,-1,37
 198 79 198 79 184 57 c 1,38,39
 192 135 192 135 198.5 210 c 128,-1,40
 205 285 205 285 211 358 c 2,41,-1
 231 597 l 1,42,-1
 252 818 l 2,43,44
 254 844 254 844 270.5 905.5 c 128,-1,45
 287 967 287 967 316 1066 c 0,46,47
 379 1271 379 1271 400 1277 c 1,48,-1
 409 1269 l 1,49,-1
 409 1255 l 2,19,20
EndSplineSet
EndChar

StartChar: alefwithmaddaabovefinal
Encoding: 65154 65154 89
Width: 371
Flags: W
AnchorPoint: "ArabicBelow" 185 -141 basechar 0
AnchorPoint: "ArabicAbove" 185 1738 basechar 0
LayerCount: 2
Fore
SplineSet
477 1436 m 2,0,1
 434 1436 434 1436 330 1383 c 0,2,3
 227 1331 227 1331 152 1331 c 0,4,5
 112 1331 112 1331 38 1359 c 0,6,7
 -46 1390 -46 1390 -48 1421 c 1,8,-1
 -45 1423 l 1,9,10
 15 1410 15 1410 55 1404 c 128,-1,11
 95 1398 95 1398 116 1398 c 0,12,13
 185 1398 185 1398 268 1443 c 0,14,15
 350 1488 350 1488 410 1488 c 0,16,17
 510 1488 510 1488 586 1436 c 1,18,-1
 477 1436 l 2,0,1
348 109 m 2,19,20
 238 109 238 109 180 182 c 0,21,22
 127 249 127 249 127 361 c 0,23,24
 127 596 127 596 145 727 c 0,25,26
 173 922 173 922 204 1061 c 128,-1,27
 235 1200 235 1200 270 1286 c 1,28,-1
 303 1282 l 1,29,30
 268 1099 268 1099 250 961.5 c 128,-1,31
 232 824 232 824 232 727 c 0,32,33
 232 328 232 328 356 328 c 2,34,-1
 428 328 l 1,35,-1
 428 109 l 1,36,-1
 348 109 l 2,19,20
EndSplineSet
EndChar

StartChar: alefwithhamzaaboveisolated
Encoding: 65155 65155 90
Width: 528
Flags: W
AnchorPoint: "ArabicBelow" 264 -169 basechar 0
AnchorPoint: "ArabicAbove" 264 1977 basechar 0
LayerCount: 2
Fore
SplineSet
415 1702 m 0,0,1
 415 1680 415 1680 375 1634 c 256,2,3
 335 1588 335 1588 335 1562 c 1,4,5
 345 1546 345 1546 356 1521.5 c 128,-1,6
 367 1497 367 1497 380 1465 c 1,7,8
 300 1256 300 1256 200 1256 c 0,9,10
 165 1256 165 1256 165 1275 c 0,11,12
 165 1285 165 1285 210 1320 c 0,13,14
 256 1354 256 1354 256 1395 c 0,15,16
 256 1399 256 1399 217 1482 c 1,17,18
 217 1522 217 1522 283 1624 c 0,19,20
 349 1727 349 1727 382 1727 c 256,21,22
 415 1727 415 1727 415 1702 c 0,0,1
409 1279 m 2,23,24
 409 1206 409 1206 394 1103 c 0,25,26
 387 1059 387 1059 381 1016 c 128,-1,27
 375 973 375 973 368 928 c 0,28,29
 364 891 364 891 358.5 836 c 128,-1,30
 353 781 353 781 345 707 c 0,31,32
 344 703 344 703 341 650.5 c 128,-1,33
 338 598 338 598 331 495 c 0,34,35
 327 432 327 432 320 379.5 c 128,-1,36
 313 327 313 327 302 285 c 0,37,38
 296 259 296 259 231 161 c 0,39,40
 221 142 221 142 209.5 122.5 c 128,-1,41
 198 103 198 103 184 81 c 1,42,-1
 179 82 l 1,43,44
 185 123 185 123 192.5 184 c 128,-1,45
 200 245 200 245 210 328 c 0,46,47
 216 428 216 428 231 621 c 0,48,49
 235 658 235 658 240 713 c 128,-1,50
 245 768 245 768 252 842 c 0,51,52
 254 868 254 868 270.5 929.5 c 128,-1,53
 287 991 287 991 316 1090 c 0,54,55
 379 1295 379 1295 400 1301 c 1,56,-1
 409 1293 l 1,57,-1
 409 1279 l 2,23,24
EndSplineSet
EndChar

StartChar: alefwithhamzaabovefinal
Encoding: 65156 65156 91
Width: 372
Flags: W
AnchorPoint: "ArabicBelow" 186 -141 basechar 0
AnchorPoint: "ArabicAbove" 186 1962 basechar 0
LayerCount: 2
Fore
SplineSet
376 1687 m 0,0,1
 376 1659 376 1659 336 1618 c 0,2,3
 297 1576 297 1576 297 1547 c 1,4,5
 305 1531 305 1531 316 1507 c 128,-1,6
 327 1483 327 1483 341 1451 c 1,7,8
 270 1241 270 1241 161 1241 c 0,9,10
 127 1241 127 1241 127 1261 c 0,11,12
 127 1271 127 1271 172 1306 c 0,13,14
 217 1340 217 1340 217 1379 c 0,15,16
 217 1397 217 1397 177 1468 c 1,17,18
 177 1505 177 1505 243 1609 c 0,19,20
 309 1712 309 1712 342 1712 c 0,21,22
 376 1712 376 1712 376 1687 c 0,0,1
348 109 m 2,23,24
 238 109 238 109 180 182 c 0,25,26
 127 249 127 249 127 361 c 0,27,28
 127 596 127 596 145 727 c 0,29,30
 173 922 173 922 204 1061 c 128,-1,31
 235 1200 235 1200 270 1286 c 1,32,-1
 303 1282 l 1,33,34
 268 1099 268 1099 250 961.5 c 128,-1,35
 232 824 232 824 232 727 c 0,36,37
 232 328 232 328 356 328 c 2,38,-1
 428 328 l 1,39,-1
 428 109 l 1,40,-1
 348 109 l 2,23,24
EndSplineSet
EndChar

StartChar: wawwithhamzaaboveisolated
Encoding: 65157 65157 92
Width: 495
Flags: W
AnchorPoint: "ArabicBelow" 247 -379 basechar 0
AnchorPoint: "ArabicAbove" 247 1500 basechar 0
LayerCount: 2
Fore
SplineSet
248 1224 m 0,0,1
 248 1191 248 1191 208 1150 c 256,2,3
 168 1109 168 1109 168 1085 c 1,4,5
 178 1069 178 1069 189 1044.5 c 128,-1,6
 200 1020 200 1020 213 988 c 1,7,8
 133 779 133 779 33 779 c 0,9,10
 -2 779 -2 779 -2 798 c 0,11,12
 -2 808 -2 808 43 843 c 0,13,14
 88 877 88 877 88 918 c 0,15,16
 88 932 88 932 71 961 c 0,17,18
 53 992 53 992 49 1005 c 1,19,20
 49 1045 49 1045 115 1147 c 0,21,22
 181 1250 181 1250 214 1250 c 0,23,24
 248 1250 248 1250 248 1224 c 0,0,1
428 554 m 0,25,26
 428 509 428 509 422 462 c 128,-1,27
 416 415 416 415 405 364 c 0,28,29
 364 188 364 188 305 109 c 0,30,31
 236 16 236 16 82 -45 c 0,32,33
 5 -77 5 -77 -144 -129 c 1,34,-1
 -146 -128 l 1,35,-1
 -155 -113 l 1,36,37
 -154 -93 -154 -93 40 62 c 0,38,39
 246 226 246 226 283 292 c 0,40,41
 320 359 320 359 320 377 c 0,42,43
 320 394 320 394 299 394 c 0,44,45
 281 394 281 394 238 386 c 256,46,47
 195 378 195 378 176 378 c 0,48,49
 61 378 61 378 61 515 c 0,50,51
 61 559 61 559 132 690 c 0,52,53
 205 826 205 826 239 826 c 0,54,55
 277 826 277 826 345 763 c 0,56,57
 428 686 428 686 428 554 c 0,25,26
EndSplineSet
EndChar

StartChar: wawwithhamzaabovefinal
Encoding: 65158 65158 93
Width: 447
Flags: W
AnchorPoint: "ArabicBelow" 223 -687 basechar 0
AnchorPoint: "ArabicAbove" 223 1276 basechar 0
LayerCount: 2
Fore
SplineSet
253 1001 m 0,0,1
 253 979 253 979 213 933 c 256,2,3
 173 887 173 887 173 861 c 1,4,5
 183 845 183 845 194 820.5 c 128,-1,6
 205 796 205 796 218 764 c 1,7,8
 147 554 147 554 38 554 c 0,9,10
 3 554 3 554 3 574 c 0,11,12
 3 584 3 584 48 619 c 0,13,14
 93 653 93 653 93 693 c 0,15,16
 93 708 93 708 55 781 c 1,17,18
 55 824 55 824 118 925 c 0,19,20
 183 1026 183 1026 219 1026 c 0,21,22
 253 1026 253 1026 253 1001 c 0,0,1
475 109 m 1,23,24
 455 110 455 110 442.5 109.5 c 128,-1,25
 430 109 430 109 426 108 c 0,26,27
 407 103 407 103 394 61 c 0,28,29
 366 -23 366 -23 320 -107 c 128,-1,30
 274 -191 274 -191 210 -278 c 1,31,32
 207 -308 207 -308 -145 -437 c 1,33,-1
 -187 -437 l 1,34,-1
 -189 -430 l 1,35,-1
 -192 -426 l 1,36,37
 -120 -372 -120 -372 -50 -320 c 128,-1,38
 20 -268 20 -268 92 -214 c 0,39,40
 313 -37 313 -37 313 74 c 1,41,42
 284 79 284 79 241 88 c 128,-1,43
 198 97 198 97 140 109 c 0,44,45
 126 112 126 112 113 120 c 128,-1,46
 100 128 100 128 90 139 c 128,-1,47
 80 150 80 150 73.5 163 c 128,-1,48
 67 176 67 176 67 190 c 1,49,50
 195 540 195 540 258 540 c 0,51,52
 324 540 324 540 368 462 c 0,53,54
 372 455 372 455 419 328 c 1,55,-1
 475 328 l 1,56,-1
 475 109 l 1,23,24
EndSplineSet
EndChar

StartChar: alefwithhamzabelowisolated
Encoding: 65159 65159 94
Width: 528
Flags: W
AnchorPoint: "ArabicBelow" 264 -649 basechar 0
AnchorPoint: "ArabicAbove" 264 1735 basechar 0
LayerCount: 2
Fore
SplineSet
421 1477 m 1,0,1
 404 1251 404 1251 387.5 1078.5 c 128,-1,2
 371 906 371 906 357 783 c 0,3,4
 352 757 352 757 347 718.5 c 128,-1,5
 342 680 342 680 335 628 c 0,6,7
 331 561 331 561 326 494 c 128,-1,8
 321 427 321 427 306 361 c 0,9,10
 300 335 300 335 289 304 c 128,-1,11
 278 273 278 273 262 238 c 0,12,13
 237 181 237 181 209 120 c 2,14,15
 204 103 204 103 188 81 c 1,16,-1
 183 82 l 1,17,18
 196 211 196 211 243 697 c 0,19,20
 264 916 264 916 264 963 c 0,21,22
 264 991 264 991 322 1207 c 0,23,24
 337 1267 337 1267 357 1334.5 c 128,-1,25
 377 1402 377 1402 402 1479 c 1,26,27
 406 1483 406 1483 412 1485 c 1,28,-1
 421 1477 l 1,0,1
402 47 m 0,29,30
 402 18 402 18 362 -22 c 0,31,32
 323 -63 323 -63 323 -92 c 1,33,34
 333 -108 333 -108 344 -132.5 c 128,-1,35
 355 -157 355 -157 368 -189 c 1,36,37
 294 -399 294 -399 187 -399 c 0,38,39
 153 -399 153 -399 153 -379 c 0,40,41
 153 -369 153 -369 198 -334 c 0,42,43
 244 -301 244 -301 244 -260 c 0,44,45
 244 -244 244 -244 224 -210 c 0,46,47
 204 -178 204 -178 204 -172 c 0,48,49
 204 -133 204 -133 269 -32 c 0,50,51
 335 72 335 72 369 72 c 0,52,53
 402 72 402 72 402 47 c 0,29,30
EndSplineSet
EndChar

StartChar: alefwithhamzabelowfinal
Encoding: 65160 65160 95
Width: 372
Flags: W
AnchorPoint: "ArabicBelow" 186 -678 basechar 0
AnchorPoint: "ArabicAbove" 186 1680 basechar 0
LayerCount: 2
Fore
SplineSet
348 109 m 2,0,1
 237 109 237 109 180 182 c 0,2,3
 127 250 127 250 127 362 c 0,4,5
 127 549 127 549 133 640 c 128,-1,6
 139 731 139 731 149.5 801 c 128,-1,7
 160 871 160 871 180 1014 c 0,8,9
 204 1177 204 1177 213 1224 c 0,10,11
 235 1347 235 1347 270 1430 c 1,12,13
 294 1430 294 1430 303 1426 c 1,14,15
 268 1209 268 1209 250 1028 c 128,-1,16
 232 847 232 847 232 697 c 0,17,18
 232 328 232 328 356 328 c 2,19,-1
 418 328 l 1,20,-1
 418 109 l 1,21,-1
 348 109 l 2,0,1
307 18 m 0,22,23
 307 -4 307 -4 267 -50 c 256,24,25
 227 -96 227 -96 227 -122 c 1,26,27
 245 -154 245 -154 272 -218 c 1,28,29
 198 -428 198 -428 91 -428 c 0,30,31
 57 -428 57 -428 57 -408 c 1,32,33
 58 -406 58 -406 114 -356 c 0,34,35
 147 -326 147 -326 147 -290 c 0,36,37
 147 -282 147 -282 108 -202 c 1,38,39
 108 -161 108 -161 172 -61 c 0,40,41
 238 43 238 43 273 43 c 0,42,43
 307 43 307 43 307 18 c 0,22,23
EndSplineSet
EndChar

StartChar: yehwithhamzaaboveisolated
Encoding: 65161 65161 96
Width: 1435
Flags: W
AnchorPoint: "ArabicBelow" 717 -687 basechar 0
AnchorPoint: "ArabicAbove" 717 1491 basechar 0
LayerCount: 2
Fore
SplineSet
359 1217 m 0,0,1
 359 1187 359 1187 319 1147 c 256,2,3
 279 1107 279 1107 279 1076 c 1,4,5
 290 1056 290 1056 301.5 1032.5 c 128,-1,6
 313 1009 313 1009 324 981 c 1,7,8
 253 771 253 771 144 771 c 0,9,10
 109 771 109 771 109 791 c 0,11,12
 109 799 109 799 154 835 c 0,13,14
 200 871 200 871 200 909 c 0,15,16
 200 922 200 922 180 956 c 0,17,18
 161 990 161 990 161 998 c 0,19,20
 161 1038 161 1038 226 1139 c 0,21,22
 292 1241 292 1241 326 1241 c 0,23,24
 359 1241 359 1241 359 1217 c 0,0,1
1399 1120 m 0,25,26
 1399 1002 1399 1002 1334 958 c 0,27,28
 1315 945 1315 945 1271.5 933 c 128,-1,29
 1228 921 1228 921 1159 908 c 0,30,31
 1137 904 1137 904 1049 814 c 0,32,33
 949 713 949 713 949 628 c 0,34,35
 949 592 949 592 1006 564 c 0,36,37
 1056 539 1056 539 1082 525 c 128,-1,38
 1108 511 1108 511 1112 509 c 0,39,40
 1169 468 1169 468 1169 401 c 0,41,42
 1169 176 1169 176 1008 -78 c 0,43,44
 841 -341 841 -341 636 -413 c 0,45,46
 567 -437 567 -437 459 -437 c 0,47,48
 309 -437 309 -437 195 -316 c 0,49,50
 82 -194 82 -194 82 -43 c 0,51,52
 82 148 82 148 146 352 c 0,53,54
 186 478 186 478 293 726 c 0,55,56
 330 811 330 811 354 811 c 0,57,58
 373 811 373 811 377 777 c 1,59,60
 354 725 354 725 331.5 674 c 128,-1,61
 309 623 309 623 286 571 c 0,62,63
 246 477 246 477 215 349 c 0,64,65
 202 298 202 298 202 238 c 0,66,67
 202 51 202 51 309 -56 c 256,68,69
 416 -163 416 -163 604 -163 c 0,70,71
 719 -163 719 -163 877 -58 c 0,72,73
 1045 54 1045 54 1045 162 c 0,74,75
 1045 200 1045 200 940 260 c 0,76,77
 836 322 836 322 836 387 c 0,78,79
 836 407 836 407 842.5 445.5 c 128,-1,80
 849 484 849 484 862 544 c 0,81,82
 930 855 930 855 1215 1100 c 0,83,84
 1301 1174 1301 1174 1341 1174 c 0,85,86
 1399 1174 1399 1174 1399 1120 c 0,25,26
EndSplineSet
EndChar

StartChar: yehwithhamzaabovefinal
Encoding: 65162 65162 97
Width: 957
Flags: W
AnchorPoint: "ArabicBelow" 478 -957 basechar 0
AnchorPoint: "ArabicAbove" 478 741 basechar 0
LayerCount: 2
Fore
SplineSet
963 120 m 1,0,1
 709 120 709 120 709 80 c 0,2,3
 709 58 709 58 745 39 c 0,4,5
 776 22 776 22 793 13 c 128,-1,6
 810 4 810 4 812 2 c 0,7,8
 848 -25 848 -25 848 -67 c 0,9,10
 848 -170 848 -170 771 -336 c 0,11,12
 697 -497 697 -497 619 -574 c 0,13,14
 568 -623 568 -623 483 -663 c 0,15,16
 389 -707 389 -707 326 -707 c 0,17,18
 183 -707 183 -707 101 -611 c 0,19,20
 24 -520 24 -520 24 -375 c 0,21,22
 24 -116 24 -116 156 48 c 0,23,24
 288 211 288 211 289 199 c 1,25,26
 184 14 184 14 182 9 c 0,27,28
 153 -51 153 -51 137 -94 c 128,-1,29
 121 -137 121 -137 117 -165 c 256,30,31
 113 -193 113 -193 111.5 -219 c 128,-1,32
 110 -245 110 -245 110 -269 c 0,33,34
 110 -365 110 -365 189 -435 c 0,35,36
 266 -503 266 -503 362 -503 c 0,37,38
 467 -503 467 -503 562 -453 c 0,39,40
 658 -404 658 -404 720 -317 c 0,41,42
 769 -252 769 -252 769 -216 c 0,43,44
 769 -202 769 -202 727 -188 c 0,45,46
 674 -170 674 -170 652 -153 c 0,47,48
 611 -120 611 -120 611 -58 c 0,49,50
 611 90 611 90 712 206 c 0,51,52
 819 328 819 328 963 328 c 1,53,-1
 963 120 l 1,0,1
271 475 m 0,54,55
 271 456 271 456 244 428 c 0,56,57
 218 400 218 400 218 381 c 1,58,59
 225 367 225 367 232.5 351.5 c 128,-1,60
 240 336 240 336 248 317 c 1,61,62
 201 177 201 177 127 177 c 0,63,64
 104 177 104 177 104 190 c 0,65,66
 104 196 104 196 134 220 c 0,67,68
 165 244 165 244 165 269 c 0,69,70
 165 279 165 279 152 301 c 256,71,72
 139 323 139 323 139 329 c 0,73,74
 139 356 139 356 182 423 c 0,75,76
 226 491 226 491 249 491 c 0,77,78
 271 491 271 491 271 475 c 0,54,55
EndSplineSet
EndChar

StartChar: yehwithhamzaaboveinitial
Encoding: 65163 65163 98
Width: 354
Flags: W
AnchorPoint: "ArabicBelow" 177 -141 basechar 0
AnchorPoint: "ArabicAbove" 177 1377 basechar 0
LayerCount: 2
Fore
SplineSet
306 1101 m 0,0,1
 306 1071 306 1071 266 1031 c 256,2,3
 226 991 226 991 226 962 c 1,4,5
 242 930 242 930 271 866 c 1,6,7
 200 656 200 656 90 656 c 0,8,9
 56 656 56 656 56 676 c 0,10,11
 56 681 56 681 101 716 c 0,12,13
 146 752 146 752 146 795 c 0,14,15
 146 799 146 799 107 882 c 1,16,17
 107 920 107 920 173 1024 c 0,18,19
 239 1127 239 1127 272 1127 c 0,20,21
 306 1127 306 1127 306 1101 c 0,0,1
378 788 m 1,22,23
 356 710 356 710 335 633 c 128,-1,24
 314 556 314 556 292 478 c 0,25,26
 237 308 237 308 136 201 c 0,27,28
 49 109 49 109 0 109 c 1,29,-1
 0 328 l 1,30,31
 130 328 130 328 172 381 c 1,32,33
 176 400 176 400 180.5 432.5 c 128,-1,34
 185 465 185 465 192 513 c 0,35,36
 199 565 199 565 264 672 c 0,37,38
 293 720 293 720 320 756.5 c 128,-1,39
 347 793 347 793 370 818 c 1,40,41
 376 809 376 809 378 788 c 1,22,23
EndSplineSet
EndChar

StartChar: yehwithhamzaabovemedial
Encoding: 65164 65164 99
Width: 571
Flags: W
AnchorPoint: "ArabicBelow" 285 -141 basechar 0
AnchorPoint: "ArabicAbove" 285 1377 basechar 0
LayerCount: 2
Fore
SplineSet
344 1101 m 0,0,1
 344 1072 344 1072 304 1032 c 0,2,3
 265 991 265 991 265 962 c 1,4,5
 273 946 273 946 284 922 c 128,-1,6
 295 898 295 898 309 866 c 1,7,8
 238 656 238 656 183.5 656 c 128,-1,9
 129 656 129 656 123 656.5 c 128,-1,10
 117 657 117 657 104 659 c 1,11,-1
 93 676 l 1,12,13
 93 689 93 689 139 720 c 0,14,15
 185 753 185 753 185 795 c 0,16,17
 185 809 185 809 145 882 c 1,18,19
 145 922 145 922 211 1024 c 0,20,21
 277 1127 277 1127 310 1127 c 0,22,23
 344 1127 344 1127 344 1101 c 0,0,1
561 109 m 2,24,25
 487 109 487 109 412 134 c 0,26,27
 317 165 317 165 292 215 c 1,28,29
 182 109 182 109 0 109 c 1,30,-1
 0 328 l 1,31,32
 13 328 13 328 28 328 c 0,33,34
 44 328 44 328 63 327 c 2,35,-1
 114 327 l 2,36,37
 192 327 192 327 226 352 c 0,38,39
 262 377 262 377 322 478 c 0,40,41
 348 523 348 523 372.5 555 c 128,-1,42
 397 587 397 587 420 607 c 1,43,-1
 431 599 l 1,44,45
 420 570 420 570 408 540 c 128,-1,46
 396 510 396 510 385 481 c 0,47,48
 359 405 359 405 363 358 c 2,49,-1
 364 344 l 2,50,51
 364 340 364 340 378 337 c 0,52,53
 415 328 415 328 559 328 c 2,54,-1
 619 328 l 1,55,-1
 619 109 l 1,56,-1
 561 109 l 2,24,25
EndSplineSet
EndChar

StartChar: alefisolated
Encoding: 65165 65165 100
Width: 528
Flags: W
AnchorPoint: "ArabicBelow" 264 -169 basechar 0
AnchorPoint: "ArabicAbove" 264 1735 basechar 0
LayerCount: 2
Fore
SplineSet
409 1477 m 1,0,1
 392 1251 392 1251 375.5 1078.5 c 128,-1,2
 359 906 359 906 345 783 c 0,3,4
 340 757 340 757 335 718.5 c 128,-1,5
 330 680 330 680 323 628 c 0,6,7
 319 561 319 561 314 494 c 128,-1,8
 309 427 309 427 294 361 c 0,9,10
 288 335 288 335 277 304 c 128,-1,11
 266 273 266 273 250 238 c 0,12,13
 225 181 225 181 197 120 c 2,14,15
 192 103 192 103 176 81 c 1,16,-1
 171 82 l 1,17,18
 184 211 184 211 231 697 c 0,19,20
 252 916 252 916 252 963 c 0,21,22
 252 991 252 991 310 1207 c 0,23,24
 325 1267 325 1267 345 1334.5 c 128,-1,25
 365 1402 365 1402 390 1479 c 1,26,27
 394 1483 394 1483 400 1485 c 1,28,-1
 409 1477 l 1,0,1
EndSplineSet
EndChar

StartChar: aleffinal
Encoding: 65166 65166 101
Width: 372
Flags: W
AnchorPoint: "ArabicBelow" 186 -141 basechar 0
AnchorPoint: "ArabicAbove" 186 1680 basechar 0
LayerCount: 2
Fore
SplineSet
348 109 m 2,0,1
 237 109 237 109 180 182 c 0,2,3
 127 250 127 250 127 362 c 0,4,5
 127 549 127 549 133 640 c 128,-1,6
 139 731 139 731 149.5 801 c 128,-1,7
 160 871 160 871 180 1014 c 0,8,9
 204 1177 204 1177 213 1224 c 0,10,11
 235 1347 235 1347 270 1430 c 1,12,13
 294 1430 294 1430 303 1426 c 1,14,15
 268 1209 268 1209 250 1028 c 128,-1,16
 232 847 232 847 232 697 c 0,17,18
 232 328 232 328 356 328 c 2,19,-1
 418 328 l 1,20,-1
 418 109 l 1,21,-1
 348 109 l 2,0,1
EndSplineSet
EndChar

StartChar: behisolated
Encoding: 65167 65167 102
Width: 1860
Flags: W
AnchorPoint: "ArabicBelow" 930 -766 basechar 0
AnchorPoint: "ArabicAbove" 930 763 basechar 0
LayerCount: 2
Fore
SplineSet
1847 488 m 1,0,1
 1849 450 1849 450 1795 361 c 2,2,-1
 1758 299 l 2,3,4
 1601 35 1601 35 1048 -64 c 0,5,6
 730 -121 730 -121 530 -121 c 0,7,8
 131 -121 131 -121 76 21 c 0,9,10
 60 60 60 60 60 159 c 0,11,12
 60 200 60 200 77 300 c 0,13,14
 101 433 101 433 133 433 c 0,15,16
 153 433 153 433 153 415 c 0,17,18
 153 405 153 405 148 377 c 0,19,20
 146 364 146 364 145 354.5 c 128,-1,21
 144 345 144 345 144 339 c 0,22,23
 144 220 144 220 301 165 c 0,24,25
 415 124 415 124 558 124 c 0,26,27
 885 124 885 124 1196 181 c 0,28,29
 1637 261 1637 261 1762 426 c 2,30,-1
 1827 512 l 1,31,-1
 1830 513 l 1,32,-1
 1839 506 l 1,33,-1
 1847 488 l 1,0,1
1111 -358 m 0,34,35
 1111 -393 1111 -393 935 -516 c 1,36,37
 873 -446 873 -446 862 -434 c 0,38,39
 800 -371 800 -371 774 -371 c 1,40,-1
 774 -358 l 1,41,-1
 956 -185 l 1,42,43
 1111 -295 1111 -295 1111 -358 c 0,34,35
EndSplineSet
EndChar

StartChar: behfinal
Encoding: 65168 65168 103
Width: 3337
Flags: W
AnchorPoint: "ArabicBelow" 1668 -729 basechar 0
AnchorPoint: "ArabicAbove" 1668 720 basechar 0
LayerCount: 2
Fore
SplineSet
3333 109 m 2,0,1
 3230 109 3230 109 3149 172 c 0,2,3
 3128 188 3128 188 3005 316 c 1,4,5
 2988 297 2988 297 2961.5 269.5 c 128,-1,6
 2935 242 2935 242 2899 207 c 0,7,8
 2625 -27 2625 -27 1747 -100 c 0,9,10
 1716 -101 1716 -101 1670 -102 c 128,-1,11
 1624 -103 1624 -103 1561 -105 c 0,12,13
 1187 -123 1187 -123 1133 -123 c 0,14,15
 939 -123 939 -123 793.5 -116 c 128,-1,16
 648 -109 648 -109 547 -95 c 0,17,18
 135 -37 135 -37 55 141 c 0,19,20
 17 227 17 227 15 361 c 1,21,22
 84 316 84 316 157 283 c 128,-1,23
 230 250 230 250 308 228 c 0,24,25
 375 209 375 209 625 162 c 0,26,27
 668 154 668 154 721 149 c 128,-1,28
 774 144 774 144 840 142 c 0,29,30
 895 141 895 141 949 140 c 128,-1,31
 1003 139 1003 139 1057 137 c 0,32,33
 1270 127 1270 127 1396.5 122.5 c 128,-1,34
 1523 118 1523 118 1566 118 c 0,35,36
 2203 118 2203 118 2601 231 c 0,37,38
 2897 315 2897 315 3038 470 c 1,39,40
 3054 451 3054 451 3088 428 c 0,41,42
 3189 356 3189 356 3233 342 c 0,43,44
 3280 328 3280 328 3400 328 c 1,45,-1
 3400 109 l 1,46,-1
 3333 109 l 2,0,1
1712 -326 m 0,47,48
 1712 -349 1712 -349 1587 -479 c 1,49,50
 1505 -438 1505 -438 1450 -386 c 1,51,52
 1458 -376 1458 -376 1488 -333.5 c 128,-1,53
 1518 -291 1518 -291 1571 -215 c 1,54,55
 1583 -220 1583 -220 1597 -224 c 1,56,57
 1712 -312 1712 -312 1712 -326 c 0,47,48
EndSplineSet
EndChar

StartChar: behinitial
Encoding: 65169 65169 104
Width: 480
Flags: W
AnchorPoint: "ArabicBelow" 240 -484 basechar 0
AnchorPoint: "ArabicAbove" 240 1068 basechar 0
LayerCount: 2
Fore
SplineSet
426 788 m 1,0,1
 404 710 404 710 383 633 c 128,-1,2
 362 556 362 556 340 478 c 0,3,4
 285 308 285 308 184 201 c 0,5,6
 95 109 95 109 48 109 c 2,7,-1
 -1 109 l 1,8,-1
 -1 328 l 1,9,10
 50 328 50 328 79 328.5 c 128,-1,11
 108 329 108 329 118 330 c 0,12,13
 187 340 187 340 220 381 c 1,14,15
 224 400 224 400 229 432.5 c 128,-1,16
 234 465 234 465 240 513 c 0,17,18
 247 565 247 565 312 672 c 0,19,20
 341 720 341 720 368 756.5 c 128,-1,21
 395 793 395 793 418 818 c 1,22,23
 424 809 424 809 426 788 c 1,0,1
374 -81 m 0,24,25
 374 -104 374 -104 248 -234 c 1,26,27
 203 -211 203 -211 168.5 -188 c 128,-1,28
 134 -165 134 -165 111 -142 c 1,29,30
 148 -91 148 -91 178.5 -48.5 c 128,-1,31
 209 -6 209 -6 233 29 c 1,32,-1
 259 21 l 1,33,34
 374 -67 374 -67 374 -81 c 0,24,25
EndSplineSet
EndChar

StartChar: behmedial
Encoding: 65170 65170 105
Width: 571
Flags: W
AnchorPoint: "ArabicBelow" 285 -414 basechar 0
AnchorPoint: "ArabicAbove" 285 857 basechar 0
LayerCount: 2
Fore
SplineSet
561 109 m 2,0,1
 487 109 487 109 412 134 c 0,2,3
 317 165 317 165 292 215 c 1,4,5
 183 111 183 111 0 109 c 1,6,-1
 0 328 l 1,7,8
 13 328 13 328 28 328 c 0,9,10
 44 328 44 328 63 327 c 2,11,-1
 114 327 l 2,12,13
 192 327 192 327 226 352 c 0,14,15
 262 377 262 377 322 478 c 0,16,17
 348 523 348 523 372.5 555 c 128,-1,18
 397 587 397 587 420 607 c 1,19,-1
 431 599 l 1,20,21
 420 570 420 570 408 540 c 128,-1,22
 396 510 396 510 385 481 c 0,23,24
 359 405 359 405 363 358 c 2,25,-1
 364 344 l 2,26,27
 364 340 364 340 375 337 c 0,28,29
 411 328 411 328 559 328 c 2,30,-1
 609 328 l 1,31,-1
 609 109 l 1,32,-1
 561 109 l 2,0,1
387 -66 m 0,33,34
 387 -78 387 -78 329 -121 c 256,35,36
 271 -164 271 -164 254 -164 c 1,37,38
 192 -102 192 -102 163 -30 c 1,39,40
 223 22 223 22 301 84 c 1,41,42
 302 73 302 73 345 10 c 0,43,44
 387 -50 387 -50 387 -66 c 0,33,34
EndSplineSet
EndChar

StartChar: tehmarbutaisolated
Encoding: 65171 65171 106
Width: 576
Flags: W
AnchorPoint: "ArabicBelow" 288 -310 basechar 0
AnchorPoint: "ArabicAbove" 288 1363 basechar 0
LayerCount: 2
Fore
SplineSet
517 1030 m 0,0,1
 517 994 517 994 456 921 c 0,2,3
 392 845 392 845 356 845 c 1,4,5
 264 898 264 898 252 898 c 0,6,7
 239 898 239 898 194 836 c 0,8,9
 150 774 150 774 116 774 c 0,10,11
 93 774 93 774 30 803 c 0,12,13
 -34 834 -34 834 -34 854 c 1,14,15
 104 1032 104 1032 122 1032 c 0,16,17
 133 1032 133 1032 183 1000 c 256,18,19
 233 968 233 968 249 968 c 0,20,21
 259 968 259 968 321 1040 c 0,22,23
 382 1113 382 1113 399 1113 c 1,24,25
 517 1052 517 1052 517 1030 c 0,0,1
499 434 m 0,26,27
 499 295 499 295 404 128 c 0,28,29
 297 -60 297 -60 169 -60 c 1,30,31
 32 -9 32 -9 32 149 c 0,32,33
 32 228 32 228 51 288 c 0,34,35
 52 290 52 290 65.5 324.5 c 128,-1,36
 79 359 79 359 105 425 c 1,37,38
 106 433 106 433 107.5 444.5 c 128,-1,39
 109 456 109 456 113 471 c 0,40,41
 127 505 127 505 140.5 539 c 128,-1,42
 154 573 154 573 168 608 c 0,43,44
 221 715 221 715 268 715 c 0,45,46
 363 715 363 715 434 620 c 0,47,48
 499 531 499 531 499 434 c 0,26,27
374 257 m 0,49,50
 374 311 374 311 321 356 c 0,51,52
 270 398 270 398 215 398 c 0,53,54
 184 398 184 398 145 335 c 0,55,56
 109 276 109 276 109 242 c 0,57,58
 109 193 109 193 147 155 c 0,59,60
 185 118 185 118 236 118 c 0,61,62
 295 118 295 118 334 158 c 0,63,64
 374 198 374 198 374 257 c 0,49,50
EndSplineSet
EndChar

StartChar: tehmarbutafinal
Encoding: 65172 65172 107
Width: 546
Flags: W
AnchorPoint: "ArabicBelow" 273 -325 basechar 0
AnchorPoint: "ArabicAbove" 273 1038 basechar 0
LayerCount: 2
Fore
SplineSet
544 700 m 0,0,1
 544 663 544 663 480 586 c 0,2,3
 412 506 412 506 375 506 c 1,4,5
 352 520 352 520 324.5 534 c 128,-1,6
 297 548 297 548 266 561 c 1,7,8
 251 561 251 561 204 496 c 256,9,10
 157 431 157 431 122 431 c 0,11,12
 99 431 99 431 33 463 c 0,13,14
 -36 496 -36 496 -36 515 c 1,15,16
 111 702 111 702 129 702 c 0,17,18
 139 702 139 702 192 668 c 0,19,20
 247 635 247 635 263 635 c 0,21,22
 277 635 277 635 338 711 c 0,23,24
 400 788 400 788 419 788 c 1,25,26
 544 729 544 729 544 700 c 0,0,1
543 109 m 2,27,28
 491 109 491 109 445 115 c 1,29,30
 443 116 443 116 428 122 c 128,-1,31
 413 128 413 128 385 140 c 0,32,33
 338 161 338 161 276 161 c 0,34,35
 168 161 168 161 44 -71 c 1,36,37
 37 -75 37 -75 27 -75 c 1,38,39
 21 -71 21 -71 14 -60 c 1,40,41
 15 -42 15 -42 22 -19.5 c 128,-1,42
 29 3 29 3 42 31 c 0,43,44
 213 393 213 393 402 393 c 0,45,46
 405 393 405 393 458 359 c 0,47,48
 511 326 511 326 581 328 c 1,49,-1
 581 109 l 1,50,-1
 543 109 l 2,27,28
EndSplineSet
EndChar

StartChar: tehisolated
Encoding: 65173 65173 108
Width: 1865
Flags: W
AnchorPoint: "ArabicBelow" 932 -371 basechar 0
AnchorPoint: "ArabicAbove" 932 1159 basechar 0
LayerCount: 2
Fore
SplineSet
1308 822 m 0,0,1
 1308 785 1308 785 1244 708 c 0,2,3
 1176 628 1176 628 1139 628 c 1,4,5
 1116 642 1116 642 1088.5 656 c 128,-1,6
 1061 670 1061 670 1030 683 c 1,7,8
 1022 683 1022 683 971 617 c 0,9,10
 921 552 921 552 886 552 c 0,11,12
 860 552 860 552 797 583 c 0,13,14
 729 616 729 616 729 636 c 1,15,16
 748 660 748 660 766 684 c 128,-1,17
 784 708 784 708 803 732 c 0,18,19
 877 824 877 824 894 824 c 1,20,21
 911 814 911 814 928 805 c 128,-1,22
 945 796 945 796 962 786 c 0,23,24
 1011 758 1011 758 1027 758 c 256,25,26
 1043 758 1043 758 1105 833 c 0,27,28
 1166 909 1166 909 1183 909 c 1,29,30
 1308 850 1308 850 1308 822 c 0,0,1
1847 488 m 1,31,32
 1849 450 1849 450 1795 361 c 2,33,-1
 1758 299 l 2,34,35
 1601 35 1601 35 1048 -64 c 0,36,37
 730 -121 730 -121 530 -121 c 0,38,39
 131 -121 131 -121 76 21 c 0,40,41
 60 60 60 60 60 159 c 0,42,43
 60 200 60 200 77 300 c 0,44,45
 101 433 101 433 133 433 c 0,46,47
 153 433 153 433 153 415 c 0,48,49
 153 405 153 405 148 377 c 0,50,51
 146 364 146 364 145 354.5 c 128,-1,52
 144 345 144 345 144 339 c 0,53,54
 144 220 144 220 301 165 c 0,55,56
 415 124 415 124 558 124 c 0,57,58
 885 124 885 124 1196 181 c 0,59,60
 1637 261 1637 261 1762 426 c 2,61,-1
 1827 512 l 1,62,-1
 1830 513 l 1,63,-1
 1839 506 l 1,64,-1
 1847 488 l 1,31,32
EndSplineSet
EndChar

StartChar: tehfinal
Encoding: 65174 65174 109
Width: 3376
Flags: W
AnchorPoint: "ArabicBelow" 1688 -373 basechar 0
AnchorPoint: "ArabicAbove" 1688 1042 basechar 0
LayerCount: 2
Fore
SplineSet
1831 705 m 0,0,1
 1831 670 1831 670 1766 591 c 0,2,3
 1698 510 1698 510 1662 510 c 1,4,5
 1639 524 1639 524 1611.5 538 c 128,-1,6
 1584 552 1584 552 1553 565 c 1,7,8
 1538 565 1538 565 1491 500 c 256,9,10
 1444 435 1444 435 1410 435 c 0,11,12
 1383 435 1383 435 1320 466 c 0,13,14
 1251 499 1251 499 1251 519 c 1,15,16
 1270 543 1270 543 1288 567 c 128,-1,17
 1306 591 1306 591 1324 614 c 0,18,19
 1399 707 1399 707 1416 707 c 1,20,21
 1541 639 1541 639 1549 639 c 0,22,23
 1563 639 1563 639 1624 715 c 0,24,25
 1686 792 1686 792 1707 792 c 1,26,27
 1831 734 1831 734 1831 705 c 0,0,1
3346 109 m 2,28,29
 3243 109 3243 109 3162 172 c 0,30,31
 3141 188 3141 188 3018 316 c 1,32,33
 3001 297 3001 297 2974.5 269.5 c 128,-1,34
 2948 242 2948 242 2912 207 c 0,35,36
 2638 -27 2638 -27 1760 -100 c 0,37,38
 1729 -101 1729 -101 1683 -102 c 128,-1,39
 1637 -103 1637 -103 1574 -105 c 0,40,41
 1200 -123 1200 -123 1146 -123 c 0,42,43
 952 -123 952 -123 806.5 -116 c 128,-1,44
 661 -109 661 -109 560 -95 c 0,45,46
 148 -37 148 -37 68 141 c 0,47,48
 30 227 30 227 28 361 c 1,49,50
 97 316 97 316 170 283 c 128,-1,51
 243 250 243 250 321 228 c 0,52,53
 388 209 388 209 638 162 c 0,54,55
 681 154 681 154 734 149 c 128,-1,56
 787 144 787 144 853 142 c 0,57,58
 908 141 908 141 962 140 c 128,-1,59
 1016 139 1016 139 1070 137 c 0,60,61
 1283 127 1283 127 1409.5 122.5 c 128,-1,62
 1536 118 1536 118 1579 118 c 0,63,64
 2216 118 2216 118 2614 231 c 0,65,66
 2910 315 2910 315 3051 470 c 1,67,68
 3067 451 3067 451 3101 428 c 0,69,70
 3202 356 3202 356 3246 342 c 0,71,72
 3293 328 3293 328 3413 328 c 1,73,-1
 3413 109 l 1,74,-1
 3346 109 l 2,28,29
EndSplineSet
EndChar

StartChar: tehinitial
Encoding: 65175 65175 110
Width: 561
Flags: W
AnchorPoint: "ArabicBelow" 280 -141 basechar 0
AnchorPoint: "ArabicAbove" 280 1376 basechar 0
LayerCount: 2
Fore
SplineSet
502 1038 m 0,0,1
 502 1004 502 1004 437 925 c 0,2,3
 369 844 369 844 333 844 c 1,4,5
 310 858 310 858 282.5 872 c 128,-1,6
 255 886 255 886 224 899 c 1,7,8
 209 899 209 899 162 834 c 256,9,10
 115 769 115 769 80 769 c 0,11,12
 58 769 58 769 -9 801 c 0,13,14
 -78 834 -78 834 -78 853 c 1,15,16
 68 1041 68 1041 87 1041 c 0,17,18
 97 1041 97 1041 150 1007 c 0,19,20
 205 974 205 974 221 974 c 0,21,22
 235 974 235 974 296 1050 c 0,23,24
 359 1126 359 1126 377 1126 c 1,25,26
 502 1067 502 1067 502 1038 c 0,0,1
426 788 m 1,27,28
 404 710 404 710 383 633 c 128,-1,29
 362 556 362 556 340 478 c 0,30,31
 285 308 285 308 184 201 c 0,32,33
 95 109 95 109 48 109 c 2,34,-1
 -1 109 l 1,35,-1
 -1 328 l 1,36,37
 50 328 50 328 79 328.5 c 128,-1,38
 108 329 108 329 118 330 c 0,39,40
 187 340 187 340 220 381 c 1,41,42
 224 400 224 400 229 432.5 c 128,-1,43
 234 465 234 465 240 513 c 0,44,45
 247 565 247 565 312 672 c 0,46,47
 341 720 341 720 368 756.5 c 128,-1,48
 395 793 395 793 418 818 c 1,49,50
 424 809 424 809 426 788 c 1,27,28
EndSplineSet
EndChar

StartChar: tehmedial
Encoding: 65176 65176 111
Width: 561
Flags: W
AnchorPoint: "ArabicBelow" 280 -141 basechar 0
AnchorPoint: "ArabicAbove" 280 1273 basechar 0
LayerCount: 2
Fore
SplineSet
571 936 m 0,0,1
 571 902 571 902 506 823 c 0,2,3
 438 742 438 742 402 742 c 1,4,5
 379 756 379 756 351.5 770 c 128,-1,6
 324 784 324 784 293 797 c 1,7,8
 282 797 282 797 236 731 c 0,9,10
 189 666 189 666 150 666 c 0,11,12
 123 666 123 666 60 697 c 0,13,14
 -9 730 -9 730 -9 750 c 1,15,16
 137 938 137 938 156 938 c 0,17,18
 163 938 163 938 219 905 c 0,19,20
 274 872 274 872 289 872 c 0,21,22
 305 872 305 872 367 947 c 0,23,24
 428 1023 428 1023 447 1023 c 1,25,26
 571 965 571 965 571 936 c 0,0,1
561 109 m 2,27,28
 487 109 487 109 412 134 c 0,29,30
 317 165 317 165 292 215 c 1,31,32
 187 116 187 116 0 109 c 1,33,-1
 0 328 l 1,34,35
 13 328 13 328 28 328 c 0,36,37
 44 328 44 328 63 327 c 2,38,-1
 114 327 l 2,39,40
 192 327 192 327 226 352 c 0,41,42
 262 377 262 377 322 478 c 0,43,44
 348 523 348 523 372.5 555 c 128,-1,45
 397 587 397 587 420 607 c 1,46,-1
 431 599 l 1,47,48
 420 570 420 570 408 540 c 128,-1,49
 396 510 396 510 385 481 c 0,50,51
 359 405 359 405 363 358 c 2,52,-1
 364 344 l 2,53,54
 364 340 364 340 375 337 c 0,55,56
 411 328 411 328 559 328 c 2,57,-1
 609 328 l 1,58,-1
 609 109 l 1,59,-1
 561 109 l 2,27,28
EndSplineSet
EndChar

StartChar: thehisolated
Encoding: 65177 65177 112
Width: 1895
Flags: W
AnchorPoint: "ArabicBelow" 947 -371 basechar 0
AnchorPoint: "ArabicAbove" 947 1441 basechar 0
LayerCount: 2
Fore
SplineSet
1139 1107 m 1,0,1
 1139 1080 1139 1080 1073 990 c 0,2,3
 1008 901 1008 901 985 901 c 256,4,5
 962 901 962 901 913 930 c 0,6,7
 862 961 862 961 862 983 c 1,8,9
 894 1033 894 1033 930.5 1084.5 c 128,-1,10
 967 1136 967 1136 1009 1191 c 1,11,12
 1032 1178 1032 1178 1064.5 1157 c 128,-1,13
 1097 1136 1097 1136 1139 1107 c 1,0,1
1308 822 m 0,14,15
 1308 785 1308 785 1244 708 c 0,16,17
 1176 628 1176 628 1139 628 c 1,18,19
 1116 642 1116 642 1088.5 656 c 128,-1,20
 1061 670 1061 670 1030 683 c 1,21,22
 1022 683 1022 683 971 617 c 0,23,24
 921 552 921 552 886 552 c 0,25,26
 860 552 860 552 797 583 c 0,27,28
 729 616 729 616 729 636 c 1,29,30
 748 660 748 660 766 684 c 128,-1,31
 784 708 784 708 803 732 c 0,32,33
 877 824 877 824 894 824 c 1,34,35
 911 814 911 814 928 805 c 128,-1,36
 945 796 945 796 962 786 c 0,37,38
 1011 758 1011 758 1027 758 c 256,39,40
 1043 758 1043 758 1105 833 c 0,41,42
 1166 909 1166 909 1183 909 c 1,43,44
 1308 850 1308 850 1308 822 c 0,14,15
1847 488 m 1,45,46
 1849 450 1849 450 1795 361 c 2,47,-1
 1758 299 l 2,48,49
 1601 35 1601 35 1048 -64 c 0,50,51
 730 -121 730 -121 530 -121 c 0,52,53
 131 -121 131 -121 76 21 c 0,54,55
 60 60 60 60 60 159 c 0,56,57
 60 200 60 200 77 300 c 0,58,59
 101 433 101 433 133 433 c 0,60,61
 153 433 153 433 153 415 c 0,62,63
 153 405 153 405 148 377 c 0,64,65
 146 364 146 364 145 354.5 c 128,-1,66
 144 345 144 345 144 339 c 0,67,68
 144 220 144 220 301 165 c 0,69,70
 415 124 415 124 558 124 c 0,71,72
 885 124 885 124 1196 181 c 0,73,74
 1637 261 1637 261 1762 426 c 2,75,-1
 1827 512 l 1,76,-1
 1830 513 l 1,77,-1
 1839 506 l 1,78,-1
 1847 488 l 1,45,46
EndSplineSet
EndChar

StartChar: thehfinal
Encoding: 65178 65178 113
Width: 3334
Flags: W
AnchorPoint: "ArabicBelow" 1667 -373 basechar 0
AnchorPoint: "ArabicAbove" 1667 1279 basechar 0
LayerCount: 2
Fore
SplineSet
1664 945 m 1,0,1
 1664 916 1664 916 1598 828 c 0,2,3
 1533 739 1533 739 1509 739 c 0,4,5
 1486 739 1486 739 1437 768 c 0,6,7
 1385 799 1385 799 1385 821 c 1,8,9
 1417 871 1417 871 1454 922.5 c 128,-1,10
 1491 974 1491 974 1533 1029 c 1,11,12
 1555 1015 1555 1015 1587.5 994.5 c 128,-1,13
 1620 974 1620 974 1664 945 c 1,0,1
1833 660 m 0,14,15
 1833 626 1833 626 1768 547 c 0,16,17
 1700 466 1700 466 1664 466 c 1,18,19
 1567 521 1567 521 1554 521 c 256,20,21
 1541 521 1541 521 1494 456 c 256,22,23
 1447 391 1447 391 1411 391 c 0,24,25
 1388 391 1388 391 1322 423 c 0,26,27
 1253 456 1253 456 1253 475 c 1,28,29
 1399 663 1399 663 1418 663 c 0,30,31
 1429 663 1429 663 1484 629 c 0,32,33
 1539 596 1539 596 1551 596 c 0,34,35
 1569 596 1569 596 1629 672 c 256,36,37
 1689 748 1689 748 1708 748 c 1,38,39
 1833 689 1833 689 1833 660 c 0,14,15
3330 109 m 2,40,41
 3227 109 3227 109 3146 172 c 0,42,43
 3125 188 3125 188 3002 316 c 1,44,45
 2985 297 2985 297 2958.5 269.5 c 128,-1,46
 2932 242 2932 242 2896 207 c 0,47,48
 2622 -27 2622 -27 1744 -100 c 0,49,50
 1713 -101 1713 -101 1667 -102 c 128,-1,51
 1621 -103 1621 -103 1558 -105 c 0,52,53
 1184 -123 1184 -123 1130 -123 c 0,54,55
 937 -123 937 -123 791.5 -116 c 128,-1,56
 646 -109 646 -109 544 -95 c 0,57,58
 132 -37 132 -37 52 141 c 0,59,60
 14 227 14 227 12 361 c 1,61,62
 141 278 141 278 300 230 c 0,63,64
 503 170 503 170 679 152 c 0,65,66
 748 144 748 144 1054 134 c 0,67,68
 1274 126 1274 126 1400 122 c 128,-1,69
 1526 118 1526 118 1563 118 c 0,70,71
 2200 118 2200 118 2598 231 c 0,72,73
 2894 315 2894 315 3035 470 c 1,74,75
 3051 451 3051 451 3085 428 c 0,76,77
 3186 356 3186 356 3230 342 c 0,78,79
 3277 328 3277 328 3397 328 c 1,80,-1
 3397 109 l 1,81,-1
 3330 109 l 2,40,41
EndSplineSet
EndChar

StartChar: thehinitial
Encoding: 65179 65179 114
Width: 504
Flags: W
AnchorPoint: "ArabicBelow" 252 -141 basechar 0
AnchorPoint: "ArabicAbove" 252 1553 basechar 0
LayerCount: 2
Fore
SplineSet
332 1227 m 1,0,1
 332 1203 332 1203 272 1122 c 0,2,3
 213 1042 213 1042 193 1042 c 0,4,5
 172 1042 172 1042 128 1068 c 0,6,7
 82 1095 82 1095 82 1116 c 1,8,9
 110 1160 110 1160 143.5 1206 c 128,-1,10
 177 1252 177 1252 215 1303 c 1,11,12
 327 1236 327 1236 332 1227 c 1,0,1
457 1021 m 0,13,14
 457 989 457 989 397 917 c 0,15,16
 338 846 338 846 304 846 c 1,17,18
 216 895 216 895 205 895 c 256,19,20
 194 895 194 895 150 836 c 0,21,22
 108 778 108 778 77 778 c 0,23,24
 53 778 53 778 -2 805 c 0,25,26
 -60 833 -60 833 -66 854 c 1,27,28
 -49 876 -49 876 -32.5 897 c 128,-1,29
 -16 918 -16 918 1 940 c 0,30,31
 68 1021 68 1021 83 1023 c 1,32,33
 113 1005 l 128,-1,34
 128 996 128 996 144 988 c 0,35,36
 187 963 187 963 202 963 c 256,37,38
 217 963 217 963 273 1031 c 0,39,40
 328 1100 328 1100 344 1100 c 1,41,42
 457 1046 457 1046 457 1021 c 0,13,14
426 788 m 1,43,44
 404 710 404 710 383 633 c 128,-1,45
 362 556 362 556 340 478 c 0,46,47
 285 308 285 308 184 201 c 0,48,49
 95 109 95 109 48 109 c 2,50,-1
 -1 109 l 1,51,-1
 -1 328 l 1,52,53
 50 328 50 328 79 328.5 c 128,-1,54
 108 329 108 329 118 330 c 0,55,56
 187 340 187 340 220 381 c 1,57,58
 224 400 224 400 229 432.5 c 128,-1,59
 234 465 234 465 240 513 c 0,60,61
 247 565 247 565 312 672 c 0,62,63
 341 720 341 720 368 756.5 c 128,-1,64
 395 793 395 793 418 818 c 1,65,66
 424 809 424 809 426 788 c 1,43,44
EndSplineSet
EndChar

StartChar: thehmedial
Encoding: 65180 65180 115
Width: 561
Flags: W
AnchorPoint: "ArabicBelow" 280 -141 basechar 0
AnchorPoint: "ArabicAbove" 280 1548 basechar 0
LayerCount: 2
Fore
SplineSet
381 1214 m 1,0,1
 381 1185 381 1185 315 1097 c 0,2,3
 250 1008 250 1008 226 1008 c 256,4,5
 202 1008 202 1008 155 1037 c 0,6,7
 104 1068 104 1068 104 1090 c 1,8,9
 136 1140 136 1140 172.5 1191.5 c 128,-1,10
 209 1243 209 1243 251 1298 c 1,11,12
 274 1285 274 1285 306.5 1264 c 128,-1,13
 339 1243 339 1243 381 1214 c 1,0,1
550 929 m 0,14,15
 550 895 550 895 485 816 c 0,16,17
 417 735 417 735 381 735 c 1,18,19
 358 749 358 749 330.5 763 c 128,-1,20
 303 777 303 777 272 790 c 1,21,22
 261 790 261 790 215 724 c 0,23,24
 168 659 168 659 129 659 c 0,25,26
 102 659 102 659 39 690 c 0,27,28
 -30 723 -30 723 -30 743 c 1,29,30
 116 931 116 931 135 931 c 0,31,32
 142 931 142 931 198 898 c 0,33,34
 253 865 253 865 268 865 c 0,35,36
 284 865 284 865 346 940 c 0,37,38
 407 1016 407 1016 426 1016 c 1,39,40
 550 958 550 958 550 929 c 0,14,15
561 109 m 2,41,42
 487 109 487 109 412 134 c 0,43,44
 317 165 317 165 292 215 c 1,45,46
 181 110 181 110 0 109 c 1,47,-1
 0 328 l 1,48,49
 13 328 13 328 28 328 c 0,50,51
 44 328 44 328 63 327 c 2,52,-1
 114 327 l 2,53,54
 192 327 192 327 226 352 c 0,55,56
 262 377 262 377 322 478 c 0,57,58
 348 523 348 523 372.5 555 c 128,-1,59
 397 587 397 587 420 607 c 1,60,-1
 431 599 l 1,61,62
 420 570 420 570 408 540 c 128,-1,63
 396 510 396 510 385 481 c 0,64,65
 359 405 359 405 363 358 c 2,66,-1
 364 344 l 2,67,68
 364 340 364 340 375 337 c 0,69,70
 411 328 411 328 559 328 c 2,71,-1
 642 328 l 1,72,-1
 642 109 l 1,73,-1
 561 109 l 2,41,42
EndSplineSet
EndChar

StartChar: jeemisolated
Encoding: 65181 65181 116
Width: 1491
Flags: W
AnchorPoint: "ArabicBelow" 745 -1024 basechar 0
AnchorPoint: "ArabicAbove" 745 1386 basechar 0
LayerCount: 2
Fore
SplineSet
948 217 m 0,0,1
 948 182 948 182 772 60 c 1,2,3
 749 88 749 88 730 109 c 128,-1,4
 711 130 711 130 696 146 c 0,5,6
 637 206 637 206 611 206 c 1,7,-1
 611 217 l 1,8,-1
 794 391 l 1,9,10
 948 276 948 276 948 217 c 0,0,1
1471 -51 m 0,11,12
 1471 -115 1471 -115 1412 -207 c 2,13,-1
 1318 -354 l 2,14,15
 1200 -540 1200 -540 973 -659 c 0,16,17
 753 -774 753 -774 528 -774 c 0,18,19
 318 -774 318 -774 157 -625 c 0,20,21
 -7 -473 -7 -473 -7 -264 c 0,22,23
 -7 -72 -7 -72 79 154 c 0,24,25
 161 373 161 373 289 526 c 0,26,27
 428 694 428 694 652 854 c 0,28,29
 744 919 744 919 744 931 c 0,30,31
 744 951 744 951 624 969 c 0,32,33
 578 976 578 976 548 979.5 c 128,-1,34
 518 983 518 983 503 983 c 0,35,36
 442 983 442 983 381 922 c 0,37,38
 379 920 379 920 356 893 c 128,-1,39
 333 866 333 866 290 815 c 1,40,41
 266 825 266 825 260 845 c 1,42,43
 422 1136 422 1136 613 1136 c 0,44,45
 707 1136 707 1136 832 1118 c 0,46,47
 1010 1093 1010 1093 1010 1050 c 0,48,49
 1010 1020 1010 1020 974 975 c 0,50,51
 943 937 943 937 914 917 c 0,52,53
 869 890 869 890 825.5 863 c 128,-1,54
 782 836 782 836 737 810 c 0,55,56
 683 778 683 778 641 748 c 128,-1,57
 599 718 599 718 567 692 c 0,58,59
 411 563 411 563 289 378 c 0,60,61
 145 160 145 160 145 -7 c 0,62,63
 145 -245 145 -245 318 -385 c 0,64,65
 479 -516 479 -516 721 -516 c 0,66,67
 864 -516 864 -516 1008 -465 c 0,68,69
 1165 -410 1165 -410 1254 -315 c 0,70,71
 1293 -273 1293 -273 1328 -207 c 0,72,73
 1354 -157 l 128,-1,74
 1367 -132 1367 -132 1381 -106 c 0,75,76
 1427 -24 1427 -24 1457 -24 c 0,77,78
 1471 -24 1471 -24 1471 -51 c 0,11,12
EndSplineSet
EndChar

StartChar: jeemfinal
Encoding: 65182 65182 117
Width: 856
Flags: W
AnchorPoint: "ArabicBelow" 428 -1237 basechar 0
AnchorPoint: "ArabicAbove" 428 580 basechar 0
LayerCount: 2
Fore
SplineSet
640 -405 m 0,0,1
 640 -425 640 -425 528 -497 c 1,2,3
 512 -480 512 -480 500.5 -468 c 128,-1,4
 489 -456 489 -456 481 -448 c 0,5,6
 443 -412 443 -412 426 -412 c 1,7,-1
 426 -405 l 1,8,-1
 542 -304 l 1,9,10
 556 -313 556 -313 571 -324.5 c 128,-1,11
 586 -336 586 -336 601 -350 c 0,12,13
 640 -386 640 -386 640 -405 c 0,0,1
1089 -461 m 256,14,15
 1089 -478 1089 -478 1084 -488 c 1,16,-1
 1082 -485 l 1,17,18
 992 -604 992 -604 944 -667 c 128,-1,19
 896 -730 896 -730 889 -738 c 0,20,21
 772 -870 772 -870 635 -930 c 0,22,23
 503 -987 503 -987 414 -987 c 0,24,25
 260 -987 260 -987 151 -906 c 0,26,27
 34 -818 34 -818 34 -679 c 0,28,29
 34 -543 34 -543 85 -414 c 0,30,31
 140 -272 140 -272 239 -185 c 0,32,33
 261 -166 261 -166 282 -147.5 c 128,-1,34
 303 -129 303 -129 324 -110 c 0,35,36
 370 -71 370 -71 417 -46 c 0,37,38
 521 10 521 10 521 18 c 0,39,40
 521 54 521 54 355 54 c 0,41,42
 333 54 333 54 299 39 c 1,43,44
 262 39 262 39 260 59 c 1,45,46
 262 66 262 66 304 118 c 0,47,48
 403 247 403 247 507 291 c 0,49,50
 598 330 598 330 863 330 c 1,51,-1
 863 116 l 1,52,53
 798 116 798 116 721 157 c 0,54,55
 644 199 644 199 551 199 c 256,56,57
 458 199 458 199 414 158 c 1,58,-1
 498 143 l 2,59,60
 556 133 l 128,-1,61
 614 123 l 0,62,63
 724 100 724 100 724 80 c 0,64,65
 724 48 724 48 643 8 c 2,66,-1
 538 -45 l 2,67,68
 474 -77 474 -77 355 -173 c 0,69,70
 255 -252 255 -252 206 -330 c 0,71,72
 149 -422 149 -422 149 -531 c 0,73,74
 149 -584 149 -584 194 -660 c 0,75,76
 245 -744 245 -744 308 -771 c 0,77,78
 371 -799 371 -799 518 -799 c 0,79,80
 671 -799 671 -799 805 -704 c 0,81,82
 893 -644 893 -644 1022 -499 c 0,83,84
 1029 -491 1029 -491 1035 -483.5 c 128,-1,85
 1041 -476 1041 -476 1048 -468 c 0,86,87
 1065 -451 1065 -451 1080 -444 c 1,88,89
 1089 -444 1089 -444 1089 -461 c 256,14,15
EndSplineSet
EndChar

StartChar: jeeminitial
Encoding: 65183 65183 118
Width: 877
Flags: W
AnchorPoint: "ArabicBelow" 438 -208 basechar 0
AnchorPoint: "ArabicAbove" 438 1105 basechar 0
LayerCount: 2
Fore
SplineSet
864 722 m 1,0,1
 851 679 851 679 792 637 c 0,2,3
 769 621 769 621 745 606 c 128,-1,4
 721 591 721 591 698 575 c 1,5,6
 688 565 688 565 672.5 551.5 c 128,-1,7
 657 538 657 538 636 519 c 0,8,9
 615 501 615 501 583 474 c 128,-1,10
 551 447 551 447 508 411 c 0,11,12
 407 326 407 326 349 278 c 128,-1,13
 291 230 291 230 275 219 c 0,14,15
 118 109 118 109 0 109 c 1,16,-1
 0 328 l 1,17,18
 187 328 187 328 318 402 c 0,19,20
 372 431 372 431 433 484.5 c 128,-1,21
 494 538 494 538 565 616 c 1,22,23
 524 652 524 652 428 689 c 0,24,25
 333 725 333 725 278 725 c 1,26,-1
 184 675 l 1,27,-1
 166 675 l 1,28,29
 165 679 165 679 164 683.5 c 128,-1,30
 163 688 163 688 161 693 c 1,31,32
 161 746 161 746 244 802 c 0,33,34
 324 855 324 855 383 855 c 0,35,36
 451 855 451 855 571 797 c 0,37,38
 694 740 694 740 769 740 c 0,39,40
 805 740 805 740 841 755 c 1,41,42
 855 744 855 744 864 722 c 1,0,1
779 190 m 0,43,44
 779 151 779 151 611 42 c 1,45,46
 495 180 495 180 459 180 c 1,47,-1
 459 190 l 1,48,-1
 632 355 l 1,49,50
 779 245 779 245 779 190 c 0,43,44
EndSplineSet
EndChar

StartChar: jeemmedial
Encoding: 65184 65184 119
Width: 944
Flags: W
AnchorPoint: "ArabicBelow" 472 -391 basechar 0
AnchorPoint: "ArabicAbove" 472 993 basechar 0
LayerCount: 2
Fore
SplineSet
941 109 m 2,0,1
 553 109 553 109 553 308 c 1,2,3
 446 176 446 176 308 136 c 0,4,5
 211 108 211 108 0 109 c 1,6,-1
 0 328 l 1,7,-1
 106 328 l 1,8,9
 111 338 111 338 119.5 352.5 c 128,-1,10
 128 367 128 367 139 387 c 2,11,-1
 232 546 l 2,12,13
 255 581 255 581 284 613 c 128,-1,14
 313 645 313 645 348 674 c 0,15,16
 430 743 430 743 463 743 c 0,17,18
 541 743 541 743 562 737 c 0,19,20
 612 721 l 128,-1,21
 637 713 637 713 663 705 c 0,22,23
 721 687 721 687 767 687 c 0,24,25
 783 687 783 687 815 696 c 0,26,27
 846 705 846 705 861 705 c 0,28,29
 882 705 882 705 895 680 c 1,30,31
 893 666 893 666 827 607 c 0,32,33
 786 573 786 573 744 536 c 0,34,35
 679 477 679 477 645 413 c 1,36,37
 645 328 645 328 982 328 c 1,38,-1
 982 109 l 1,39,-1
 941 109 l 2,0,1
686 8 m 0,40,41
 686 -26 686 -26 518 -141 c 1,42,43
 465 -80 465 -80 446 -60 c 0,44,45
 391 -2 391 -2 364 -2 c 1,46,-1
 364 8 l 1,47,-1
 539 173 l 1,48,49
 686 69 686 69 686 8 c 0,40,41
599 536 m 0,50,51
 599 550 599 550 533 573 c 0,52,53
 473 594 473 594 452 594 c 0,54,55
 414 594 414 594 371 570 c 256,56,57
 328 546 328 546 317.5 530.5 c 128,-1,58
 307 515 307 515 276.5 469 c 128,-1,59
 246 423 246 423 185 330 c 1,60,61
 193 329 193 329 203 328.5 c 128,-1,62
 213 328 213 328 224 329 c 2,63,-1
 250 330 l 2,64,65
 323 333 323 333 455 402 c 0,66,67
 599 478 599 478 599 536 c 0,50,51
EndSplineSet
EndChar

StartChar: hahisolated
Encoding: 65185 65185 120
Width: 1278
Flags: W
AnchorPoint: "ArabicBelow" 639 -1024 basechar 0
AnchorPoint: "ArabicAbove" 639 1386 basechar 0
LayerCount: 2
Fore
SplineSet
1573 -51 m 0,0,1
 1573 -115 1573 -115 1514 -207 c 2,2,-1
 1420 -354 l 2,3,4
 1302 -540 1302 -540 1075 -659 c 0,5,6
 855 -774 855 -774 630 -774 c 0,7,8
 420 -774 420 -774 259 -625 c 0,9,10
 96 -474 96 -474 96 -264 c 0,11,12
 96 -64 96 -64 180 154 c 0,13,14
 260 358 260 358 391 526 c 0,15,16
 515 684 515 684 754 854 c 0,17,18
 846 919 846 919 846 931 c 0,19,20
 846 949 846 949 726 969 c 0,21,22
 681 976 681 976 651.5 979.5 c 128,-1,23
 622 983 622 983 605 983 c 0,24,25
 544 983 544 983 483 922 c 0,26,27
 481 920 481 920 392 815 c 1,28,29
 369 824 369 824 362 845 c 1,30,31
 524 1136 524 1136 715 1136 c 0,32,33
 809 1136 809 1136 934 1118 c 0,34,35
 1112 1093 1112 1093 1112 1050 c 0,36,37
 1112 1020 1112 1020 1076 975 c 0,38,39
 1045 937 1045 937 1016 917 c 0,40,41
 958 882 958 882 901 846 c 128,-1,42
 844 810 844 810 787 775 c 0,43,44
 655 689 655 689 577 605 c 0,45,46
 247 249 247 249 247 -7 c 0,47,48
 247 -247 247 -247 419 -386 c 0,49,50
 579 -516 579 -516 823 -516 c 0,51,52
 961 -516 961 -516 1110 -464 c 0,53,54
 1279 -405 1279 -405 1356 -315 c 0,55,56
 1378 -289 1378 -289 1396 -262.5 c 128,-1,57
 1414 -236 1414 -236 1430 -207 c 0,58,59
 1456 -157 l 128,-1,60
 1469 -132 1469 -132 1483 -106 c 0,61,62
 1529 -24 1529 -24 1559 -24 c 0,63,64
 1573 -24 1573 -24 1573 -51 c 0,0,1
EndSplineSet
EndChar

StartChar: hahfinal
Encoding: 65186 65186 121
Width: 853
Flags: W
AnchorPoint: "ArabicBelow" 426 -1237 basechar 0
AnchorPoint: "ArabicAbove" 426 580 basechar 0
LayerCount: 2
Fore
SplineSet
1089 -461 m 256,0,1
 1089 -478 1089 -478 1084 -488 c 1,2,-1
 1082 -485 l 1,3,4
 992 -604 992 -604 944 -667 c 128,-1,5
 896 -730 896 -730 889 -738 c 0,6,7
 772 -870 772 -870 635 -930 c 0,8,9
 503 -987 503 -987 414 -987 c 0,10,11
 260 -987 260 -987 151 -906 c 0,12,13
 34 -818 34 -818 34 -679 c 0,14,15
 34 -543 34 -543 85 -414 c 0,16,17
 140 -272 140 -272 239 -185 c 0,18,19
 261 -166 261 -166 282 -147.5 c 128,-1,20
 303 -129 303 -129 324 -110 c 0,21,22
 370 -71 370 -71 417 -46 c 0,23,24
 521 10 521 10 521 18 c 0,25,26
 521 54 521 54 355 54 c 0,27,28
 333 54 333 54 299 39 c 1,29,30
 262 39 262 39 260 59 c 1,31,32
 262 66 262 66 304 118 c 0,33,34
 403 247 403 247 507 291 c 0,35,36
 598 330 598 330 863 330 c 1,37,-1
 863 116 l 1,38,39
 798 116 798 116 721 157 c 0,40,41
 644 199 644 199 551 199 c 256,42,43
 458 199 458 199 414 158 c 1,44,-1
 498 143 l 2,45,46
 556 133 l 128,-1,47
 614 123 l 0,48,49
 724 100 724 100 724 80 c 0,50,51
 724 48 724 48 643 8 c 2,52,-1
 538 -45 l 2,53,54
 474 -77 474 -77 355 -173 c 0,55,56
 255 -252 255 -252 206 -330 c 0,57,58
 149 -422 149 -422 149 -531 c 0,59,60
 149 -584 149 -584 194 -660 c 0,61,62
 245 -744 245 -744 308 -771 c 0,63,64
 371 -799 371 -799 518 -799 c 0,65,66
 671 -799 671 -799 805 -704 c 0,67,68
 893 -644 893 -644 1022 -499 c 0,69,70
 1029 -491 1029 -491 1035 -483.5 c 128,-1,71
 1041 -476 1041 -476 1048 -468 c 0,72,73
 1065 -451 1065 -451 1080 -444 c 1,74,75
 1089 -444 1089 -444 1089 -461 c 256,0,1
EndSplineSet
EndChar

StartChar: hahinitial
Encoding: 65187 65187 122
Width: 877
Flags: W
AnchorPoint: "ArabicBelow" 438 -141 basechar 0
AnchorPoint: "ArabicAbove" 438 1105 basechar 0
LayerCount: 2
Fore
SplineSet
864 722 m 1,0,1
 851 679 851 679 792 637 c 0,2,3
 769 621 769 621 745 606 c 128,-1,4
 721 591 721 591 698 575 c 1,5,6
 688 565 688 565 672.5 551.5 c 128,-1,7
 657 538 657 538 636 519 c 0,8,9
 615 501 615 501 583 474 c 128,-1,10
 551 447 551 447 508 411 c 0,11,12
 407 326 407 326 349 278 c 128,-1,13
 291 230 291 230 275 219 c 0,14,15
 118 109 118 109 0 109 c 1,16,-1
 0 328 l 1,17,18
 187 328 187 328 318 402 c 0,19,20
 372 431 372 431 433 484.5 c 128,-1,21
 494 538 494 538 565 616 c 1,22,23
 524 652 524 652 428 689 c 0,24,25
 333 725 333 725 278 725 c 1,26,-1
 184 675 l 1,27,-1
 166 675 l 1,28,29
 165 679 165 679 164 683.5 c 128,-1,30
 163 688 163 688 161 693 c 1,31,32
 161 746 161 746 244 802 c 0,33,34
 324 855 324 855 383 855 c 0,35,36
 451 855 451 855 571 797 c 0,37,38
 694 740 694 740 769 740 c 0,39,40
 805 740 805 740 841 755 c 1,41,42
 855 744 855 744 864 722 c 1,0,1
EndSplineSet
EndChar

StartChar: hahmedial
Encoding: 65188 65188 123
Width: 933
Flags: W
AnchorPoint: "ArabicBelow" 466 -141 basechar 0
AnchorPoint: "ArabicAbove" 466 993 basechar 0
LayerCount: 2
Fore
SplineSet
941 109 m 2,0,1
 553 109 553 109 553 308 c 1,2,3
 446 176 446 176 308 136 c 0,4,5
 211 108 211 108 0 109 c 1,6,-1
 0 328 l 1,7,-1
 106 328 l 1,8,9
 111 338 111 338 119.5 352.5 c 128,-1,10
 128 367 128 367 139 387 c 2,11,-1
 232 546 l 2,12,13
 255 581 255 581 284 613 c 128,-1,14
 313 645 313 645 348 674 c 0,15,16
 430 743 430 743 463 743 c 0,17,18
 541 743 541 743 562 737 c 0,19,20
 612 721 l 128,-1,21
 637 713 637 713 663 705 c 0,22,23
 721 687 721 687 767 687 c 0,24,25
 783 687 783 687 815 696 c 0,26,27
 846 705 846 705 861 705 c 0,28,29
 882 705 882 705 895 680 c 1,30,31
 893 666 893 666 827 607 c 0,32,33
 786 573 786 573 744 536 c 0,34,35
 679 477 679 477 645 413 c 1,36,37
 645 328 645 328 982 328 c 1,38,-1
 982 109 l 1,39,-1
 941 109 l 2,0,1
599 536 m 0,40,41
 599 550 599 550 533 573 c 0,42,43
 473 594 473 594 452 594 c 0,44,45
 414 594 414 594 371 570 c 256,46,47
 328 546 328 546 317.5 530.5 c 128,-1,48
 307 515 307 515 276.5 469 c 128,-1,49
 246 423 246 423 185 330 c 1,50,51
 193 329 193 329 203 328.5 c 128,-1,52
 213 328 213 328 224 329 c 2,53,-1
 250 330 l 2,54,55
 323 333 323 333 455 402 c 0,56,57
 599 478 599 478 599 536 c 0,40,41
EndSplineSet
EndChar

StartChar: khahisolated
Encoding: 65189 65189 124
Width: 1491
Flags: W
AnchorPoint: "ArabicBelow" 745 -1024 basechar 0
AnchorPoint: "ArabicAbove" 745 1985 basechar 0
LayerCount: 2
Fore
SplineSet
660 1561 m 0,0,1
 660 1526 660 1526 484 1404 c 1,2,3
 461 1432 461 1432 442 1453 c 128,-1,4
 423 1474 423 1474 408 1490 c 0,5,6
 349 1550 349 1550 323 1550 c 1,7,-1
 323 1561 l 1,8,-1
 506 1735 l 1,9,10
 660 1620 660 1620 660 1561 c 0,0,1
1471 -51 m 0,11,12
 1471 -115 1471 -115 1412 -207 c 2,13,-1
 1318 -354 l 2,14,15
 1200 -540 1200 -540 973 -659 c 0,16,17
 753 -774 753 -774 528 -774 c 0,18,19
 318 -774 318 -774 157 -625 c 0,20,21
 -7 -473 -7 -473 -7 -264 c 0,22,23
 -7 -72 -7 -72 79 154 c 0,24,25
 161 373 161 373 289 526 c 0,26,27
 428 694 428 694 652 854 c 0,28,29
 744 919 744 919 744 931 c 0,30,31
 744 951 744 951 624 969 c 0,32,33
 578 976 578 976 548 979.5 c 128,-1,34
 518 983 518 983 503 983 c 0,35,36
 442 983 442 983 381 922 c 0,37,38
 379 920 379 920 356 893 c 128,-1,39
 333 866 333 866 290 815 c 1,40,41
 266 825 266 825 260 845 c 1,42,43
 422 1136 422 1136 613 1136 c 0,44,45
 707 1136 707 1136 832 1118 c 0,46,47
 1010 1093 1010 1093 1010 1050 c 0,48,49
 1010 1020 1010 1020 974 975 c 0,50,51
 943 937 943 937 914 917 c 0,52,53
 869 890 869 890 825.5 863 c 128,-1,54
 782 836 782 836 737 810 c 0,55,56
 683 778 683 778 641 748 c 128,-1,57
 599 718 599 718 567 692 c 0,58,59
 411 563 411 563 289 378 c 0,60,61
 145 160 145 160 145 -7 c 0,62,63
 145 -245 145 -245 318 -385 c 0,64,65
 479 -516 479 -516 721 -516 c 0,66,67
 864 -516 864 -516 1008 -465 c 0,68,69
 1165 -410 1165 -410 1254 -315 c 0,70,71
 1293 -273 1293 -273 1328 -207 c 0,72,73
 1354 -157 l 128,-1,74
 1367 -132 1367 -132 1381 -106 c 0,75,76
 1427 -24 1427 -24 1457 -24 c 0,77,78
 1471 -24 1471 -24 1471 -51 c 0,11,12
EndSplineSet
EndChar

StartChar: khahfinal
Encoding: 65190 65190 125
Width: 853
Flags: W
AnchorPoint: "ArabicBelow" 426 -1237 basechar 0
AnchorPoint: "ArabicAbove" 426 858 basechar 0
LayerCount: 2
Fore
SplineSet
541 507 m 0,0,1
 541 487 541 487 429 415 c 1,2,3
 413 432 413 432 401.5 444 c 128,-1,4
 390 456 390 456 382 464 c 0,5,6
 344 500 344 500 327 500 c 1,7,-1
 327 507 l 1,8,-1
 443 608 l 1,9,10
 457 599 457 599 472 587.5 c 128,-1,11
 487 576 487 576 502 562 c 0,12,13
 541 526 541 526 541 507 c 0,0,1
1089 -461 m 256,14,15
 1089 -478 1089 -478 1084 -488 c 1,16,-1
 1082 -485 l 1,17,18
 992 -604 992 -604 944 -667 c 128,-1,19
 896 -730 896 -730 889 -738 c 0,20,21
 772 -870 772 -870 635 -930 c 0,22,23
 503 -987 503 -987 414 -987 c 0,24,25
 260 -987 260 -987 151 -906 c 0,26,27
 34 -818 34 -818 34 -679 c 0,28,29
 34 -543 34 -543 85 -414 c 0,30,31
 140 -272 140 -272 239 -185 c 0,32,33
 261 -166 261 -166 282 -147.5 c 128,-1,34
 303 -129 303 -129 324 -110 c 0,35,36
 370 -71 370 -71 417 -46 c 0,37,38
 521 10 521 10 521 18 c 0,39,40
 521 54 521 54 355 54 c 0,41,42
 333 54 333 54 299 39 c 1,43,44
 262 39 262 39 260 59 c 1,45,46
 262 66 262 66 304 118 c 0,47,48
 403 247 403 247 507 291 c 0,49,50
 598 330 598 330 863 330 c 1,51,-1
 863 116 l 1,52,53
 798 116 798 116 721 157 c 0,54,55
 644 199 644 199 551 199 c 256,56,57
 458 199 458 199 414 158 c 1,58,-1
 498 143 l 2,59,60
 556 133 l 128,-1,61
 614 123 l 0,62,63
 724 100 724 100 724 80 c 0,64,65
 724 48 724 48 643 8 c 2,66,-1
 538 -45 l 2,67,68
 474 -77 474 -77 355 -173 c 0,69,70
 255 -252 255 -252 206 -330 c 0,71,72
 149 -422 149 -422 149 -531 c 0,73,74
 149 -584 149 -584 194 -660 c 0,75,76
 245 -744 245 -744 308 -771 c 0,77,78
 371 -799 371 -799 518 -799 c 0,79,80
 671 -799 671 -799 805 -704 c 0,81,82
 893 -644 893 -644 1022 -499 c 0,83,84
 1029 -491 1029 -491 1035 -483.5 c 128,-1,85
 1041 -476 1041 -476 1048 -468 c 0,86,87
 1065 -451 1065 -451 1080 -444 c 1,88,89
 1089 -444 1089 -444 1089 -461 c 256,14,15
EndSplineSet
EndChar

StartChar: khahinitial
Encoding: 65191 65191 126
Width: 877
Flags: W
AnchorPoint: "ArabicBelow" 438 -141 basechar 0
AnchorPoint: "ArabicAbove" 438 1495 basechar 0
LayerCount: 2
Fore
SplineSet
484 1080 m 0,0,1
 484 1047 484 1047 317 931 c 1,2,3
 294 958 294 958 276.5 978 c 128,-1,4
 259 998 259 998 246 1011 c 0,5,6
 189 1069 189 1069 164 1069 c 1,7,-1
 164 1080 l 1,8,-1
 337 1245 l 1,9,10
 484 1147 484 1147 484 1080 c 0,0,1
864 722 m 1,11,12
 851 679 851 679 792 637 c 0,13,14
 769 621 769 621 745 606 c 128,-1,15
 721 591 721 591 698 575 c 1,16,17
 688 565 688 565 672.5 551.5 c 128,-1,18
 657 538 657 538 636 519 c 0,19,20
 615 501 615 501 583 474 c 128,-1,21
 551 447 551 447 508 411 c 0,22,23
 407 326 407 326 349 278 c 128,-1,24
 291 230 291 230 275 219 c 0,25,26
 118 109 118 109 0 109 c 1,27,-1
 0 328 l 1,28,29
 187 328 187 328 318 402 c 0,30,31
 372 431 372 431 433 484.5 c 128,-1,32
 494 538 494 538 565 616 c 1,33,34
 524 652 524 652 428 689 c 0,35,36
 333 725 333 725 278 725 c 1,37,-1
 184 675 l 1,38,-1
 166 675 l 1,39,40
 165 679 165 679 164 683.5 c 128,-1,41
 163 688 163 688 161 693 c 1,42,43
 161 746 161 746 244 802 c 0,44,45
 324 855 324 855 383 855 c 0,46,47
 451 855 451 855 571 797 c 0,48,49
 694 740 694 740 769 740 c 0,50,51
 805 740 805 740 841 755 c 1,52,53
 855 744 855 744 864 722 c 1,11,12
EndSplineSet
EndChar

StartChar: khahmedial
Encoding: 65192 65192 127
Width: 933
Flags: W
AnchorPoint: "ArabicBelow" 466 -141 basechar 0
AnchorPoint: "ArabicAbove" 466 1488 basechar 0
LayerCount: 2
Fore
SplineSet
570 1065 m 0,0,1
 570 1034 570 1034 433 924 c 1,2,3
 380 985 380 985 361 1005 c 0,4,5
 306 1063 306 1063 279 1063 c 1,6,-1
 279 1073 l 1,7,-1
 454 1238 l 1,8,9
 484 1218 484 1218 527 1158 c 0,10,11
 570 1097 570 1097 570 1065 c 0,0,1
941 109 m 2,12,13
 553 109 553 109 553 308 c 1,14,15
 446 176 446 176 308 136 c 0,16,17
 211 108 211 108 0 109 c 1,18,-1
 0 328 l 1,19,-1
 106 328 l 1,20,21
 111 338 111 338 119.5 352.5 c 128,-1,22
 128 367 128 367 139 387 c 2,23,-1
 232 546 l 2,24,25
 255 581 255 581 284 613 c 128,-1,26
 313 645 313 645 348 674 c 0,27,28
 430 743 430 743 463 743 c 0,29,30
 541 743 541 743 562 737 c 0,31,32
 612 721 l 128,-1,33
 637 713 637 713 663 705 c 0,34,35
 721 687 721 687 767 687 c 0,36,37
 783 687 783 687 815 696 c 0,38,39
 846 705 846 705 861 705 c 0,40,41
 882 705 882 705 895 680 c 1,42,43
 893 666 893 666 827 607 c 0,44,45
 786 573 786 573 744 536 c 0,46,47
 679 477 679 477 645 413 c 1,48,49
 645 328 645 328 982 328 c 1,50,-1
 982 109 l 1,51,-1
 941 109 l 2,12,13
599 536 m 0,52,53
 599 550 599 550 533 573 c 0,54,55
 473 594 473 594 452 594 c 0,56,57
 414 594 414 594 371 570 c 256,58,59
 328 546 328 546 317.5 530.5 c 128,-1,60
 307 515 307 515 276.5 469 c 128,-1,61
 246 423 246 423 185 330 c 1,62,63
 193 329 193 329 203 328.5 c 128,-1,64
 213 328 213 328 224 329 c 2,65,-1
 250 330 l 2,66,67
 323 333 323 333 455 402 c 0,68,69
 599 478 599 478 599 536 c 0,52,53
EndSplineSet
EndChar

StartChar: dalisolated
Encoding: 65193 65193 128
Width: 609
Flags: W
AnchorPoint: "ArabicBelow" 304 -319 basechar 0
AnchorPoint: "ArabicAbove" 304 1099 basechar 0
LayerCount: 2
Fore
SplineSet
526 510 m 0,0,1
 526 487 526 487 490 387 c 0,2,3
 397 128 397 128 299 45 c 0,4,5
 271 22 271 22 119 -23 c 0,6,7
 -35 -69 -35 -69 -60 -69 c 0,8,9
 -99 -69 -99 -69 -108 -43 c 1,10,11
 -38 -5 -38 -5 31.5 32 c 128,-1,12
 101 69 101 69 171 106 c 0,13,14
 358 223 358 223 358 329 c 0,15,16
 358 394 358 394 308 474 c 0,17,18
 307 476 307 476 284.5 507 c 128,-1,19
 262 538 262 538 217 599 c 1,20,21
 344 849 344 849 372 849 c 0,22,23
 382 849 382 849 421 799 c 0,24,25
 526 665 526 665 526 510 c 0,0,1
EndSplineSet
EndChar

StartChar: dalfinal
Encoding: 65194 65194 129
Width: 511
Flags: W
AnchorPoint: "ArabicBelow" 255 -244 basechar 0
AnchorPoint: "ArabicAbove" 255 1031 basechar 0
LayerCount: 2
Fore
SplineSet
499 109 m 2,0,1
 403 109 403 109 348 156 c 0,2,3
 303 195 303 195 267 293 c 1,4,5
 254 276 254 276 235.5 241.5 c 128,-1,6
 217 207 217 207 192 153 c 0,7,8
 174 114 174 114 106 84 c 0,9,10
 101 82 101 82 73.5 73 c 128,-1,11
 46 64 46 64 -3 47 c 0,12,13
 -128 6 -128 6 -134 6 c 128,-1,14
 -140 6 -140 6 -142.5 6.5 c 128,-1,15
 -145 7 -145 7 -150 8 c 1,16,-1
 -159 19 l 1,17,18
 -153 32 -153 32 -49 109 c 0,19,20
 -20 131 -20 131 10 152 c 128,-1,21
 40 173 40 173 70 195 c 0,22,23
 162 266 162 266 230 355 c 0,24,25
 271 410 271 410 315 512 c 2,26,-1
 369 656 l 2,27,28
 414 769 414 769 436 781 c 1,29,-1
 442 760 l 1,30,31
 442 706 442 706 410 605 c 0,32,33
 379 509 379 509 379 495 c 0,34,35
 379 435 379 435 408 385 c 0,36,37
 442 328 442 328 500 328 c 2,38,-1
 551 328 l 1,39,-1
 551 109 l 1,40,-1
 499 109 l 2,0,1
EndSplineSet
EndChar

StartChar: thalisolated
Encoding: 65195 65195 130
Width: 609
Flags: W
AnchorPoint: "ArabicBelow" 304 -319 basechar 0
AnchorPoint: "ArabicAbove" 304 1632 basechar 0
LayerCount: 2
Fore
SplineSet
333 1227 m 256,0,1
 333 1198 333 1198 261 1144 c 0,2,3
 217 1114 l 128,-1,4
 173 1084 l 1,5,6
 147 1114 147 1114 130.5 1133.5 c 128,-1,7
 114 1153 114 1153 106 1161 c 0,8,9
 53 1215 53 1215 29 1215 c 1,10,-1
 29 1227 l 1,11,-1
 193 1382 l 1,12,13
 213 1369 213 1369 234 1351.5 c 128,-1,14
 255 1334 255 1334 277 1312 c 0,15,16
 333 1256 333 1256 333 1227 c 256,0,1
526 510 m 0,17,18
 526 487 526 487 490 387 c 0,19,20
 397 128 397 128 299 45 c 0,21,22
 271 22 271 22 119 -23 c 0,23,24
 -35 -69 -35 -69 -60 -69 c 0,25,26
 -99 -69 -99 -69 -108 -43 c 1,27,28
 -38 -5 -38 -5 31.5 32 c 128,-1,29
 101 69 101 69 171 106 c 0,30,31
 358 223 358 223 358 329 c 0,32,33
 358 394 358 394 308 474 c 0,34,35
 307 476 307 476 284.5 507 c 128,-1,36
 262 538 262 538 217 599 c 1,37,38
 344 849 344 849 372 849 c 0,39,40
 382 849 382 849 421 799 c 0,41,42
 526 665 526 665 526 510 c 0,17,18
EndSplineSet
EndChar

StartChar: thalfinal
Encoding: 65196 65196 131
Width: 511
Flags: W
AnchorPoint: "ArabicBelow" 255 -244 basechar 0
AnchorPoint: "ArabicAbove" 255 1587 basechar 0
LayerCount: 2
Fore
SplineSet
709 1163 m 0,0,1
 709 1129 709 1129 631 1071 c 0,2,3
 581 1039 l 128,-1,4
 556 1023 556 1023 531 1006 c 1,5,6
 475 1069 475 1069 456 1090 c 0,7,8
 398 1151 398 1151 372 1151 c 1,9,-1
 372 1163 l 1,10,-1
 553 1337 l 1,11,12
 709 1223 709 1223 709 1163 c 0,0,1
499 109 m 2,13,14
 403 109 403 109 348 156 c 0,15,16
 303 195 303 195 267 293 c 1,17,18
 254 276 254 276 235.5 241.5 c 128,-1,19
 217 207 217 207 192 153 c 0,20,21
 174 114 174 114 106 84 c 0,22,23
 101 82 101 82 73.5 73 c 128,-1,24
 46 64 46 64 -3 47 c 0,25,26
 -128 6 -128 6 -134 6 c 128,-1,27
 -140 6 -140 6 -142.5 6.5 c 128,-1,28
 -145 7 -145 7 -150 8 c 1,29,-1
 -159 19 l 1,30,31
 -153 32 -153 32 -49 109 c 0,32,33
 -20 131 -20 131 10 152 c 128,-1,34
 40 173 40 173 70 195 c 0,35,36
 162 266 162 266 230 355 c 0,37,38
 271 410 271 410 315 512 c 2,39,-1
 369 656 l 2,40,41
 414 769 414 769 436 781 c 1,42,-1
 442 760 l 1,43,44
 442 706 442 706 410 605 c 0,45,46
 379 509 379 509 379 495 c 0,47,48
 379 435 379 435 408 385 c 0,49,50
 442 328 442 328 500 328 c 2,51,-1
 551 328 l 1,52,-1
 551 109 l 1,53,-1
 499 109 l 2,13,14
EndSplineSet
EndChar

StartChar: rehisolated
Encoding: 65197 65197 132
Width: 454
Flags: W
AnchorPoint: "ArabicBelow" 227 -300 basechar 0
AnchorPoint: "ArabicAbove" 227 1144 basechar 0
LayerCount: 2
Fore
SplineSet
432 834 m 2,0,1
 432 642 432 642 308 340 c 0,2,3
 291 298 291 298 279.5 270.5 c 128,-1,4
 268 243 268 243 261 230 c 0,5,6
 232 167 232 167 199 128 c 0,7,8
 161 83 161 83 100 56 c 0,9,10
 92 52 92 52 62 42 c 128,-1,11
 32 32 32 32 -19 15 c 0,12,13
 -219 -50 -219 -50 -253 -50 c 0,14,15
 -274 -50 -274 -50 -281 -32 c 1,16,17
 -279 -8 -279 -8 -159 71 c 2,18,-1
 -12 167 l 2,19,20
 69 228 69 228 130 292 c 0,21,22
 213 380 213 380 266 497 c 0,23,24
 283 536 283 536 302 595 c 128,-1,25
 321 654 321 654 343 734 c 0,26,27
 346 745 346 745 364 784.5 c 128,-1,28
 382 824 382 824 414 894 c 1,29,-1
 432 894 l 1,30,-1
 432 834 l 2,0,1
EndSplineSet
EndChar

StartChar: rehfinal
Encoding: 65198 65198 133
Width: 989
Flags: W
AnchorPoint: "ArabicBelow" 494 -939 basechar 0
AnchorPoint: "ArabicAbove" 494 578 basechar 0
LayerCount: 2
Fore
SplineSet
1032 109 m 1,0,1
 792 109 792 109 684 62 c 0,2,3
 604 26 604 26 508 -67 c 0,4,5
 470 -107 470 -107 432.5 -146.5 c 128,-1,6
 395 -186 395 -186 357 -226 c 0,7,8
 69 -527 69 -527 -142 -617 c 0,9,10
 -184 -634 -184 -634 -305 -668 c 0,11,12
 -382 -689 -382 -689 -399 -689 c 0,13,14
 -403 -689 -403 -689 -412 -683 c 1,15,-1
 -416 -674 l 1,16,17
 -397 -658 -397 -658 -285 -596 c 0,18,19
 -216 -558 -216 -558 -152.5 -517.5 c 128,-1,20
 -89 -477 -89 -477 -30 -433 c 0,21,22
 184 -274 184 -274 310 -135 c 0,23,24
 364 -75 364 -75 416 -15 c 128,-1,25
 468 45 468 45 522 105 c 0,26,27
 629 218 629 218 731 268 c 0,28,29
 855 328 855 328 1032 328 c 1,30,-1
 1032 109 l 1,0,1
EndSplineSet
EndChar

StartChar: zainisolated
Encoding: 65199 65199 134
Width: 469
Flags: W
AnchorPoint: "ArabicBelow" 234 -300 basechar 0
AnchorPoint: "ArabicAbove" 234 1554 basechar 0
LayerCount: 2
Fore
SplineSet
486 1113 m 0,0,1
 486 1074 486 1074 293 941 c 1,2,3
 230 1013 230 1013 209 1034 c 0,4,5
 145 1101 145 1101 116 1101 c 1,6,-1
 116 1113 l 1,7,-1
 317 1304 l 1,8,9
 486 1180 486 1180 486 1113 c 0,0,1
432 834 m 2,10,11
 432 642 432 642 308 340 c 0,12,13
 291 298 291 298 279.5 270.5 c 128,-1,14
 268 243 268 243 261 230 c 0,15,16
 232 167 232 167 199 128 c 0,17,18
 161 83 161 83 100 56 c 0,19,20
 92 52 92 52 62 42 c 128,-1,21
 32 32 32 32 -19 15 c 0,22,23
 -219 -50 -219 -50 -253 -50 c 0,24,25
 -274 -50 -274 -50 -281 -32 c 1,26,27
 -279 -8 -279 -8 -159 71 c 2,28,-1
 -12 167 l 2,29,30
 69 228 69 228 130 292 c 0,31,32
 213 380 213 380 266 497 c 0,33,34
 283 536 283 536 302 595 c 128,-1,35
 321 654 321 654 343 734 c 0,36,37
 346 745 346 745 364 784.5 c 128,-1,38
 382 824 382 824 414 894 c 1,39,-1
 432 894 l 1,40,-1
 432 834 l 2,10,11
EndSplineSet
EndChar

StartChar: zainfinal
Encoding: 65200 65200 135
Width: 983
Flags: W
AnchorPoint: "ArabicBelow" 491 -939 basechar 0
AnchorPoint: "ArabicAbove" 491 969 basechar 0
LayerCount: 2
Fore
SplineSet
839 546 m 0,0,1
 839 511 839 511 760 453 c 0,2,3
 735 437 735 437 711 421 c 128,-1,4
 687 405 687 405 662 389 c 1,5,6
 609 450 609 450 589 471 c 0,7,8
 527 534 527 534 501 534 c 1,9,-1
 501 546 l 1,10,-1
 684 719 l 1,11,12
 839 615 839 615 839 546 c 0,0,1
1032 109 m 1,13,14
 950 109 950 109 906 109 c 0,15,16
 863 109 863 109 856 108 c 0,17,18
 769 100 769 100 689 62 c 0,19,20
 602 21 602 21 510 -67 c 0,21,22
 504 -72 504 -72 357 -226 c 0,23,24
 70 -525 70 -525 -142 -617 c 0,25,26
 -182 -634 -182 -634 -305 -668 c 0,27,28
 -382 -689 -382 -689 -399 -689 c 0,29,30
 -403 -689 -403 -689 -412 -683 c 1,31,-1
 -416 -674 l 1,32,33
 -397 -658 -397 -658 -285 -596 c 0,34,35
 28 -425 28 -425 310 -135 c 0,36,37
 312 -133 312 -133 358.5 -78 c 128,-1,38
 405 -23 405 -23 496 85 c 0,39,40
 618 229 618 229 696 272 c 0,41,42
 799 328 799 328 1032 328 c 1,43,-1
 1032 109 l 1,13,14
EndSplineSet
EndChar

StartChar: seenisolated
Encoding: 65201 65201 136
Width: 1747
Flags: W
AnchorPoint: "ArabicBelow" 873 -978 basechar 0
AnchorPoint: "ArabicAbove" 873 968 basechar 0
LayerCount: 2
Fore
SplineSet
1720 686 m 0,0,1
 1720 621 1720 621 1664 530 c 0,2,3
 1602 432 1602 432 1541 426 c 1,4,5
 1476 444 1476 444 1465 444 c 0,6,7
 1432 444 1432 444 1390 372 c 0,8,9
 1343 291 1343 291 1313 278 c 0,10,11
 1290 267 1290 267 1267.5 256.5 c 128,-1,12
 1245 246 1245 246 1222 235 c 0,13,14
 1177 206 1177 206 1173 152 c 0,15,16
 1165 78 1165 78 1113 -61 c 0,17,18
 1099 -96 1099 -96 1081 -139.5 c 128,-1,19
 1063 -183 1063 -183 1040 -236 c 0,20,21
 1011 -301 1011 -301 929 -409 c 0,22,23
 685 -728 685 -728 372 -728 c 0,24,25
 234 -728 234 -728 122 -610 c 0,26,27
 13 -495 13 -495 13 -355 c 0,28,29
 13 -174 13 -174 139 161 c 0,30,31
 189 292 189 292 217 292 c 0,32,33
 246 292 246 292 245 256 c 1,34,35
 124 54 124 54 124 -121 c 0,36,37
 124 -269 124 -269 232 -363 c 0,38,39
 335 -453 335 -453 485 -453 c 0,40,41
 712 -453 712 -453 893 -263 c 0,42,43
 1067 -80 1067 -80 1092 149 c 0,44,45
 1095 176 1095 176 1095 305 c 0,46,47
 1095 393 1095 393 1158 393 c 0,48,49
 1164 393 1164 393 1174.5 392 c 128,-1,50
 1185 391 1185 391 1196.5 389.5 c 128,-1,51
 1208 388 1208 388 1218.5 387 c 128,-1,52
 1229 386 1229 386 1235 386 c 0,53,54
 1306 386 1306 386 1389 482 c 0,55,56
 1473 579 1473 579 1503 579 c 0,57,58
 1514 579 1514 579 1538 569 c 0,59,60
 1563 560 1563 560 1575 560 c 0,61,62
 1613 560 1613 560 1648 637 c 0,63,64
 1683 715 1683 715 1694 718 c 1,65,-1
 1714 709 l 1,66,67
 1720 700 1720 700 1720 686 c 0,0,1
EndSplineSet
EndChar

StartChar: seenfinal
Encoding: 65202 65202 137
Width: 1987
Flags: W
AnchorPoint: "ArabicBelow" 993 -1074 basechar 0
AnchorPoint: "ArabicAbove" 993 655 basechar 0
LayerCount: 2
Fore
SplineSet
1975 109 m 2,0,1
 1894 109 1894 109 1836 140 c 0,2,3
 1820 148 1820 148 1790 169.5 c 128,-1,4
 1760 191 1760 191 1715 226 c 1,5,6
 1648 163 1648 163 1630 151 c 0,7,8
 1580 114 1580 114 1525 114 c 0,9,10
 1510 114 1510 114 1483 123 c 0,11,12
 1457 133 1457 133 1445 133 c 0,13,14
 1436 133 1436 133 1404 107 c 0,15,16
 1364 74 1364 74 1329 60 c 0,17,18
 1268 34 1268 34 1191 34 c 0,19,20
 1156 34 1156 34 1141 -11 c 0,21,22
 1136 -25 1136 -25 1126 -87 c 0,23,24
 1118 -138 1118 -138 1087 -204 c 0,25,26
 1076 -233 1076 -233 1056 -274.5 c 128,-1,27
 1036 -316 1036 -316 1008 -372 c 0,28,29
 732 -824 732 -824 396 -824 c 0,30,31
 218 -824 218 -824 114 -702 c 0,32,33
 15 -588 15 -588 15 -407 c 0,34,35
 15 -329 15 -329 35 -254 c 0,36,37
 153 194 153 194 226 194 c 0,38,39
 247 194 247 194 247 164 c 0,40,41
 247 115 247 115 193 -17 c 256,42,43
 139 -149 139 -149 139 -217 c 0,44,45
 139 -374 139 -374 246 -454 c 0,46,47
 341 -525 341 -525 503 -525 c 0,48,49
 596 -525 596 -525 715 -471 c 0,50,51
 882 -394 882 -394 972 -247 c 0,52,53
 1059 -103 1059 -103 1059 85 c 0,54,55
 1059 255 1059 255 1105 255 c 0,56,57
 1122 255 1122 255 1159 236 c 256,58,59
 1196 217 1196 217 1214 217 c 0,60,61
 1313 217 1313 217 1363 239 c 0,62,63
 1423 265 1423 265 1479 339 c 1,64,65
 1538 274 1538 274 1585 274 c 0,66,67
 1645 274 1645 274 1695 339 c 0,68,69
 1744 405 1744 405 1754 405 c 1,70,71
 1861 328 1861 328 2013 328 c 1,72,-1
 2013 109 l 1,73,-1
 1975 109 l 2,0,1
EndSplineSet
EndChar

StartChar: seeninitial
Encoding: 65203 65203 138
Width: 961
Flags: W
AnchorPoint: "ArabicBelow" 480 -141 basechar 0
AnchorPoint: "ArabicAbove" 480 858 basechar 0
LayerCount: 2
Fore
SplineSet
983 593 m 1,0,1
 983 549 983 549 884 432 c 0,2,3
 786 316 786 316 745 316 c 0,4,5
 742 316 742 316 648 347 c 1,6,7
 625 330 625 330 601.5 313.5 c 128,-1,8
 578 297 578 297 555 280 c 0,9,10
 491 237 491 237 450 237 c 0,11,12
 427 237 427 237 393 256 c 256,13,14
 359 275 359 275 337 275 c 0,15,16
 290 275 290 275 189 192 c 0,17,18
 89 109 89 109 47 109 c 2,19,-1
 0 109 l 1,20,-1
 0 328 l 1,21,22
 159 328 159 328 236 361 c 0,23,24
 242 363 242 363 264.5 377 c 128,-1,25
 287 391 287 391 327 416 c 0,26,27
 379 450 379 450 425 450 c 0,28,29
 462 450 462 450 554 402 c 1,30,-1
 562 401 l 2,31,32
 596 401 596 401 652 451 c 0,33,34
 669 470 669 470 687 488 c 128,-1,35
 705 506 705 506 722 524 c 1,36,37
 727 523 727 523 756 494 c 0,38,39
 781 470 781 470 815 470 c 256,40,41
 849 470 849 470 891 539 c 256,42,43
 933 608 933 608 965 608 c 0,44,45
 977 608 977 608 982 600 c 1,46,-1
 983 593 l 1,0,1
EndSplineSet
EndChar

StartChar: seenmedial
Encoding: 65204 65204 139
Width: 1049
Flags: W
AnchorPoint: "ArabicBelow" 524 -141 basechar 0
AnchorPoint: "ArabicAbove" 524 659 basechar 0
LayerCount: 2
Fore
SplineSet
1044 109 m 2,0,1
 978 109 978 109 920 164 c 1,2,3
 919 164 919 164 828 271 c 1,4,5
 818 273 l 0,6,7
 814 273 814 273 747 219 c 0,8,9
 679 165 679 165 626 165 c 0,10,11
 608 165 608 165 529 215 c 1,12,13
 524 214 524 214 435 174 c 0,14,15
 373 147 373 147 343 147 c 0,16,17
 289 147 289 147 257 185 c 1,18,19
 254 196 254 196 227 214 c 1,20,21
 215 216 215 216 203 219 c 1,22,23
 175 219 175 219 117 164 c 0,24,25
 61 109 61 109 0 109 c 1,26,-1
 0 328 l 1,27,28
 51 328 51 328 86.5 330 c 128,-1,29
 122 332 122 332 145 336 c 0,30,31
 164 339 164 339 199 348.5 c 128,-1,32
 234 358 234 358 286 374 c 0,33,34
 294 376 294 376 300 376 c 0,35,36
 331 376 331 376 381 342 c 0,37,38
 398 329 398 329 415 316.5 c 128,-1,39
 432 304 432 304 449 291 c 1,40,41
 471 287 l 1,42,43
 503 287 503 287 641 374 c 1,44,45
 648 364 648 364 654.5 354 c 128,-1,46
 661 344 661 344 668 333 c 0,47,48
 691 301 691 301 734 301 c 0,49,50
 762 301 762 301 812 355 c 0,51,52
 861 409 861 409 883 409 c 0,53,54
 903 409 903 409 914 347 c 1,55,56
 933 328 933 328 1082 328 c 1,57,-1
 1082 109 l 1,58,-1
 1044 109 l 2,0,1
EndSplineSet
EndChar

StartChar: sheenisolated
Encoding: 65205 65205 140
Width: 1747
Flags: W
AnchorPoint: "ArabicBelow" 873 -978 basechar 0
AnchorPoint: "ArabicAbove" 873 1565 basechar 0
LayerCount: 2
Fore
SplineSet
1445 1231 m 1,0,1
 1445 1202 1445 1202 1379 1114 c 0,2,3
 1315 1026 1315 1026 1290 1026 c 0,4,5
 1266 1026 1266 1026 1219 1055 c 0,6,7
 1168 1086 1168 1086 1168 1108 c 1,8,9
 1234 1208 1234 1208 1315 1315 c 1,10,11
 1345 1298 1345 1298 1377.5 1277 c 128,-1,12
 1410 1256 1410 1256 1445 1231 c 1,0,1
1614 947 m 0,13,14
 1614 913 1614 913 1549 834 c 0,15,16
 1481 753 1481 753 1445 753 c 1,17,18
 1349 807 1349 807 1336 807 c 0,19,20
 1322 807 1322 807 1274 742 c 0,21,22
 1227 677 1227 677 1193 677 c 0,23,24
 1169 677 1169 677 1103 709 c 0,25,26
 1034 743 1034 743 1034 762 c 1,27,28
 1181 949 1181 949 1199 949 c 0,29,30
 1206 949 1206 949 1262 916 c 0,31,32
 1317 883 1317 883 1332 883 c 0,33,34
 1350 883 1350 883 1410 959 c 256,35,36
 1470 1035 1470 1035 1490 1035 c 1,37,38
 1614 969 1614 969 1614 947 c 0,13,14
1720 686 m 0,39,40
 1720 621 1720 621 1664 530 c 0,41,42
 1602 432 1602 432 1541 426 c 1,43,44
 1476 444 1476 444 1465 444 c 0,45,46
 1432 444 1432 444 1390 372 c 0,47,48
 1343 291 1343 291 1313 278 c 0,49,50
 1290 267 1290 267 1267.5 256.5 c 128,-1,51
 1245 246 1245 246 1222 235 c 0,52,53
 1177 206 1177 206 1173 152 c 0,54,55
 1165 78 1165 78 1113 -61 c 0,56,57
 1099 -96 1099 -96 1081 -139.5 c 128,-1,58
 1063 -183 1063 -183 1040 -236 c 0,59,60
 1011 -301 1011 -301 929 -409 c 0,61,62
 685 -728 685 -728 372 -728 c 0,63,64
 234 -728 234 -728 122 -610 c 0,65,66
 13 -495 13 -495 13 -355 c 0,67,68
 13 -174 13 -174 139 161 c 0,69,70
 189 292 189 292 217 292 c 0,71,72
 246 292 246 292 245 256 c 1,73,74
 124 54 124 54 124 -121 c 0,75,76
 124 -269 124 -269 232 -363 c 0,77,78
 335 -453 335 -453 485 -453 c 0,79,80
 712 -453 712 -453 893 -263 c 0,81,82
 1067 -80 1067 -80 1092 149 c 0,83,84
 1095 176 1095 176 1095 305 c 0,85,86
 1095 393 1095 393 1158 393 c 0,87,88
 1164 393 1164 393 1174.5 392 c 128,-1,89
 1185 391 1185 391 1196.5 389.5 c 128,-1,90
 1208 388 1208 388 1218.5 387 c 128,-1,91
 1229 386 1229 386 1235 386 c 0,92,93
 1306 386 1306 386 1389 482 c 0,94,95
 1473 579 1473 579 1503 579 c 0,96,97
 1514 579 1514 579 1538 569 c 0,98,99
 1563 560 1563 560 1575 560 c 0,100,101
 1613 560 1613 560 1648 637 c 0,102,103
 1683 715 1683 715 1694 718 c 1,104,-1
 1714 709 l 1,105,106
 1720 700 1720 700 1720 686 c 0,39,40
EndSplineSet
EndChar

StartChar: sheenfinal
Encoding: 65206 65206 141
Width: 1999
Flags: W
AnchorPoint: "ArabicBelow" 999 -1074 basechar 0
AnchorPoint: "ArabicAbove" 999 1382 basechar 0
LayerCount: 2
Fore
SplineSet
1483 1048 m 1,0,1
 1483 1019 1483 1019 1417 931 c 0,2,3
 1353 843 1353 843 1328 843 c 0,4,5
 1304 843 1304 843 1257 872 c 0,6,7
 1206 903 1206 903 1206 925 c 1,8,9
 1273 1025 1273 1025 1353 1132 c 1,10,11
 1383 1115 1383 1115 1415.5 1094 c 128,-1,12
 1448 1073 1448 1073 1483 1048 c 1,0,1
1652 764 m 0,13,14
 1652 730 1652 730 1587 651 c 0,15,16
 1519 570 1519 570 1483 570 c 1,17,18
 1460 584 1460 584 1432.5 598 c 128,-1,19
 1405 612 1405 612 1374 625 c 1,20,21
 1359 625 1359 625 1312 560 c 256,22,23
 1265 495 1265 495 1231 495 c 0,24,25
 1204 495 1204 495 1141 526 c 0,26,27
 1072 559 1072 559 1072 579 c 1,28,29
 1218 767 1218 767 1237 767 c 0,30,31
 1248 767 1248 767 1303 733 c 0,32,33
 1358 700 1358 700 1370 700 c 0,34,35
 1388 700 1388 700 1448 776 c 256,36,37
 1508 852 1508 852 1528 852 c 1,38,39
 1652 794 1652 794 1652 764 c 0,13,14
1973 109 m 2,40,41
 1892 109 1892 109 1834 140 c 0,42,43
 1818 148 1818 148 1788 169.5 c 128,-1,44
 1758 191 1758 191 1713 226 c 1,45,46
 1646 163 1646 163 1628 151 c 0,47,48
 1578 114 1578 114 1523 114 c 0,49,50
 1508 114 1508 114 1481 123 c 0,51,52
 1455 133 1455 133 1443 133 c 0,53,54
 1434 133 1434 133 1402 107 c 0,55,56
 1362 74 1362 74 1327 60 c 0,57,58
 1266 34 1266 34 1189 34 c 0,59,60
 1154 34 1154 34 1139 -11 c 0,61,62
 1134 -25 1134 -25 1124 -87 c 0,63,64
 1116 -138 1116 -138 1085 -204 c 0,65,66
 1074 -233 1074 -233 1054 -274.5 c 128,-1,67
 1034 -316 1034 -316 1006 -372 c 0,68,69
 730 -824 730 -824 394 -824 c 0,70,71
 216 -824 216 -824 112 -702 c 0,72,73
 13 -588 13 -588 13 -407 c 0,74,75
 13 -329 13 -329 33 -254 c 0,76,77
 151 194 151 194 224 194 c 0,78,79
 245 194 245 194 245 164 c 0,80,81
 245 115 245 115 191 -17 c 256,82,83
 137 -149 137 -149 137 -217 c 0,84,85
 137 -374 137 -374 244 -454 c 0,86,87
 339 -525 339 -525 501 -525 c 0,88,89
 594 -525 594 -525 713 -471 c 0,90,91
 880 -394 880 -394 970 -247 c 0,92,93
 1057 -103 1057 -103 1057 85 c 0,94,95
 1057 255 1057 255 1103 255 c 0,96,97
 1120 255 1120 255 1157 236 c 256,98,99
 1194 217 1194 217 1212 217 c 0,100,101
 1311 217 1311 217 1361 239 c 0,102,103
 1421 265 1421 265 1477 339 c 1,104,105
 1536 274 1536 274 1583 274 c 0,106,107
 1643 274 1643 274 1693 339 c 0,108,109
 1742 405 1742 405 1752 405 c 1,110,111
 1822 355 1822 355 1884 340 c 0,112,113
 1932 328 1932 328 2029 328 c 1,114,-1
 2029 109 l 1,115,-1
 1973 109 l 2,40,41
EndSplineSet
EndChar

StartChar: sheeninitial
Encoding: 65207 65207 142
Width: 961
Flags: W
AnchorPoint: "ArabicBelow" 480 -141 basechar 0
AnchorPoint: "ArabicAbove" 480 1541 basechar 0
LayerCount: 2
Fore
SplineSet
762 1197 m 1,0,1
 762 1172 762 1172 690 1073 c 0,2,3
 616 971 616 971 593 971 c 0,4,5
 567 971 567 971 514 1003 c 0,6,7
 457 1037 457 1037 457 1062 c 1,8,9
 463 1072 463 1072 482.5 1100.5 c 128,-1,10
 502 1129 502 1129 536 1178 c 0,11,12
 574 1233 574 1233 594.5 1261 c 128,-1,13
 615 1289 615 1289 619 1291 c 1,14,15
 661 1266 661 1266 697 1242.5 c 128,-1,16
 733 1219 733 1219 762 1197 c 1,0,1
949 885 m 0,17,18
 949 845 949 845 877 758 c 256,19,20
 805 671 805 671 762 671 c 1,21,22
 712 701 712 701 642 731 c 1,23,24
 625 710 625 710 607 689 c 128,-1,25
 571 647 l 0,26,27
 518 588 518 588 484 588 c 0,28,29
 458 588 458 588 386 623 c 0,30,31
 311 659 311 659 311 681 c 1,32,33
 472 887 472 887 492 887 c 0,34,35
 504 887 504 887 562 850 c 0,36,37
 622 814 622 814 639 814 c 0,38,39
 658 814 658 814 726 897 c 0,40,41
 793 981 793 981 811 981 c 1,42,43
 949 909 949 909 949 885 c 0,17,18
983 593 m 1,44,45
 983 549 983 549 884 432 c 0,46,47
 786 316 786 316 745 316 c 0,48,49
 742 316 742 316 648 347 c 1,50,51
 625 330 625 330 601.5 313.5 c 128,-1,52
 578 297 578 297 555 280 c 0,53,54
 491 237 491 237 450 237 c 0,55,56
 427 237 427 237 393 256 c 256,57,58
 359 275 359 275 337 275 c 0,59,60
 290 275 290 275 189 192 c 0,61,62
 89 109 89 109 47 109 c 2,63,-1
 0 109 l 1,64,-1
 0 328 l 1,65,66
 159 328 159 328 236 361 c 0,67,68
 242 363 242 363 264.5 377 c 128,-1,69
 287 391 287 391 327 416 c 0,70,71
 379 450 379 450 425 450 c 0,72,73
 462 450 462 450 554 402 c 1,74,-1
 562 401 l 2,75,76
 596 401 596 401 652 451 c 0,77,78
 669 470 669 470 687 488 c 128,-1,79
 705 506 705 506 722 524 c 1,80,81
 727 523 727 523 756 494 c 0,82,83
 781 470 781 470 815 470 c 256,84,85
 849 470 849 470 891 539 c 256,86,87
 933 608 933 608 965 608 c 0,88,89
 977 608 977 608 982 600 c 1,90,-1
 983 593 l 1,44,45
EndSplineSet
EndChar

